<svg width="38" height="68" viewBox="0 0 38 68" fill="none" xmlns="http://www.w3.org/2000/svg">
<g clip-path="url(#clip0_232_1783)">
<path d="M16.5449 16.5037C16.5449 15.409 17.4368 14.5215 18.537 14.5215C19.6371 14.5215 20.529 15.409 20.529 16.5037C20.529 17.5985 19.6371 18.486 18.537 18.486C17.4368 18.486 16.5449 17.5985 16.5449 16.5037Z" fill="white"/>
<path d="M33.5309 30.7502C34.1433 31.7526 35.4562 32.0713 36.4634 31.462C37.4707 30.8527 37.7909 29.5463 37.1786 28.5439L20.7851 1.70657C19.8377 0.155552 17.5716 0.16635 16.6392 1.72639L0.855353 28.1334C-0.103655 29.7379 1.05831 31.7709 2.93434 31.7709H18.4309C19.7668 31.7709 20.8498 30.6933 20.8498 29.3639V22.1695C20.8498 20.9965 19.8943 20.0457 18.7155 20.0457C17.5367 20.0457 16.5811 20.9965 16.5811 22.1695V27.5233H6.18673L18.7353 6.52874L33.5309 30.7502Z" fill="white"/>
<g opacity="0.6">
<path d="M1.70265 35.167H4.61035C4.66345 35.167 4.7125 35.1953 4.73906 35.2412L17.8459 57.9022L21.4846 64.1932C21.5112 64.2393 21.5112 64.2958 21.4845 64.3418L20.0288 66.8551C19.5707 67.646 18.4275 67.6458 17.9699 66.8545L15.3172 62.268L0.673003 36.9492C0.214955 36.1573 0.787066 35.167 1.70265 35.167Z" fill="white"/>
<path fill-rule="evenodd" clip-rule="evenodd" d="M15.1313 35.167C15.0169 35.167 14.9453 35.2908 15.0026 35.3898L24.0464 51.026C24.0732 51.0723 24.0732 51.1295 24.0464 51.1759L20.199 57.8278C20.1724 57.8739 20.1724 57.9305 20.199 57.9765L22.556 62.0457C22.6133 62.1446 22.7562 62.1446 22.8134 62.0457L37.3289 36.9492C37.787 36.1573 37.2149 35.167 36.2992 35.167H15.1313ZM30.3838 39.3247C30.6134 39.3247 30.7567 39.5742 30.6415 39.7735L26.8743 46.2866C26.7595 46.4851 26.4739 46.4851 26.3592 46.2866L22.592 39.7735C22.4768 39.5742 22.62 39.3247 22.8496 39.3247H30.3838Z" fill="white"/>
</g>
<path d="M37.8094 3.02181C37.8094 1.457 36.5334 0.188477 34.9594 0.188477C33.3854 0.188477 32.1094 1.457 32.1094 3.02181C32.1094 4.58662 33.3854 5.85514 34.9594 5.85514C36.5334 5.85514 37.8094 4.58662 37.8094 3.02181Z" stroke="#D9D9D9" stroke-width="0.5"/>
<path d="M33.7988 4.31812V1.72656H35.1706C35.3631 1.72656 35.5227 1.7593 35.6494 1.82478C35.776 1.89026 35.871 1.98345 35.9344 2.10434C35.9977 2.22523 36.0294 2.36752 36.0294 2.53123C36.0294 2.69997 35.9914 2.84982 35.9154 2.98078C35.8394 3.10923 35.7279 3.20619 35.581 3.27167L36.1206 4.31812H35.581L35.1022 3.35478H34.2928V4.31812H33.7988ZM34.2928 2.94301H35.1326C35.2592 2.94301 35.3568 2.90648 35.4252 2.83345C35.4936 2.76041 35.5278 2.65967 35.5278 2.53123C35.5278 2.44812 35.5126 2.37886 35.4822 2.32345C35.4518 2.26552 35.4074 2.22145 35.3492 2.19123C35.2909 2.16101 35.2187 2.1459 35.1326 2.1459H34.2928V2.94301Z" fill="white"/>
</g>
<defs>
<clipPath id="clip0_232_1783">
<rect width="38" height="68" fill="white"/>
</clipPath>
</defs>
</svg>
