<svg width="36" height="36" viewBox="0 0 36 36" fill="none" xmlns="http://www.w3.org/2000/svg">
<rect width="36" height="36" rx="18" fill="white"/>
<g clip-path="url(#clip0_232_1761)">
<path d="M26.5195 8H9.47656C8.66016 8 8 8.64453 8 9.44141V26.5547C8 27.3516 8.66016 28 9.47656 28H26.5195C27.3359 28 28 27.3516 28 26.5586V9.44141C28 8.64453 27.3359 8 26.5195 8ZM13.9336 25.043H10.9648V15.4961H13.9336V25.043ZM12.4492 14.1953C11.4961 14.1953 10.7266 13.4258 10.7266 12.4766C10.7266 11.5273 11.4961 10.7578 12.4492 10.7578C13.3984 10.7578 14.168 11.5273 14.168 12.4766C14.168 13.4219 13.3984 14.1953 12.4492 14.1953ZM25.043 25.043H22.0781V20.4023C22.0781 19.2969 22.0586 17.8711 20.5352 17.8711C18.9922 17.8711 18.7578 19.0781 18.7578 20.3242V25.043H15.7969V15.4961H18.6406V16.8008H18.6797C19.0742 16.0508 20.043 15.2578 21.4844 15.2578C24.4883 15.2578 25.043 17.2344 25.043 19.8047V25.043Z" fill="black"/>
</g>
<defs>
<clipPath id="clip0_232_1761">
<rect width="20" height="20" fill="white" transform="translate(8 8)"/>
</clipPath>
</defs>
</svg>
