<svg width="31" height="55" viewBox="0 0 31 55" fill="none" xmlns="http://www.w3.org/2000/svg">
<g clip-path="url(#clip0_59_366)">
<path d="M13.4006 13.1786C13.4006 12.3044 14.1128 11.5957 14.9913 11.5957C15.8699 11.5957 16.5821 12.3044 16.5821 13.1786C16.5821 14.0528 15.8699 14.7615 14.9913 14.7615C14.1128 14.7615 13.4006 14.0528 13.4006 13.1786Z" fill="white"/>
<path d="M26.9654 24.5557C27.4544 25.3561 28.5028 25.6106 29.3072 25.1241C30.1115 24.6375 30.3672 23.5943 29.8783 22.7939L16.7873 1.36294C16.0307 0.124379 14.2212 0.133002 13.4766 1.37877L0.872408 22.4661C0.106594 23.7473 1.03448 25.3708 2.53258 25.3708H14.9073C15.9741 25.3708 16.8389 24.5102 16.8389 23.4487V17.7036C16.8389 16.7669 16.0759 16.0076 15.1346 16.0076C14.1933 16.0076 13.4302 16.7669 13.4302 17.7036V21.9788H5.12977L15.1504 5.21368L26.9654 24.5557Z" fill="white"/>
<g opacity="0.6">
<path d="M1.54887 28.083H3.87081C3.91321 28.083 3.95238 28.1056 3.97359 28.1423L14.44 46.2381L17.3457 51.2619C17.367 51.2986 17.3669 51.3438 17.3456 51.3805L16.1832 53.3875C15.8173 54.019 14.9045 54.0189 14.5391 53.387L12.4207 49.7245L0.726648 29.5062C0.360874 28.8738 0.817733 28.083 1.54887 28.083Z" fill="white"/>
<path fill-rule="evenodd" clip-rule="evenodd" d="M12.2714 28.083C12.18 28.083 12.1229 28.1818 12.1686 28.2609L19.3906 40.7471C19.4119 40.7842 19.4119 40.8299 19.3906 40.8669L16.3182 46.1788C16.297 46.2155 16.297 46.2608 16.3182 46.2975L18.2004 49.547C18.2462 49.6259 18.3602 49.6259 18.4059 49.5469L29.9973 29.5062C30.3631 28.8738 29.9062 28.083 29.175 28.083H12.2714ZM24.4513 31.4031C24.6346 31.4031 24.749 31.6024 24.657 31.7615L21.6488 36.9625C21.5571 37.121 21.3291 37.121 21.2374 36.9625L18.2292 31.7615C18.1372 31.6024 18.2516 31.4031 18.4348 31.4031H24.4513Z" fill="white"/>
</g>
<path d="M30.383 2.41294C30.383 1.16337 29.364 0.150391 28.1071 0.150391C26.8502 0.150391 25.8313 1.16337 25.8313 2.41294C25.8313 3.66252 26.8502 4.6755 28.1071 4.6755C29.364 4.6755 30.383 3.66252 30.383 2.41294Z" stroke="#D9D9D9" stroke-width="0.5"/>
<path d="M27.18 3.44827V1.37878H28.2754C28.4291 1.37878 28.5566 1.40493 28.6578 1.45722C28.7589 1.50951 28.8347 1.58392 28.8853 1.68046C28.9359 1.77699 28.9612 1.89062 28.9612 2.02135C28.9612 2.15609 28.9309 2.27576 28.8702 2.38034C28.8095 2.48291 28.7205 2.56034 28.6031 2.61263L29.034 3.44827H28.6031L28.2208 2.679H27.5745V3.44827H27.18ZM27.5745 2.35017H28.2451C28.3462 2.35017 28.4241 2.32101 28.4787 2.26269C28.5334 2.20436 28.5607 2.12392 28.5607 2.02135C28.5607 1.95498 28.5485 1.89967 28.5242 1.85543C28.5 1.80917 28.4645 1.77398 28.418 1.74984C28.3715 1.72571 28.3138 1.71364 28.2451 1.71364H27.5745V2.35017Z" fill="white"/>
</g>
<defs>
<clipPath id="clip0_59_366">
<rect width="30.3448" height="54.3013" fill="white" transform="translate(0.189651)"/>
</clipPath>
</defs>
</svg>
