<svg width="358" height="255" viewBox="0 0 358 255" fill="none" xmlns="http://www.w3.org/2000/svg">
<mask id="path-1-inside-1_2747_549" fill="white">
<path fill-rule="evenodd" clip-rule="evenodd" d="M358 15.4532C358 6.91865 351.081 0 342.547 0H15.4532C6.91865 0 0 6.91864 0 15.4532V239.525C0 248.06 6.91864 254.978 15.4532 254.978H60.04C68.1173 254.978 74.7095 248.714 76.4161 240.819C86.6319 193.556 128.68 158.144 179 158.144C229.32 158.144 271.368 193.556 281.584 240.819C283.29 248.714 289.883 254.978 297.96 254.978H342.547C351.081 254.978 358 248.06 358 239.525V15.4532Z"/>
</mask>
<path fill-rule="evenodd" clip-rule="evenodd" d="M358 15.4532C358 6.91865 351.081 0 342.547 0H15.4532C6.91865 0 0 6.91864 0 15.4532V239.525C0 248.06 6.91864 254.978 15.4532 254.978H60.04C68.1173 254.978 74.7095 248.714 76.4161 240.819C86.6319 193.556 128.68 158.144 179 158.144C229.32 158.144 271.368 193.556 281.584 240.819C283.29 248.714 289.883 254.978 297.96 254.978H342.547C351.081 254.978 358 248.06 358 239.525V15.4532Z" fill="url(#paint0_radial_2747_549)"/>
<path d="M76.4161 240.819L75.7867 240.683L76.4161 240.819ZM281.584 240.819L280.955 240.955L281.584 240.819ZM15.4532 0V0.643885H342.547V0V-0.643885H15.4532V0ZM0 239.525H0.643885V15.4532H0H-0.643885V239.525H0ZM60.04 254.978V254.335H15.4532V254.978V255.622H60.04V254.978ZM76.4161 240.819L77.0454 240.955C87.1986 193.982 128.99 158.788 179 158.788V158.144V157.5C128.371 157.5 86.0653 193.13 75.7867 240.683L76.4161 240.819ZM179 158.144V158.788C229.01 158.788 270.801 193.982 280.955 240.955L281.584 240.819L282.213 240.683C271.935 193.13 229.629 157.5 179 157.5V158.144ZM342.547 254.978V254.335H297.96V254.978V255.622H342.547V254.978ZM358 15.4532H357.356V239.525H358H358.644V15.4532H358ZM342.547 254.978V255.622C351.437 255.622 358.644 248.415 358.644 239.525H358H357.356C357.356 247.704 350.726 254.335 342.547 254.335V254.978ZM60.04 254.978V255.622C68.4717 255.622 75.2863 249.093 77.0454 240.955L76.4161 240.819L75.7867 240.683C74.1328 248.335 67.7629 254.335 60.04 254.335V254.978ZM0 239.525H-0.643885C-0.643885 248.415 6.56303 255.622 15.4532 255.622V254.978V254.335C7.27425 254.335 0.643885 247.704 0.643885 239.525H0ZM342.547 0V0.643885C350.726 0.643885 357.356 7.27426 357.356 15.4532H358H358.644C358.644 6.56304 351.437 -0.643885 342.547 -0.643885V0ZM281.584 240.819L280.955 240.955C282.714 249.093 289.528 255.622 297.96 255.622V254.978V254.335C290.237 254.335 283.867 248.335 282.213 240.683L281.584 240.819ZM15.4532 0V-0.643885C6.56304 -0.643885 -0.643885 6.56303 -0.643885 15.4532H0H0.643885C0.643885 7.27424 7.27426 0.643885 15.4532 0.643885V0Z" fill="white" fill-opacity="0.19" mask="url(#path-1-inside-1_2747_549)"/>
<defs>
<radialGradient id="paint0_radial_2747_549" cx="0" cy="0" r="1" gradientUnits="userSpaceOnUse" gradientTransform="translate(179 275.261) rotate(-91.3303) scale(221.878 222.438)">
<stop stop-color="#BCFFBA"/>
<stop offset="1" stop-color="#25B021"/>
</radialGradient>
</defs>
</svg>
