<svg width="171" height="314" viewBox="0 0 171 314" fill="none" xmlns="http://www.w3.org/2000/svg">
<mask id="path-1-inside-1_2747_569" fill="white">
<path fill-rule="evenodd" clip-rule="evenodd" d="M78.1007 14.1288C76.3842 6.24682 69.7973 0 61.7306 0L15.4532 0C6.91865 0 0 6.91867 0 15.4533V298.547C0 307.081 6.91864 314 15.4532 314H155.547C164.081 314 171 307.081 171 298.547V110.317C171 102.326 164.866 95.7759 157.078 93.9882C117.663 84.9406 86.7188 53.7026 78.1007 14.1288Z"/>
</mask>
<path fill-rule="evenodd" clip-rule="evenodd" d="M78.1007 14.1288C76.3842 6.24682 69.7973 0 61.7306 0L15.4532 0C6.91865 0 0 6.91867 0 15.4533V298.547C0 307.081 6.91864 314 15.4532 314H155.547C164.081 314 171 307.081 171 298.547V110.317C171 102.326 164.866 95.7759 157.078 93.9882C117.663 84.9406 86.7188 53.7026 78.1007 14.1288Z" fill="#023900"/>
<path fill-rule="evenodd" clip-rule="evenodd" d="M78.1007 14.1288C76.3842 6.24682 69.7973 0 61.7306 0L15.4532 0C6.91865 0 0 6.91867 0 15.4533V298.547C0 307.081 6.91864 314 15.4532 314H155.547C164.081 314 171 307.081 171 298.547V110.317C171 102.326 164.866 95.7759 157.078 93.9882C117.663 84.9406 86.7188 53.7026 78.1007 14.1288Z" fill="url(#paint0_radial_2747_569)"/>
<path d="M15.4532 0V0.643885H61.7306V0V-0.643885H15.4532V0ZM0 298.547H0.643885V15.4533H0H-0.643885V298.547H0ZM155.547 314V313.356H15.4532V314V314.644H155.547V314ZM171 110.317H170.356V298.547H171H171.644V110.317H171ZM157.078 93.9882L157.222 93.3606C118.05 84.3687 87.2948 53.3216 78.7298 13.9918L78.1007 14.1288L77.4715 14.2659C86.1428 54.0835 117.276 85.5124 156.934 94.6157L157.078 93.9882ZM171 110.317H171.644C171.644 101.976 165.25 95.2035 157.222 93.3606L157.078 93.9882L156.934 94.6157C164.481 96.3482 170.356 102.676 170.356 110.317H171ZM155.547 314V314.644C164.437 314.644 171.644 307.437 171.644 298.547H171H170.356C170.356 306.726 163.726 313.356 155.547 313.356V314ZM0 298.547H-0.643885C-0.643885 307.437 6.56303 314.644 15.4532 314.644V314V313.356C7.27425 313.356 0.643885 306.726 0.643885 298.547H0ZM61.7306 0V0.643885C69.4435 0.643885 75.808 6.62681 77.4715 14.2659L78.1007 14.1288L78.7298 13.9918C76.9604 5.86684 70.1512 -0.643885 61.7306 -0.643885V0ZM15.4532 0V-0.643885C6.56304 -0.643885 -0.643885 6.56306 -0.643885 15.4533H0H0.643885C0.643885 7.27427 7.27426 0.643885 15.4532 0.643885V0Z" fill="white" fill-opacity="0.05" mask="url(#path-1-inside-1_2747_569)"/>
<defs>
<radialGradient id="paint0_radial_2747_569" cx="0" cy="0" r="1" gradientUnits="userSpaceOnUse" gradientTransform="translate(176.506 -11.5899) rotate(124.318) scale(229.202 229.483)">
<stop stop-color="#BCFFBA"/>
<stop offset="1" stop-color="#25B021" stop-opacity="0"/>
</radialGradient>
</defs>
</svg>
