<svg width="7" height="23" viewBox="0 0 7 23" fill="none" xmlns="http://www.w3.org/2000/svg">
<g filter="url(#filter0_i_2747_1189)">
<path d="M0 0C1.85651 0 3.63699 1.2116 4.94975 3.36827C6.2625 5.52494 7 8.45001 7 11.5C7 14.55 6.2625 17.4751 4.94975 19.6317C3.63699 21.7884 1.85652 23 9.53674e-07 23L0 11.73C0.0371304 11.73 0.0727401 11.7058 0.0989947 11.6626C0.12525 11.6195 0.14 11.561 0.14 11.5C0.14 11.439 0.12525 11.3805 0.0989947 11.3374C0.0727401 11.2942 0.0371304 11.27 0 11.27L0 0Z" fill="#068101"/>
</g>
<defs>
<filter id="filter0_i_2747_1189" x="0" y="0" width="7" height="24" filterUnits="userSpaceOnUse" color-interpolation-filters="sRGB">
<feFlood flood-opacity="0" result="BackgroundImageFix"/>
<feBlend mode="normal" in="SourceGraphic" in2="BackgroundImageFix" result="shape"/>
<feColorMatrix in="SourceAlpha" type="matrix" values="0 0 0 0 0 0 0 0 0 0 0 0 0 0 0 0 0 0 127 0" result="hardAlpha"/>
<feOffset dy="1"/>
<feGaussianBlur stdDeviation="1.5"/>
<feComposite in2="hardAlpha" operator="arithmetic" k2="-1" k3="1"/>
<feColorMatrix type="matrix" values="0 0 0 0 0 0 0 0 0 0 0 0 0 0 0 0 0 0 0.5 0"/>
<feBlend mode="normal" in2="shape" result="effect1_innerShadow_2747_1189"/>
</filter>
</defs>
</svg>
