<svg width="262" height="396" viewBox="0 0 262 396" fill="none" xmlns="http://www.w3.org/2000/svg">
<g opacity="0.5">
<path d="M125.563 523.5C278.59 523.5 402.627 397.236 402.627 241.5C402.627 85.7641 278.59 -40.5 125.563 -40.5C-27.4628 -40.5 -151.5 85.7641 -151.5 241.5C-151.5 397.236 -27.4628 523.5 125.563 523.5Z" stroke="url(#paint0_linear_59_285)" stroke-opacity="0.7" stroke-miterlimit="10"/>
<path d="M125.563 506.036C269.115 506.036 385.472 387.59 385.472 241.497C385.472 95.4053 269.115 -23.041 125.563 -23.041C-17.9882 -23.041 -134.345 95.4053 -134.345 241.497C-134.345 387.59 -17.9882 506.036 125.563 506.036Z" stroke="url(#paint1_linear_59_285)" stroke-opacity="0.7" stroke-miterlimit="10"/>
<path d="M125.563 488.583C259.644 488.583 368.323 377.951 368.323 241.499C368.323 105.047 259.644 -5.58496 125.563 -5.58496C-8.51744 -5.58496 -117.196 105.047 -117.196 241.499C-117.196 377.951 -8.51744 488.583 125.563 488.583Z" stroke="url(#paint2_linear_59_285)" stroke-opacity="0.7" stroke-miterlimit="10"/>
<path d="M125.564 471.129C250.174 471.129 351.175 368.312 351.175 241.5C351.175 114.688 250.174 11.8711 125.564 11.8711C0.954239 11.8711 -100.047 114.688 -100.047 241.5C-100.047 368.312 0.954239 471.129 125.564 471.129Z" stroke="url(#paint3_linear_59_285)" stroke-opacity="0.7" stroke-miterlimit="10"/>
<path d="M125.564 453.667C240.699 453.667 334.02 358.668 334.02 241.499C334.02 124.331 240.699 29.332 125.564 29.332C10.4288 29.332 -82.8916 124.331 -82.8916 241.499C-82.8916 358.668 10.4288 453.667 125.564 453.667Z" stroke="url(#paint4_linear_59_285)" stroke-opacity="0.7" stroke-miterlimit="10"/>
<path d="M125.562 436.211C231.226 436.211 316.869 349.026 316.869 241.498C316.869 133.969 231.226 46.7852 125.562 46.7852C19.8976 46.7852 -65.7451 133.969 -65.7451 241.498C-65.7451 349.026 19.8976 436.211 125.562 436.211Z" stroke="url(#paint5_linear_59_285)" stroke-opacity="0.7" stroke-miterlimit="10"/>
<path d="M125.562 418.759C221.755 418.759 299.72 339.39 299.72 241.501C299.72 143.613 221.755 64.2432 125.562 64.2432C29.3684 64.2432 -48.5966 143.613 -48.5966 241.501C-48.5966 339.39 29.3684 418.759 125.562 418.759Z" stroke="url(#paint6_linear_59_285)" stroke-opacity="0.7" stroke-miterlimit="10"/>
<path d="M125.565 401.297C212.283 401.297 282.568 329.745 282.568 241.501C282.568 153.256 212.283 81.7041 125.565 81.7041C38.8459 81.7041 -31.4385 153.256 -31.4385 241.501C-31.4385 329.745 38.8459 401.297 125.565 401.297Z" stroke="url(#paint7_linear_59_285)" stroke-opacity="0.7" stroke-miterlimit="10"/>
<path d="M125.562 383.841C202.81 383.841 265.417 320.104 265.417 241.499C265.417 162.894 202.81 99.1572 125.562 99.1572C48.3147 99.1572 -14.2919 162.894 -14.2919 241.499C-14.2919 320.104 48.3147 383.841 125.562 383.841Z" stroke="url(#paint8_linear_59_285)" stroke-opacity="0.7" stroke-miterlimit="10"/>
<path d="M125.562 366.378C193.335 366.378 248.261 310.459 248.261 241.497C248.261 172.536 193.335 116.617 125.562 116.617C57.7892 116.617 2.86328 172.536 2.86328 241.497C2.86328 310.459 57.7892 366.378 125.562 366.378Z" stroke="url(#paint9_linear_59_285)" stroke-opacity="0.7" stroke-miterlimit="10"/>
<path d="M125.563 348.925C183.865 348.925 231.114 300.821 231.114 241.5C231.114 182.179 183.865 134.074 125.563 134.074C67.261 134.074 20.0128 182.179 20.0128 241.5C20.0128 300.821 67.261 348.925 125.563 348.925Z" stroke="url(#paint10_linear_59_285)" stroke-opacity="0.7" stroke-miterlimit="10"/>
<path d="M125.564 331.469C174.395 331.469 213.966 291.179 213.966 241.498C213.966 191.817 174.395 151.527 125.564 151.527C76.7326 151.527 37.1621 191.817 37.1621 241.498C37.1621 291.179 76.7326 331.469 125.564 331.469Z" stroke="url(#paint11_linear_59_285)" stroke-opacity="0.7" stroke-miterlimit="10"/>
<path d="M125.564 314.01C164.921 314.01 196.81 281.538 196.81 241.5C196.81 201.463 164.921 168.991 125.564 168.991C86.2073 168.991 54.3175 201.463 54.3175 241.5C54.3175 281.538 86.2073 314.01 125.564 314.01Z" stroke="url(#paint12_linear_59_285)" stroke-opacity="0.7" stroke-miterlimit="10"/>
<path d="M125.566 296.551C155.451 296.551 179.663 271.894 179.663 241.497C179.663 211.1 155.451 186.442 125.566 186.442C95.6799 186.442 71.4678 211.1 71.4678 241.497C71.4678 271.894 95.6799 296.551 125.566 296.551Z" stroke="url(#paint13_linear_59_285)" stroke-opacity="0.7" stroke-miterlimit="10"/>
<path d="M125.563 279.099C145.977 279.099 162.512 262.257 162.512 241.499C162.512 220.742 145.977 203.899 125.563 203.899C105.148 203.899 88.6135 220.742 88.6135 241.499C88.6135 262.257 105.148 279.099 125.563 279.099Z" stroke="url(#paint14_linear_59_285)" stroke-opacity="0.7" stroke-miterlimit="10"/>
</g>
<defs>
<linearGradient id="paint0_linear_59_285" x1="125.563" y1="-40" x2="125.563" y2="523" gradientUnits="userSpaceOnUse">
<stop stop-color="#CFFF65" stop-opacity="0.5"/>
<stop offset="1" stop-color="#25B021" stop-opacity="0"/>
</linearGradient>
<linearGradient id="paint1_linear_59_285" x1="125.563" y1="-22.541" x2="125.563" y2="505.536" gradientUnits="userSpaceOnUse">
<stop stop-color="#CFFF65" stop-opacity="0.6"/>
<stop offset="1" stop-color="#25B021" stop-opacity="0"/>
</linearGradient>
<linearGradient id="paint2_linear_59_285" x1="125.563" y1="-5.08496" x2="125.563" y2="488.083" gradientUnits="userSpaceOnUse">
<stop stop-color="#CFFF65" stop-opacity="0.7"/>
<stop offset="1" stop-color="#25B021" stop-opacity="0"/>
</linearGradient>
<linearGradient id="paint3_linear_59_285" x1="125.564" y1="12.3711" x2="125.564" y2="470.629" gradientUnits="userSpaceOnUse">
<stop stop-color="#CFFF65" stop-opacity="0.8"/>
<stop offset="1" stop-color="#25B021" stop-opacity="0"/>
</linearGradient>
<linearGradient id="paint4_linear_59_285" x1="125.564" y1="29.832" x2="125.564" y2="453.167" gradientUnits="userSpaceOnUse">
<stop stop-color="#CFFF65" stop-opacity="0.9"/>
<stop offset="1" stop-color="#25B021" stop-opacity="0"/>
</linearGradient>
<linearGradient id="paint5_linear_59_285" x1="125.562" y1="47.2852" x2="125.562" y2="435.711" gradientUnits="userSpaceOnUse">
<stop stop-color="#CFFF65"/>
<stop offset="1" stop-color="#25B021" stop-opacity="0"/>
</linearGradient>
<linearGradient id="paint6_linear_59_285" x1="125.562" y1="64.7432" x2="125.562" y2="418.259" gradientUnits="userSpaceOnUse">
<stop stop-color="#CFFF65"/>
<stop offset="1" stop-color="#25B021" stop-opacity="0"/>
</linearGradient>
<linearGradient id="paint7_linear_59_285" x1="125.565" y1="82.2041" x2="125.565" y2="400.797" gradientUnits="userSpaceOnUse">
<stop stop-color="#CFFF65"/>
<stop offset="1" stop-color="#25B021" stop-opacity="0"/>
</linearGradient>
<linearGradient id="paint8_linear_59_285" x1="125.562" y1="99.6572" x2="125.562" y2="383.341" gradientUnits="userSpaceOnUse">
<stop stop-color="#CFFF65"/>
<stop offset="1" stop-color="#25B021" stop-opacity="0"/>
</linearGradient>
<linearGradient id="paint9_linear_59_285" x1="125.562" y1="117.117" x2="125.562" y2="365.878" gradientUnits="userSpaceOnUse">
<stop stop-color="#CFFF65"/>
<stop offset="1" stop-color="#25B021" stop-opacity="0"/>
</linearGradient>
<linearGradient id="paint10_linear_59_285" x1="125.563" y1="134.574" x2="125.563" y2="348.425" gradientUnits="userSpaceOnUse">
<stop stop-color="#CFFF65"/>
<stop offset="1" stop-color="#25B021" stop-opacity="0"/>
</linearGradient>
<linearGradient id="paint11_linear_59_285" x1="125.564" y1="152.027" x2="125.564" y2="330.969" gradientUnits="userSpaceOnUse">
<stop stop-color="#CFFF65"/>
<stop offset="1" stop-color="#25B021" stop-opacity="0"/>
</linearGradient>
<linearGradient id="paint12_linear_59_285" x1="125.564" y1="169.491" x2="125.564" y2="313.51" gradientUnits="userSpaceOnUse">
<stop stop-color="#CFFF65"/>
<stop offset="1" stop-color="#25B021" stop-opacity="0"/>
</linearGradient>
<linearGradient id="paint13_linear_59_285" x1="125.566" y1="186.942" x2="125.566" y2="296.051" gradientUnits="userSpaceOnUse">
<stop stop-color="#CFFF65"/>
<stop offset="1" stop-color="#25B021" stop-opacity="0"/>
</linearGradient>
<linearGradient id="paint14_linear_59_285" x1="125.563" y1="204.399" x2="125.563" y2="278.599" gradientUnits="userSpaceOnUse">
<stop stop-color="#CFFF65"/>
<stop offset="1" stop-color="#25B021" stop-opacity="0"/>
</linearGradient>
</defs>
</svg>
