<svg width="188" height="104" viewBox="0 0 188 104" fill="none" xmlns="http://www.w3.org/2000/svg">
<g filter="url(#filter0_di_59_330)">
<path fill-rule="evenodd" clip-rule="evenodd" d="M161.815 34C166.086 34 169.549 30.4183 169.549 26C169.549 21.5817 166.086 18 161.815 18C160.489 18 159.241 18.3454 158.15 18.954C155.274 20.5584 152.477 23 149.184 23L109.516 23C102.201 23 95.5349 27.1999 92.3772 33.7987L73.3258 73.6114C71.1652 78.1264 66.6045 81 61.5992 81L3 81C1.34314 81 -7.00093e-08 82.3431 0 84C7.00093e-08 85.6568 1.34314 87 3 87H61.5992C68.9146 87 75.5803 82.8001 78.738 76.2013L97.7895 36.3886C99.95 31.8736 104.511 29 109.516 29L149.184 29C152.477 29 155.274 31.4416 158.15 33.046C159.241 33.6546 160.489 34 161.815 34Z" fill="#25B021"/>
</g>
<g filter="url(#filter1_f_59_330)">
<mask id="path-2-inside-1_59_330" fill="white">
<path d="M156.982 25.8333C156.982 23.164 159.146 21 161.816 21C164.485 21 166.649 23.164 166.649 25.8333V26.1667C166.649 28.836 164.485 31 161.816 31C159.146 31 156.982 28.836 156.982 26.1667V25.8333Z"/>
</mask>
<path d="M156.982 25.8333C156.982 23.164 159.146 21 161.816 21C164.485 21 166.649 23.164 166.649 25.8333V26.1667C166.649 28.836 164.485 31 161.816 31C159.146 31 156.982 28.836 156.982 26.1667V25.8333Z" fill="#CFFF65"/>
<path d="M156.982 25.8333C156.982 23.164 159.146 21 161.816 21C164.485 21 166.649 23.164 166.649 25.8333V26.1667C166.649 28.836 164.485 31 161.816 31C159.146 31 156.982 28.836 156.982 26.1667V25.8333Z" fill="url(#paint0_radial_59_330)" style="mix-blend-mode:overlay"/>
<path d="M156.982 24.8333C156.982 22.164 159.146 20 161.816 20C164.485 20 166.649 22.164 166.649 24.8333V25.8333C166.649 23.7162 164.485 22 161.816 22C159.146 22 156.982 23.7162 156.982 25.8333V24.8333ZM166.649 27.1667C166.649 29.836 164.485 32 161.816 32C159.146 32 156.982 29.836 156.982 27.1667V26.1667C156.982 28.2838 159.146 30 161.816 30C164.485 30 166.649 28.2838 166.649 26.1667V27.1667ZM156.982 31V21V31ZM166.649 21V31V21Z" fill="white" fill-opacity="0.15" mask="url(#path-2-inside-1_59_330)"/>
</g>
<mask id="path-4-inside-2_59_330" fill="white">
<path d="M156.982 25.8333C156.982 23.164 159.146 21 161.816 21C164.485 21 166.649 23.164 166.649 25.8333V26.1667C166.649 28.836 164.485 31 161.816 31C159.146 31 156.982 28.836 156.982 26.1667V25.8333Z"/>
</mask>
<path d="M156.982 25.8333C156.982 23.164 159.146 21 161.816 21C164.485 21 166.649 23.164 166.649 25.8333V26.1667C166.649 28.836 164.485 31 161.816 31C159.146 31 156.982 28.836 156.982 26.1667V25.8333Z" fill="#CFFF65"/>
<path d="M156.982 25.8333C156.982 23.164 159.146 21 161.816 21C164.485 21 166.649 23.164 166.649 25.8333V26.1667C166.649 28.836 164.485 31 161.816 31C159.146 31 156.982 28.836 156.982 26.1667V25.8333Z" fill="url(#paint1_radial_59_330)" style="mix-blend-mode:overlay"/>
<path d="M156.982 24.8333C156.982 22.164 159.146 20 161.816 20C164.485 20 166.649 22.164 166.649 24.8333V25.8333C166.649 23.7162 164.485 22 161.816 22C159.146 22 156.982 23.7162 156.982 25.8333V24.8333ZM166.649 27.1667C166.649 29.836 164.485 32 161.816 32C159.146 32 156.982 29.836 156.982 27.1667V26.1667C156.982 28.2838 159.146 30 161.816 30C164.485 30 166.649 28.2838 166.649 26.1667V27.1667ZM156.982 31V21V31ZM166.649 21V31V21Z" fill="white" fill-opacity="0.15" mask="url(#path-4-inside-2_59_330)"/>
<g filter="url(#filter2_f_59_330)">
<path d="M27.416 87C25.7592 87 24.416 85.6569 24.416 84C24.416 82.3431 25.7592 81 27.416 81L51.416 81C53.0729 81 54.416 82.3431 54.416 84C54.416 85.6569 53.0729 87 51.416 87L27.416 87Z" fill="#CFFF65"/>
</g>
<mask id="path-7-inside-3_59_330" fill="white">
<path d="M30.416 86C29.3114 86 28.416 85.1046 28.416 84C28.416 82.8954 29.3114 82 30.416 82L47.416 82C48.5206 82 49.416 82.8954 49.416 84C49.416 85.1046 48.5206 86 47.416 86L30.416 86Z"/>
</mask>
<path d="M30.416 86C29.3114 86 28.416 85.1046 28.416 84C28.416 82.8954 29.3114 82 30.416 82L47.416 82C48.5206 82 49.416 82.8954 49.416 84C49.416 85.1046 48.5206 86 47.416 86L30.416 86Z" fill="#CFFF65"/>
<path d="M30.416 86C29.3114 86 28.416 85.1046 28.416 84C28.416 82.8954 29.3114 82 30.416 82L47.416 82C48.5206 82 49.416 82.8954 49.416 84C49.416 85.1046 48.5206 86 47.416 86L30.416 86Z" fill="url(#paint2_radial_59_330)" fill-opacity="0.6" style="mix-blend-mode:overlay"/>
<path d="M30.416 86C29.3114 86 28.416 85.1046 28.416 84C28.416 82.8954 29.3114 82 30.416 82L47.416 82C48.5206 82 49.416 82.8954 49.416 84C49.416 85.1046 48.5206 86 47.416 86L30.416 86Z" fill="url(#paint3_radial_59_330)" fill-opacity="0.2"/>
<path d="M29.416 86C28.3114 86 27.416 85.1046 27.416 84C27.416 82.8954 28.3114 82 29.416 82L30.416 82C29.8637 82 29.416 82.8954 29.416 84C29.416 85.1046 29.8637 86 30.416 86L29.416 86ZM48.416 82C49.5206 82 50.416 82.8954 50.416 84C50.416 85.1046 49.5206 86 48.416 86L47.416 86C47.9683 86 48.416 85.1046 48.416 84C48.416 82.8954 47.9683 82 47.416 82L48.416 82ZM49.416 86L28.416 86L49.416 86ZM28.416 82L49.416 82L28.416 82Z" fill="white" fill-opacity="0.15" mask="url(#path-7-inside-3_59_330)"/>
<defs>
<filter id="filter0_di_59_330" x="0" y="18" width="171.549" height="71" filterUnits="userSpaceOnUse" color-interpolation-filters="sRGB">
<feFlood flood-opacity="0" result="BackgroundImageFix"/>
<feColorMatrix in="SourceAlpha" type="matrix" values="0 0 0 0 0 0 0 0 0 0 0 0 0 0 0 0 0 0 127 0" result="hardAlpha"/>
<feOffset dx="1" dy="1"/>
<feGaussianBlur stdDeviation="0.5"/>
<feComposite in2="hardAlpha" operator="out"/>
<feColorMatrix type="matrix" values="0 0 0 0 1 0 0 0 0 1 0 0 0 0 1 0 0 0 0.07 0"/>
<feBlend mode="normal" in2="BackgroundImageFix" result="effect1_dropShadow_59_330"/>
<feBlend mode="normal" in="SourceGraphic" in2="effect1_dropShadow_59_330" result="shape"/>
<feColorMatrix in="SourceAlpha" type="matrix" values="0 0 0 0 0 0 0 0 0 0 0 0 0 0 0 0 0 0 127 0" result="hardAlpha"/>
<feOffset dx="1" dy="1"/>
<feGaussianBlur stdDeviation="2"/>
<feComposite in2="hardAlpha" operator="arithmetic" k2="-1" k3="1"/>
<feColorMatrix type="matrix" values="0 0 0 0 0.00547059 0 0 0 0 0.0187459 0 0 0 0 0.116098 0 0 0 0.55 0"/>
<feBlend mode="normal" in2="shape" result="effect2_innerShadow_59_330"/>
</filter>
<filter id="filter1_f_59_330" x="136.182" y="0.200001" width="51.2667" height="51.6" filterUnits="userSpaceOnUse" color-interpolation-filters="sRGB">
<feFlood flood-opacity="0" result="BackgroundImageFix"/>
<feBlend mode="normal" in="SourceGraphic" in2="BackgroundImageFix" result="shape"/>
<feGaussianBlur stdDeviation="10.4" result="effect1_foregroundBlur_59_330"/>
</filter>
<filter id="filter2_f_59_330" x="7.71601" y="64.3" width="63.4" height="39.4" filterUnits="userSpaceOnUse" color-interpolation-filters="sRGB">
<feFlood flood-opacity="0" result="BackgroundImageFix"/>
<feBlend mode="normal" in="SourceGraphic" in2="BackgroundImageFix" result="shape"/>
<feGaussianBlur stdDeviation="8.35" result="effect1_foregroundBlur_59_330"/>
</filter>
<radialGradient id="paint0_radial_59_330" cx="0" cy="0" r="1" gradientUnits="userSpaceOnUse" gradientTransform="translate(161.816 28) rotate(90) scale(9.30435 68.6833)">
<stop stop-color="white" stop-opacity="0"/>
<stop offset="1" stop-color="#BCFFBA"/>
</radialGradient>
<radialGradient id="paint1_radial_59_330" cx="0" cy="0" r="1" gradientUnits="userSpaceOnUse" gradientTransform="translate(161.816 28) rotate(90) scale(9.30435 68.6833)">
<stop stop-color="white" stop-opacity="0"/>
<stop offset="1" stop-color="#BCFFBA"/>
</radialGradient>
<radialGradient id="paint2_radial_59_330" cx="0" cy="0" r="1" gradientUnits="userSpaceOnUse" gradientTransform="translate(44.8508 84) scale(17.8043 25.8973)">
<stop stop-color="white"/>
<stop offset="1" stop-color="white" stop-opacity="0"/>
</radialGradient>
<radialGradient id="paint3_radial_59_330" cx="0" cy="0" r="1" gradientUnits="userSpaceOnUse" gradientTransform="translate(45.3073 84) scale(6.3913 4.66667)">
<stop stop-color="white"/>
<stop offset="1" stop-color="white" stop-opacity="0"/>
</radialGradient>
</defs>
</svg>
