<svg width="342" height="284" viewBox="0 0 342 284" fill="none" xmlns="http://www.w3.org/2000/svg">
<rect width="342" height="284" rx="12" fill="#0D0900"/>
<mask id="mask0_2747_1460" style="mask-type:alpha" maskUnits="userSpaceOnUse" x="0" y="0" width="342" height="300">
<rect opacity="0.4" width="342" height="300" rx="12" fill="#0D0900"/>
</mask>
<g mask="url(#mask0_2747_1460)">
<g filter="url(#filter0_f_2747_1460)">
<path d="M298 13.2407C298 42.2524 209.896 153.679 177.65 153.679C145.403 153.679 43 42.2524 43 13.2407C43 -15.771 145.412 -15.7046 177.659 -15.7046C209.906 -15.7046 298 -15.771 298 13.2407Z" fill="#34C759" fill-opacity="0.7"/>
</g>
</g>
<path d="M24.38 201.867V201.037H26.26V208.267H25.34V201.867H24.38ZM27.7131 207.537C28.5598 206.857 29.2231 206.3 29.7031 205.867C30.1831 205.427 30.5865 204.97 30.9131 204.497C31.2465 204.017 31.4131 203.547 31.4131 203.087C31.4131 202.653 31.3065 202.313 31.0931 202.067C30.8865 201.813 30.5498 201.687 30.0831 201.687C29.6298 201.687 29.2765 201.83 29.0231 202.117C28.7765 202.397 28.6431 202.773 28.6231 203.247H27.7431C27.7698 202.5 27.9965 201.923 28.4231 201.517C28.8498 201.11 29.3998 200.907 30.0731 200.907C30.7598 200.907 31.3031 201.097 31.7031 201.477C32.1098 201.857 32.3131 202.38 32.3131 203.047C32.3131 203.6 32.1465 204.14 31.8131 204.667C31.4865 205.187 31.1131 205.647 30.6931 206.047C30.2731 206.44 29.7365 206.9 29.0831 207.427H32.5231V208.187H27.7131V207.537ZM34.0151 208.327C33.8417 208.327 33.6951 208.267 33.5751 208.147C33.4551 208.027 33.3951 207.88 33.3951 207.707C33.3951 207.533 33.4551 207.387 33.5751 207.267C33.6951 207.147 33.8417 207.087 34.0151 207.087C34.1817 207.087 34.3217 207.147 34.4351 207.267C34.5551 207.387 34.6151 207.533 34.6151 207.707C34.6151 207.88 34.5551 208.027 34.4351 208.147C34.3217 208.267 34.1817 208.327 34.0151 208.327ZM34.0151 204.047C33.8417 204.047 33.6951 203.987 33.5751 203.867C33.4551 203.747 33.3951 203.6 33.3951 203.427C33.3951 203.253 33.4551 203.107 33.5751 202.987C33.6951 202.867 33.8417 202.807 34.0151 202.807C34.1817 202.807 34.3217 202.867 34.4351 202.987C34.5551 203.107 34.6151 203.253 34.6151 203.427C34.6151 203.6 34.5551 203.747 34.4351 203.867C34.3217 203.987 34.1817 204.047 34.0151 204.047ZM35.704 204.577C35.704 203.43 35.8907 202.537 36.264 201.897C36.6373 201.25 37.2907 200.927 38.224 200.927C39.1507 200.927 39.8007 201.25 40.174 201.897C40.5473 202.537 40.734 203.43 40.734 204.577C40.734 205.743 40.5473 206.65 40.174 207.297C39.8007 207.943 39.1507 208.267 38.224 208.267C37.2907 208.267 36.6373 207.943 36.264 207.297C35.8907 206.65 35.704 205.743 35.704 204.577ZM39.834 204.577C39.834 203.997 39.794 203.507 39.714 203.107C39.6407 202.7 39.484 202.373 39.244 202.127C39.0107 201.88 38.6707 201.757 38.224 201.757C37.7707 201.757 37.424 201.88 37.184 202.127C36.9507 202.373 36.794 202.7 36.714 203.107C36.6407 203.507 36.604 203.997 36.604 204.577C36.604 205.177 36.6407 205.68 36.714 206.087C36.794 206.493 36.9507 206.82 37.184 207.067C37.424 207.313 37.7707 207.437 38.224 207.437C38.6707 207.437 39.0107 207.313 39.244 207.067C39.484 206.82 39.6407 206.493 39.714 206.087C39.794 205.68 39.834 205.177 39.834 204.577ZM41.9833 204.577C41.9833 203.43 42.1699 202.537 42.5433 201.897C42.9166 201.25 43.5699 200.927 44.5033 200.927C45.4299 200.927 46.0799 201.25 46.4533 201.897C46.8266 202.537 47.0133 203.43 47.0133 204.577C47.0133 205.743 46.8266 206.65 46.4533 207.297C46.0799 207.943 45.4299 208.267 44.5033 208.267C43.5699 208.267 42.9166 207.943 42.5433 207.297C42.1699 206.65 41.9833 205.743 41.9833 204.577ZM46.1133 204.577C46.1133 203.997 46.0733 203.507 45.9933 203.107C45.9199 202.7 45.7633 202.373 45.5233 202.127C45.2899 201.88 44.9499 201.757 44.5033 201.757C44.0499 201.757 43.7033 201.88 43.4633 202.127C43.2299 202.373 43.0733 202.7 42.9933 203.107C42.9199 203.507 42.8833 203.997 42.8833 204.577C42.8833 205.177 42.9199 205.68 42.9933 206.087C43.0733 206.493 43.2299 206.82 43.4633 207.067C43.7033 207.313 44.0499 207.437 44.5033 207.437C44.9499 207.437 45.2899 207.313 45.5233 207.067C45.7633 206.82 45.9199 206.493 45.9933 206.087C46.0733 205.68 46.1133 205.177 46.1133 204.577Z" fill="#646667"/>
<path d="M90.62 204.577C90.62 203.43 90.8067 202.537 91.18 201.897C91.5533 201.25 92.2067 200.927 93.14 200.927C94.0667 200.927 94.7167 201.25 95.09 201.897C95.4633 202.537 95.65 203.43 95.65 204.577C95.65 205.743 95.4633 206.65 95.09 207.297C94.7167 207.943 94.0667 208.267 93.14 208.267C92.2067 208.267 91.5533 207.943 91.18 207.297C90.8067 206.65 90.62 205.743 90.62 204.577ZM94.75 204.577C94.75 203.997 94.71 203.507 94.63 203.107C94.5567 202.7 94.4 202.373 94.16 202.127C93.9267 201.88 93.5867 201.757 93.14 201.757C92.6867 201.757 92.34 201.88 92.1 202.127C91.8667 202.373 91.71 202.7 91.63 203.107C91.5567 203.507 91.52 203.997 91.52 204.577C91.52 205.177 91.5567 205.68 91.63 206.087C91.71 206.493 91.8667 206.82 92.1 207.067C92.34 207.313 92.6867 207.437 93.14 207.437C93.5867 207.437 93.9267 207.313 94.16 207.067C94.4 206.82 94.5567 206.493 94.63 206.087C94.71 205.68 94.75 205.177 94.75 204.577ZM100.929 202.757C100.783 202.017 100.326 201.647 99.5593 201.647C98.966 201.647 98.5226 201.877 98.2293 202.337C97.936 202.79 97.7926 203.54 97.7993 204.587C97.9526 204.24 98.206 203.97 98.5593 203.777C98.9193 203.577 99.3193 203.477 99.7593 203.477C100.446 203.477 100.993 203.69 101.399 204.117C101.813 204.543 102.019 205.133 102.019 205.887C102.019 206.34 101.929 206.747 101.749 207.107C101.576 207.467 101.309 207.753 100.949 207.967C100.596 208.18 100.166 208.287 99.6593 208.287C98.9726 208.287 98.436 208.133 98.0493 207.827C97.6626 207.52 97.3926 207.097 97.2393 206.557C97.086 206.017 97.0093 205.35 97.0093 204.557C97.0093 202.11 97.8626 200.887 99.5693 200.887C100.223 200.887 100.736 201.063 101.109 201.417C101.483 201.77 101.703 202.217 101.769 202.757H100.929ZM99.5693 204.247C99.2826 204.247 99.0126 204.307 98.7593 204.427C98.506 204.54 98.2993 204.717 98.1393 204.957C97.986 205.19 97.9093 205.477 97.9093 205.817C97.9093 206.323 98.056 206.737 98.3493 207.057C98.6426 207.37 99.0626 207.527 99.6093 207.527C100.076 207.527 100.446 207.383 100.719 207.097C100.999 206.803 101.139 206.41 101.139 205.917C101.139 205.397 101.006 204.99 100.739 204.697C100.473 204.397 100.083 204.247 99.5693 204.247ZM103.687 208.327C103.514 208.327 103.367 208.267 103.247 208.147C103.127 208.027 103.067 207.88 103.067 207.707C103.067 207.533 103.127 207.387 103.247 207.267C103.367 207.147 103.514 207.087 103.687 207.087C103.854 207.087 103.994 207.147 104.107 207.267C104.227 207.387 104.287 207.533 104.287 207.707C104.287 207.88 104.227 208.027 104.107 208.147C103.994 208.267 103.854 208.327 103.687 208.327ZM103.687 204.047C103.514 204.047 103.367 203.987 103.247 203.867C103.127 203.747 103.067 203.6 103.067 203.427C103.067 203.253 103.127 203.107 103.247 202.987C103.367 202.867 103.514 202.807 103.687 202.807C103.854 202.807 103.994 202.867 104.107 202.987C104.227 203.107 104.287 203.253 104.287 203.427C104.287 203.6 104.227 203.747 104.107 203.867C103.994 203.987 103.854 204.047 103.687 204.047ZM105.376 204.577C105.376 203.43 105.563 202.537 105.936 201.897C106.309 201.25 106.963 200.927 107.896 200.927C108.823 200.927 109.473 201.25 109.846 201.897C110.219 202.537 110.406 203.43 110.406 204.577C110.406 205.743 110.219 206.65 109.846 207.297C109.473 207.943 108.823 208.267 107.896 208.267C106.963 208.267 106.309 207.943 105.936 207.297C105.563 206.65 105.376 205.743 105.376 204.577ZM109.506 204.577C109.506 203.997 109.466 203.507 109.386 203.107C109.313 202.7 109.156 202.373 108.916 202.127C108.683 201.88 108.343 201.757 107.896 201.757C107.443 201.757 107.096 201.88 106.856 202.127C106.623 202.373 106.466 202.7 106.386 203.107C106.313 203.507 106.276 203.997 106.276 204.577C106.276 205.177 106.313 205.68 106.386 206.087C106.466 206.493 106.623 206.82 106.856 207.067C107.096 207.313 107.443 207.437 107.896 207.437C108.343 207.437 108.683 207.313 108.916 207.067C109.156 206.82 109.313 206.493 109.386 206.087C109.466 205.68 109.506 205.177 109.506 204.577ZM111.655 204.577C111.655 203.43 111.842 202.537 112.215 201.897C112.588 201.25 113.242 200.927 114.175 200.927C115.102 200.927 115.752 201.25 116.125 201.897C116.498 202.537 116.685 203.43 116.685 204.577C116.685 205.743 116.498 206.65 116.125 207.297C115.752 207.943 115.102 208.267 114.175 208.267C113.242 208.267 112.588 207.943 112.215 207.297C111.842 206.65 111.655 205.743 111.655 204.577ZM115.785 204.577C115.785 203.997 115.745 203.507 115.665 203.107C115.592 202.7 115.435 202.373 115.195 202.127C114.962 201.88 114.622 201.757 114.175 201.757C113.722 201.757 113.375 201.88 113.135 202.127C112.902 202.373 112.745 202.7 112.665 203.107C112.592 203.507 112.555 203.997 112.555 204.577C112.555 205.177 112.592 205.68 112.665 206.087C112.745 206.493 112.902 206.82 113.135 207.067C113.375 207.313 113.722 207.437 114.175 207.437C114.622 207.437 114.962 207.313 115.195 207.067C115.435 206.82 115.592 206.493 115.665 206.087C115.745 205.68 115.785 205.177 115.785 204.577Z" fill="#646667"/>
<path d="M226.62 204.577C226.62 203.43 226.807 202.537 227.18 201.897C227.553 201.25 228.207 200.927 229.14 200.927C230.067 200.927 230.717 201.25 231.09 201.897C231.463 202.537 231.65 203.43 231.65 204.577C231.65 205.743 231.463 206.65 231.09 207.297C230.717 207.943 230.067 208.267 229.14 208.267C228.207 208.267 227.553 207.943 227.18 207.297C226.807 206.65 226.62 205.743 226.62 204.577ZM230.75 204.577C230.75 203.997 230.71 203.507 230.63 203.107C230.557 202.7 230.4 202.373 230.16 202.127C229.927 201.88 229.587 201.757 229.14 201.757C228.687 201.757 228.34 201.88 228.1 202.127C227.867 202.373 227.71 202.7 227.63 203.107C227.557 203.507 227.52 203.997 227.52 204.577C227.52 205.177 227.557 205.68 227.63 206.087C227.71 206.493 227.867 206.82 228.1 207.067C228.34 207.313 228.687 207.437 229.14 207.437C229.587 207.437 229.927 207.313 230.16 207.067C230.4 206.82 230.557 206.493 230.63 206.087C230.71 205.68 230.75 205.177 230.75 204.577ZM236.929 202.757C236.783 202.017 236.326 201.647 235.559 201.647C234.966 201.647 234.523 201.877 234.229 202.337C233.936 202.79 233.793 203.54 233.799 204.587C233.953 204.24 234.206 203.97 234.559 203.777C234.919 203.577 235.319 203.477 235.759 203.477C236.446 203.477 236.993 203.69 237.399 204.117C237.813 204.543 238.019 205.133 238.019 205.887C238.019 206.34 237.929 206.747 237.749 207.107C237.576 207.467 237.309 207.753 236.949 207.967C236.596 208.18 236.166 208.287 235.659 208.287C234.973 208.287 234.436 208.133 234.049 207.827C233.663 207.52 233.393 207.097 233.239 206.557C233.086 206.017 233.009 205.35 233.009 204.557C233.009 202.11 233.863 200.887 235.569 200.887C236.223 200.887 236.736 201.063 237.109 201.417C237.483 201.77 237.703 202.217 237.769 202.757H236.929ZM235.569 204.247C235.283 204.247 235.013 204.307 234.759 204.427C234.506 204.54 234.299 204.717 234.139 204.957C233.986 205.19 233.909 205.477 233.909 205.817C233.909 206.323 234.056 206.737 234.349 207.057C234.643 207.37 235.063 207.527 235.609 207.527C236.076 207.527 236.446 207.383 236.719 207.097C236.999 206.803 237.139 206.41 237.139 205.917C237.139 205.397 237.006 204.99 236.739 204.697C236.473 204.397 236.083 204.247 235.569 204.247ZM239.687 208.327C239.514 208.327 239.367 208.267 239.247 208.147C239.127 208.027 239.067 207.88 239.067 207.707C239.067 207.533 239.127 207.387 239.247 207.267C239.367 207.147 239.514 207.087 239.687 207.087C239.854 207.087 239.994 207.147 240.107 207.267C240.227 207.387 240.287 207.533 240.287 207.707C240.287 207.88 240.227 208.027 240.107 208.147C239.994 208.267 239.854 208.327 239.687 208.327ZM239.687 204.047C239.514 204.047 239.367 203.987 239.247 203.867C239.127 203.747 239.067 203.6 239.067 203.427C239.067 203.253 239.127 203.107 239.247 202.987C239.367 202.867 239.514 202.807 239.687 202.807C239.854 202.807 239.994 202.867 240.107 202.987C240.227 203.107 240.287 203.253 240.287 203.427C240.287 203.6 240.227 203.747 240.107 203.867C239.994 203.987 239.854 204.047 239.687 204.047ZM241.376 204.577C241.376 203.43 241.563 202.537 241.936 201.897C242.309 201.25 242.963 200.927 243.896 200.927C244.823 200.927 245.473 201.25 245.846 201.897C246.219 202.537 246.406 203.43 246.406 204.577C246.406 205.743 246.219 206.65 245.846 207.297C245.473 207.943 244.823 208.267 243.896 208.267C242.963 208.267 242.309 207.943 241.936 207.297C241.563 206.65 241.376 205.743 241.376 204.577ZM245.506 204.577C245.506 203.997 245.466 203.507 245.386 203.107C245.313 202.7 245.156 202.373 244.916 202.127C244.683 201.88 244.343 201.757 243.896 201.757C243.443 201.757 243.096 201.88 242.856 202.127C242.623 202.373 242.466 202.7 242.386 203.107C242.313 203.507 242.276 203.997 242.276 204.577C242.276 205.177 242.313 205.68 242.386 206.087C242.466 206.493 242.623 206.82 242.856 207.067C243.096 207.313 243.443 207.437 243.896 207.437C244.343 207.437 244.683 207.313 244.916 207.067C245.156 206.82 245.313 206.493 245.386 206.087C245.466 205.68 245.506 205.177 245.506 204.577ZM247.655 204.577C247.655 203.43 247.842 202.537 248.215 201.897C248.588 201.25 249.242 200.927 250.175 200.927C251.102 200.927 251.752 201.25 252.125 201.897C252.498 202.537 252.685 203.43 252.685 204.577C252.685 205.743 252.498 206.65 252.125 207.297C251.752 207.943 251.102 208.267 250.175 208.267C249.242 208.267 248.588 207.943 248.215 207.297C247.842 206.65 247.655 205.743 247.655 204.577ZM251.785 204.577C251.785 203.997 251.745 203.507 251.665 203.107C251.592 202.7 251.435 202.373 251.195 202.127C250.962 201.88 250.622 201.757 250.175 201.757C249.722 201.757 249.375 201.88 249.135 202.127C248.902 202.373 248.745 202.7 248.665 203.107C248.592 203.507 248.555 203.997 248.555 204.577C248.555 205.177 248.592 205.68 248.665 206.087C248.745 206.493 248.902 206.82 249.135 207.067C249.375 207.313 249.722 207.437 250.175 207.437C250.622 207.437 250.962 207.313 251.195 207.067C251.435 206.82 251.592 206.493 251.665 206.087C251.745 205.68 251.785 205.177 251.785 204.577Z" fill="#646667"/>
<path d="M160.38 201.867V201.037H162.26V208.267H161.34V201.867H160.38ZM163.713 207.537C164.56 206.857 165.223 206.3 165.703 205.867C166.183 205.427 166.586 204.97 166.913 204.497C167.246 204.017 167.413 203.547 167.413 203.087C167.413 202.653 167.306 202.313 167.093 202.067C166.886 201.813 166.55 201.687 166.083 201.687C165.63 201.687 165.276 201.83 165.023 202.117C164.776 202.397 164.643 202.773 164.623 203.247H163.743C163.77 202.5 163.996 201.923 164.423 201.517C164.85 201.11 165.4 200.907 166.073 200.907C166.76 200.907 167.303 201.097 167.703 201.477C168.11 201.857 168.313 202.38 168.313 203.047C168.313 203.6 168.146 204.14 167.813 204.667C167.486 205.187 167.113 205.647 166.693 206.047C166.273 206.44 165.736 206.9 165.083 207.427H168.523V208.187H163.713V207.537ZM170.015 208.327C169.842 208.327 169.695 208.267 169.575 208.147C169.455 208.027 169.395 207.88 169.395 207.707C169.395 207.533 169.455 207.387 169.575 207.267C169.695 207.147 169.842 207.087 170.015 207.087C170.182 207.087 170.322 207.147 170.435 207.267C170.555 207.387 170.615 207.533 170.615 207.707C170.615 207.88 170.555 208.027 170.435 208.147C170.322 208.267 170.182 208.327 170.015 208.327ZM170.015 204.047C169.842 204.047 169.695 203.987 169.575 203.867C169.455 203.747 169.395 203.6 169.395 203.427C169.395 203.253 169.455 203.107 169.575 202.987C169.695 202.867 169.842 202.807 170.015 202.807C170.182 202.807 170.322 202.867 170.435 202.987C170.555 203.107 170.615 203.253 170.615 203.427C170.615 203.6 170.555 203.747 170.435 203.867C170.322 203.987 170.182 204.047 170.015 204.047ZM171.704 204.577C171.704 203.43 171.891 202.537 172.264 201.897C172.637 201.25 173.291 200.927 174.224 200.927C175.151 200.927 175.801 201.25 176.174 201.897C176.547 202.537 176.734 203.43 176.734 204.577C176.734 205.743 176.547 206.65 176.174 207.297C175.801 207.943 175.151 208.267 174.224 208.267C173.291 208.267 172.637 207.943 172.264 207.297C171.891 206.65 171.704 205.743 171.704 204.577ZM175.834 204.577C175.834 203.997 175.794 203.507 175.714 203.107C175.641 202.7 175.484 202.373 175.244 202.127C175.011 201.88 174.671 201.757 174.224 201.757C173.771 201.757 173.424 201.88 173.184 202.127C172.951 202.373 172.794 202.7 172.714 203.107C172.641 203.507 172.604 203.997 172.604 204.577C172.604 205.177 172.641 205.68 172.714 206.087C172.794 206.493 172.951 206.82 173.184 207.067C173.424 207.313 173.771 207.437 174.224 207.437C174.671 207.437 175.011 207.313 175.244 207.067C175.484 206.82 175.641 206.493 175.714 206.087C175.794 205.68 175.834 205.177 175.834 204.577ZM177.983 204.577C177.983 203.43 178.17 202.537 178.543 201.897C178.917 201.25 179.57 200.927 180.503 200.927C181.43 200.927 182.08 201.25 182.453 201.897C182.827 202.537 183.013 203.43 183.013 204.577C183.013 205.743 182.827 206.65 182.453 207.297C182.08 207.943 181.43 208.267 180.503 208.267C179.57 208.267 178.917 207.943 178.543 207.297C178.17 206.65 177.983 205.743 177.983 204.577ZM182.113 204.577C182.113 203.997 182.073 203.507 181.993 203.107C181.92 202.7 181.763 202.373 181.523 202.127C181.29 201.88 180.95 201.757 180.503 201.757C180.05 201.757 179.703 201.88 179.463 202.127C179.23 202.373 179.073 202.7 178.993 203.107C178.92 203.507 178.883 203.997 178.883 204.577C178.883 205.177 178.92 205.68 178.993 206.087C179.073 206.493 179.23 206.82 179.463 207.067C179.703 207.313 180.05 207.437 180.503 207.437C180.95 207.437 181.29 207.313 181.523 207.067C181.763 206.82 181.92 206.493 181.993 206.087C182.073 205.68 182.113 205.177 182.113 204.577Z" fill="#646667"/>
<path d="M294.38 201.867V201.037H296.26V208.267H295.34V201.867H294.38ZM297.713 207.537C298.56 206.857 299.223 206.3 299.703 205.867C300.183 205.427 300.586 204.97 300.913 204.497C301.246 204.017 301.413 203.547 301.413 203.087C301.413 202.653 301.306 202.313 301.093 202.067C300.886 201.813 300.55 201.687 300.083 201.687C299.63 201.687 299.276 201.83 299.023 202.117C298.776 202.397 298.643 202.773 298.623 203.247H297.743C297.77 202.5 297.996 201.923 298.423 201.517C298.85 201.11 299.4 200.907 300.073 200.907C300.76 200.907 301.303 201.097 301.703 201.477C302.11 201.857 302.313 202.38 302.313 203.047C302.313 203.6 302.146 204.14 301.813 204.667C301.486 205.187 301.113 205.647 300.693 206.047C300.273 206.44 299.736 206.9 299.083 207.427H302.523V208.187H297.713V207.537ZM304.015 208.327C303.842 208.327 303.695 208.267 303.575 208.147C303.455 208.027 303.395 207.88 303.395 207.707C303.395 207.533 303.455 207.387 303.575 207.267C303.695 207.147 303.842 207.087 304.015 207.087C304.182 207.087 304.322 207.147 304.435 207.267C304.555 207.387 304.615 207.533 304.615 207.707C304.615 207.88 304.555 208.027 304.435 208.147C304.322 208.267 304.182 208.327 304.015 208.327ZM304.015 204.047C303.842 204.047 303.695 203.987 303.575 203.867C303.455 203.747 303.395 203.6 303.395 203.427C303.395 203.253 303.455 203.107 303.575 202.987C303.695 202.867 303.842 202.807 304.015 202.807C304.182 202.807 304.322 202.867 304.435 202.987C304.555 203.107 304.615 203.253 304.615 203.427C304.615 203.6 304.555 203.747 304.435 203.867C304.322 203.987 304.182 204.047 304.015 204.047ZM305.704 204.577C305.704 203.43 305.891 202.537 306.264 201.897C306.637 201.25 307.291 200.927 308.224 200.927C309.151 200.927 309.801 201.25 310.174 201.897C310.547 202.537 310.734 203.43 310.734 204.577C310.734 205.743 310.547 206.65 310.174 207.297C309.801 207.943 309.151 208.267 308.224 208.267C307.291 208.267 306.637 207.943 306.264 207.297C305.891 206.65 305.704 205.743 305.704 204.577ZM309.834 204.577C309.834 203.997 309.794 203.507 309.714 203.107C309.641 202.7 309.484 202.373 309.244 202.127C309.011 201.88 308.671 201.757 308.224 201.757C307.771 201.757 307.424 201.88 307.184 202.127C306.951 202.373 306.794 202.7 306.714 203.107C306.641 203.507 306.604 203.997 306.604 204.577C306.604 205.177 306.641 205.68 306.714 206.087C306.794 206.493 306.951 206.82 307.184 207.067C307.424 207.313 307.771 207.437 308.224 207.437C308.671 207.437 309.011 207.313 309.244 207.067C309.484 206.82 309.641 206.493 309.714 206.087C309.794 205.68 309.834 205.177 309.834 204.577ZM311.983 204.577C311.983 203.43 312.17 202.537 312.543 201.897C312.917 201.25 313.57 200.927 314.503 200.927C315.43 200.927 316.08 201.25 316.453 201.897C316.827 202.537 317.013 203.43 317.013 204.577C317.013 205.743 316.827 206.65 316.453 207.297C316.08 207.943 315.43 208.267 314.503 208.267C313.57 208.267 312.917 207.943 312.543 207.297C312.17 206.65 311.983 205.743 311.983 204.577ZM316.113 204.577C316.113 203.997 316.073 203.507 315.993 203.107C315.92 202.7 315.763 202.373 315.523 202.127C315.29 201.88 314.95 201.757 314.503 201.757C314.05 201.757 313.703 201.88 313.463 202.127C313.23 202.373 313.073 202.7 312.993 203.107C312.92 203.507 312.883 203.997 312.883 204.577C312.883 205.177 312.92 205.68 312.993 206.087C313.073 206.493 313.23 206.82 313.463 207.067C313.703 207.313 314.05 207.437 314.503 207.437C314.95 207.437 315.29 207.313 315.523 207.067C315.763 206.82 315.92 206.493 315.993 206.087C316.073 205.68 316.113 205.177 316.113 204.577Z" fill="#646667"/>
<path d="M63.912 24.88V36H62.088V28.384L58.696 36H57.432L54.024 28.384V36H52.2V24.88H54.168L58.072 33.6L61.96 24.88H63.912ZM70.1334 36.144C69.3014 36.144 68.5494 35.9573 67.8774 35.584C67.2054 35.2 66.6774 34.6667 66.2934 33.984C65.9094 33.2907 65.7174 32.4907 65.7174 31.584C65.7174 30.688 65.9147 29.8933 66.3094 29.2C66.704 28.5067 67.2427 27.9733 67.9254 27.6C68.608 27.2267 69.3707 27.04 70.2134 27.04C71.056 27.04 71.8187 27.2267 72.5014 27.6C73.184 27.9733 73.7227 28.5067 74.1174 29.2C74.512 29.8933 74.7094 30.688 74.7094 31.584C74.7094 32.48 74.5067 33.2747 74.1014 33.968C73.696 34.6613 73.1414 35.2 72.4374 35.584C71.744 35.9573 70.976 36.144 70.1334 36.144ZM70.1334 34.56C70.6027 34.56 71.04 34.448 71.4454 34.224C71.8614 34 72.1974 33.664 72.4534 33.216C72.7094 32.768 72.8374 32.224 72.8374 31.584C72.8374 30.944 72.7147 30.4053 72.4694 29.968C72.224 29.52 71.8987 29.184 71.4934 28.96C71.088 28.736 70.6507 28.624 70.1814 28.624C69.712 28.624 69.2747 28.736 68.8694 28.96C68.4747 29.184 68.16 29.52 67.9254 29.968C67.6907 30.4053 67.5734 30.944 67.5734 31.584C67.5734 32.5333 67.8134 33.2693 68.2934 33.792C68.784 34.304 69.3974 34.56 70.1334 34.56ZM79.9205 34.368L82.4165 27.184H84.3525L80.9925 36H78.8165L75.4725 27.184H77.4245L79.9205 34.368ZM93.8113 31.376C93.8113 31.7067 93.7899 32.0053 93.7473 32.272H87.0113C87.0646 32.976 87.3259 33.5413 87.7953 33.968C88.2646 34.3947 88.8406 34.608 89.5233 34.608C90.5046 34.608 91.1979 34.1973 91.6033 33.376H93.5712C93.3046 34.1867 92.8193 34.8533 92.1153 35.376C91.4219 35.888 90.5579 36.144 89.5233 36.144C88.6806 36.144 87.9233 35.9573 87.2513 35.584C86.5899 35.2 86.0673 34.6667 85.6833 33.984C85.3099 33.2907 85.1233 32.4907 85.1233 31.584C85.1233 30.6773 85.3046 29.8827 85.6673 29.2C86.0406 28.5067 86.5579 27.9733 87.2193 27.6C87.8913 27.2267 88.6593 27.04 89.5233 27.04C90.3553 27.04 91.0966 27.2213 91.7473 27.584C92.3979 27.9467 92.9046 28.4587 93.2673 29.12C93.6299 29.7707 93.8113 30.5227 93.8113 31.376ZM91.9073 30.8C91.8966 30.128 91.6566 29.5893 91.1873 29.184C90.7179 28.7787 90.1366 28.576 89.4433 28.576C88.8139 28.576 88.2753 28.7787 87.8273 29.184C87.3793 29.5787 87.1126 30.1173 87.0273 30.8H91.9073ZM106.278 27.04C106.972 27.04 107.59 27.184 108.134 27.472C108.689 27.76 109.121 28.1867 109.43 28.752C109.75 29.3173 109.91 30 109.91 30.8V36H108.102V31.072C108.102 30.2827 107.905 29.68 107.51 29.264C107.116 28.8373 106.577 28.624 105.894 28.624C105.212 28.624 104.668 28.8373 104.262 29.264C103.868 29.68 103.67 30.2827 103.67 31.072V36H101.862V31.072C101.862 30.2827 101.665 29.68 101.27 29.264C100.876 28.8373 100.337 28.624 99.6543 28.624C98.9716 28.624 98.4276 28.8373 98.0223 29.264C97.6276 29.68 97.4303 30.2827 97.4303 31.072V36H95.6063V27.184H97.4303V28.192C97.7289 27.8293 98.1076 27.5467 98.5663 27.344C99.0249 27.1413 99.5156 27.04 100.038 27.04C100.742 27.04 101.372 27.1893 101.926 27.488C102.481 27.7867 102.908 28.2187 103.206 28.784C103.473 28.2507 103.889 27.8293 104.454 27.52C105.02 27.2 105.628 27.04 106.278 27.04ZM120.311 31.376C120.311 31.7067 120.29 32.0053 120.247 32.272H113.511C113.565 32.976 113.826 33.5413 114.295 33.968C114.765 34.3947 115.341 34.608 116.023 34.608C117.005 34.608 117.698 34.1973 118.103 33.376H120.071C119.805 34.1867 119.319 34.8533 118.615 35.376C117.922 35.888 117.058 36.144 116.023 36.144C115.181 36.144 114.423 35.9573 113.751 35.584C113.09 35.2 112.567 34.6667 112.183 33.984C111.81 33.2907 111.623 32.4907 111.623 31.584C111.623 30.6773 111.805 29.8827 112.167 29.2C112.541 28.5067 113.058 27.9733 113.719 27.6C114.391 27.2267 115.159 27.04 116.023 27.04C116.855 27.04 117.597 27.2213 118.247 27.584C118.898 27.9467 119.405 28.4587 119.767 29.12C120.13 29.7707 120.311 30.5227 120.311 31.376ZM118.407 30.8C118.397 30.128 118.157 29.5893 117.687 29.184C117.218 28.7787 116.637 28.576 115.943 28.576C115.314 28.576 114.775 28.7787 114.327 29.184C113.879 29.5787 113.613 30.1173 113.527 30.8H118.407ZM126.554 27.04C127.248 27.04 127.866 27.184 128.41 27.472C128.965 27.76 129.397 28.1867 129.706 28.752C130.016 29.3173 130.17 30 130.17 30.8V36H128.362V31.072C128.362 30.2827 128.165 29.68 127.77 29.264C127.376 28.8373 126.837 28.624 126.154 28.624C125.472 28.624 124.928 28.8373 124.522 29.264C124.128 29.68 123.93 30.2827 123.93 31.072V36H122.106V27.184H123.93V28.192C124.229 27.8293 124.608 27.5467 125.066 27.344C125.536 27.1413 126.032 27.04 126.554 27.04ZM134.625 28.672V33.552C134.625 33.8827 134.7 34.1227 134.849 34.272C135.009 34.4107 135.276 34.48 135.649 34.48H136.769V36H135.329C134.508 36 133.878 35.808 133.441 35.424C133.004 35.04 132.785 34.416 132.785 33.552V28.672H131.745V27.184H132.785V24.992H134.625V27.184H136.769V28.672H134.625Z" fill="white"/>
<path d="M317.713 29.9998L311.703 23.9898L310.288 25.4028L314.888 29.9998L310.288 34.5958L311.702 36.0098L317.713 29.9998Z" fill="white"/>
<rect x="16" y="16" width="28" height="28" rx="14" fill="#484848" fill-opacity="0.12"/>
<path d="M30.8695 26.1966C31.5111 26.1966 32.0361 25.6716 32.0361 25.0299C32.0361 24.3883 31.5111 23.8633 30.8695 23.8633C30.2278 23.8633 29.7028 24.3883 29.7028 25.0299C29.7028 25.6716 30.2278 26.1966 30.8695 26.1966ZM29.0203 33.1966L29.3528 31.7383L30.5778 32.9049V35.8216C30.5778 36.1424 30.8403 36.4049 31.1611 36.4049C31.482 36.4049 31.7445 36.1424 31.7445 35.8216V32.5316C31.7445 32.2108 31.6161 31.9074 31.3828 31.6858L30.5195 30.8633L30.8695 29.1133C31.5268 29.8648 32.4268 30.3622 33.4128 30.5191C33.7628 30.5716 34.0778 30.2916 34.0778 29.9358C34.0778 29.6499 33.8678 29.4108 33.582 29.3641C32.6953 29.2183 31.9603 28.6933 31.5695 28.0049L30.9861 27.0716C30.7528 26.7216 30.4028 26.4883 29.9945 26.4883C29.8195 26.4883 29.7028 26.5466 29.5278 26.5466L27.2061 27.5266C26.9948 27.6169 26.8147 27.7674 26.6882 27.9593C26.5616 28.1511 26.4943 28.376 26.4945 28.6058V29.9883C26.4945 30.3091 26.757 30.5716 27.0778 30.5716C27.3986 30.5716 27.6611 30.3091 27.6611 29.9883V28.5883L28.7111 28.1799L27.7778 32.9049L25.4911 32.4383C25.1761 32.3741 24.867 32.5783 24.8028 32.8933V32.9166C24.7386 33.2316 24.9428 33.5408 25.2578 33.6049L27.6553 34.0833C27.9535 34.1425 28.263 34.0829 28.518 33.9173C28.7729 33.7517 28.9532 33.4931 29.0203 33.1966Z" fill="white"/>
<path d="M159.809 70.9858C161.132 70.9948 162.418 71.2287 163.669 71.6875C164.928 72.1373 166.062 72.875 167.069 73.9006C168.077 74.9171 168.878 76.2801 169.471 77.9893C170.065 79.6986 170.362 81.8127 170.362 84.3317C170.371 86.7067 170.119 88.8298 169.606 90.701C169.102 92.5632 168.378 94.1375 167.434 95.424C166.489 96.7105 165.351 97.6911 164.02 98.3658C162.688 99.0405 161.19 99.3778 159.526 99.3778C157.781 99.3778 156.233 99.036 154.884 98.3523C153.543 97.6686 152.459 96.733 151.632 95.5455C150.804 94.358 150.296 92.9995 150.107 91.4702H155.032C155.284 92.5677 155.797 93.4403 156.571 94.0881C157.353 94.7268 158.338 95.0462 159.526 95.0462C161.442 95.0462 162.918 94.214 163.952 92.5497C164.987 90.8854 165.504 88.5734 165.504 85.6136H165.315C164.874 86.4053 164.303 87.089 163.601 87.6648C162.9 88.2315 162.103 88.6678 161.213 88.9737C160.331 89.2796 159.396 89.4325 158.406 89.4325C156.787 89.4325 155.329 89.0457 154.034 88.272C152.747 87.4983 151.726 86.4368 150.971 85.0874C150.224 83.7379 149.846 82.1951 149.837 80.4588C149.837 78.6596 150.251 77.0447 151.079 75.6143C151.915 74.175 153.08 73.0414 154.574 72.2138C156.067 71.3771 157.812 70.9678 159.809 70.9858ZM159.823 75.0341C158.851 75.0341 157.974 75.2725 157.191 75.7493C156.418 76.2171 155.806 76.8558 155.356 77.6655C154.915 78.4661 154.695 79.3613 154.695 80.3509C154.704 81.3314 154.924 82.2221 155.356 83.0227C155.797 83.8234 156.395 84.4576 157.151 84.9254C157.916 85.3932 158.788 85.6271 159.769 85.6271C160.498 85.6271 161.177 85.4877 161.806 85.2088C162.436 84.9299 162.985 84.5431 163.453 84.0483C163.93 83.5445 164.298 82.9732 164.559 82.3345C164.829 81.6958 164.96 81.0211 164.951 80.3104C164.951 79.3658 164.726 78.4931 164.276 77.6925C163.835 76.8918 163.228 76.2486 162.454 75.7628C161.69 75.277 160.812 75.0341 159.823 75.0341ZM174.095 99V95.3835L183.69 85.978C184.608 85.0514 185.372 84.2282 185.984 83.5085C186.596 82.7888 187.055 82.0916 187.36 81.4169C187.666 80.7422 187.819 80.0225 187.819 79.2578C187.819 78.3852 187.621 77.6385 187.225 77.0178C186.83 76.388 186.285 75.9022 185.593 75.5604C184.9 75.2185 184.113 75.0476 183.231 75.0476C182.323 75.0476 181.526 75.2365 180.843 75.6143C180.159 75.9832 179.628 76.5095 179.25 77.1932C178.881 77.8769 178.697 78.6911 178.697 79.6357H173.934C173.934 77.8814 174.334 76.3565 175.135 75.0611C175.935 73.7656 177.037 72.7625 178.441 72.0518C179.853 71.3411 181.472 70.9858 183.299 70.9858C185.152 70.9858 186.78 71.3321 188.184 72.0249C189.587 72.7176 190.676 73.6667 191.449 74.8722C192.232 76.0777 192.623 77.4541 192.623 79.0014C192.623 80.036 192.425 81.0526 192.029 82.0511C191.634 83.0497 190.936 84.1562 189.938 85.3707C188.948 86.5852 187.558 88.0561 185.768 89.7834L181.005 94.6278V94.8168H193.042V99H174.095Z" fill="#34C759"/>
<rect x="145" y="112" width="53" height="15" rx="4" fill="white" fill-opacity="0.08"/>
<path d="M151.234 123.07C151.108 123.07 151.004 123.04 150.924 122.98C150.844 122.92 150.781 122.83 150.734 122.71L147.984 116.42C147.938 116.307 147.924 116.213 147.944 116.14C147.964 116.06 148.008 115.997 148.074 115.95C148.148 115.903 148.231 115.88 148.324 115.88C148.451 115.88 148.544 115.91 148.604 115.97C148.671 116.023 148.724 116.103 148.764 116.21L151.404 122.34H151.084L153.714 116.2C153.761 116.1 153.818 116.023 153.884 115.97C153.951 115.91 154.044 115.88 154.164 115.88C154.258 115.88 154.334 115.903 154.394 115.95C154.461 115.997 154.501 116.06 154.514 116.14C154.534 116.22 154.521 116.313 154.474 116.42L151.724 122.71C151.678 122.83 151.614 122.92 151.534 122.98C151.461 123.04 151.361 123.07 151.234 123.07ZM157.043 123.09C156.529 123.09 156.086 122.99 155.713 122.79C155.346 122.583 155.059 122.293 154.853 121.92C154.653 121.547 154.553 121.1 154.553 120.58C154.553 120.073 154.653 119.633 154.853 119.26C155.053 118.88 155.326 118.583 155.673 118.37C156.026 118.157 156.433 118.05 156.893 118.05C157.219 118.05 157.513 118.107 157.773 118.22C158.033 118.327 158.253 118.483 158.433 118.69C158.619 118.897 158.759 119.147 158.853 119.44C158.953 119.733 159.003 120.063 159.003 120.43C159.003 120.537 158.973 120.617 158.913 120.67C158.853 120.717 158.766 120.74 158.653 120.74H155.173V120.21H158.463L158.303 120.34C158.303 119.98 158.249 119.677 158.143 119.43C158.036 119.177 157.879 118.983 157.673 118.85C157.473 118.717 157.219 118.65 156.913 118.65C156.573 118.65 156.283 118.73 156.043 118.89C155.809 119.043 155.633 119.26 155.513 119.54C155.393 119.813 155.333 120.133 155.333 120.5V120.56C155.333 121.173 155.479 121.64 155.773 121.96C156.073 122.28 156.496 122.44 157.043 122.44C157.269 122.44 157.493 122.41 157.713 122.35C157.939 122.29 158.159 122.19 158.373 122.05C158.466 121.99 158.549 121.963 158.623 121.97C158.703 121.97 158.766 121.993 158.813 122.04C158.859 122.08 158.889 122.133 158.903 122.2C158.923 122.26 158.916 122.327 158.883 122.4C158.856 122.473 158.799 122.537 158.713 122.59C158.493 122.75 158.233 122.873 157.933 122.96C157.633 123.047 157.336 123.09 157.043 123.09ZM160.585 123.07C160.452 123.07 160.348 123.033 160.275 122.96C160.208 122.887 160.175 122.783 160.175 122.65V118.48C160.175 118.347 160.208 118.247 160.275 118.18C160.342 118.107 160.438 118.07 160.565 118.07C160.692 118.07 160.788 118.107 160.855 118.18C160.928 118.247 160.965 118.347 160.965 118.48V119.29H160.865C160.972 118.897 161.175 118.593 161.475 118.38C161.775 118.167 162.145 118.053 162.585 118.04C162.685 118.033 162.765 118.057 162.825 118.11C162.885 118.157 162.918 118.24 162.925 118.36C162.932 118.473 162.905 118.563 162.845 118.63C162.785 118.697 162.692 118.737 162.565 118.75L162.405 118.77C161.952 118.81 161.602 118.957 161.355 119.21C161.115 119.457 160.995 119.797 160.995 120.23V122.65C160.995 122.783 160.958 122.887 160.885 122.96C160.818 123.033 160.718 123.07 160.585 123.07ZM165.142 124.87C165.042 124.87 164.962 124.843 164.902 124.79C164.842 124.737 164.805 124.663 164.792 124.57C164.785 124.483 164.802 124.393 164.842 124.3L165.532 122.75V123.1L163.612 118.64C163.572 118.54 163.558 118.447 163.572 118.36C163.585 118.273 163.625 118.203 163.692 118.15C163.758 118.097 163.852 118.07 163.972 118.07C164.078 118.07 164.162 118.093 164.222 118.14C164.282 118.187 164.335 118.27 164.382 118.39L166.022 122.41H165.752L167.412 118.39C167.465 118.27 167.522 118.187 167.582 118.14C167.642 118.093 167.728 118.07 167.842 118.07C167.948 118.07 168.028 118.097 168.082 118.15C168.142 118.203 168.175 118.273 168.182 118.36C168.195 118.44 168.182 118.53 168.142 118.63L165.582 124.55C165.528 124.67 165.468 124.753 165.402 124.8C165.342 124.847 165.255 124.87 165.142 124.87ZM175.107 123.09C174.353 123.09 173.717 122.947 173.197 122.66C172.683 122.373 172.293 121.96 172.027 121.42C171.76 120.88 171.627 120.233 171.627 119.48C171.627 118.92 171.7 118.417 171.847 117.97C172 117.523 172.22 117.147 172.507 116.84C172.8 116.527 173.153 116.287 173.567 116.12C173.987 115.947 174.46 115.86 174.987 115.86C175.407 115.86 175.813 115.92 176.207 116.04C176.6 116.153 176.95 116.337 177.257 116.59C177.337 116.65 177.387 116.717 177.407 116.79C177.427 116.863 177.423 116.937 177.397 117.01C177.377 117.083 177.34 117.147 177.287 117.2C177.24 117.247 177.177 117.273 177.097 117.28C177.023 117.287 176.947 117.263 176.867 117.21C176.593 116.997 176.303 116.843 175.997 116.75C175.69 116.65 175.35 116.6 174.977 116.6C174.443 116.6 173.99 116.713 173.617 116.94C173.25 117.167 172.97 117.493 172.777 117.92C172.59 118.347 172.497 118.867 172.497 119.48C172.497 120.413 172.713 121.127 173.147 121.62C173.587 122.113 174.247 122.36 175.127 122.36C175.447 122.36 175.76 122.33 176.067 122.27C176.373 122.203 176.663 122.113 176.937 122L176.757 122.47V119.98H175.327C175.207 119.98 175.117 119.95 175.057 119.89C174.997 119.83 174.967 119.75 174.967 119.65C174.967 119.543 174.997 119.463 175.057 119.41C175.117 119.357 175.207 119.33 175.327 119.33H177.117C177.23 119.33 177.317 119.36 177.377 119.42C177.437 119.48 177.467 119.567 177.467 119.68V122.29C177.467 122.39 177.45 122.473 177.417 122.54C177.383 122.607 177.327 122.657 177.247 122.69C176.967 122.803 176.63 122.9 176.237 122.98C175.85 123.053 175.473 123.09 175.107 123.09ZM181.052 123.09C180.579 123.09 180.169 122.987 179.822 122.78C179.476 122.573 179.206 122.283 179.012 121.91C178.826 121.53 178.732 121.083 178.732 120.57C178.732 120.183 178.786 119.837 178.892 119.53C178.999 119.217 179.156 118.95 179.362 118.73C179.569 118.51 179.812 118.343 180.092 118.23C180.379 118.11 180.699 118.05 181.052 118.05C181.526 118.05 181.936 118.153 182.282 118.36C182.629 118.567 182.896 118.86 183.082 119.24C183.276 119.613 183.372 120.057 183.372 120.57C183.372 120.957 183.319 121.303 183.212 121.61C183.106 121.917 182.949 122.183 182.742 122.41C182.536 122.63 182.289 122.8 182.002 122.92C181.722 123.033 181.406 123.09 181.052 123.09ZM181.052 122.44C181.352 122.44 181.616 122.367 181.842 122.22C182.069 122.073 182.242 121.86 182.362 121.58C182.489 121.3 182.552 120.963 182.552 120.57C182.552 119.963 182.416 119.5 182.142 119.18C181.876 118.86 181.512 118.7 181.052 118.7C180.746 118.7 180.479 118.773 180.252 118.92C180.032 119.06 179.859 119.27 179.732 119.55C179.612 119.823 179.552 120.163 179.552 120.57C179.552 121.17 179.689 121.633 179.962 121.96C180.236 122.28 180.599 122.44 181.052 122.44ZM186.609 123.09C186.136 123.09 185.726 122.987 185.379 122.78C185.032 122.573 184.762 122.283 184.569 121.91C184.382 121.53 184.289 121.083 184.289 120.57C184.289 120.183 184.342 119.837 184.449 119.53C184.556 119.217 184.712 118.95 184.919 118.73C185.126 118.51 185.369 118.343 185.649 118.23C185.936 118.11 186.256 118.05 186.609 118.05C187.082 118.05 187.492 118.153 187.839 118.36C188.186 118.567 188.452 118.86 188.639 119.24C188.832 119.613 188.929 120.057 188.929 120.57C188.929 120.957 188.876 121.303 188.769 121.61C188.662 121.917 188.506 122.183 188.299 122.41C188.092 122.63 187.846 122.8 187.559 122.92C187.279 123.033 186.962 123.09 186.609 123.09ZM186.609 122.44C186.909 122.44 187.172 122.367 187.399 122.22C187.626 122.073 187.799 121.86 187.919 121.58C188.046 121.3 188.109 120.963 188.109 120.57C188.109 119.963 187.972 119.5 187.699 119.18C187.432 118.86 187.069 118.7 186.609 118.7C186.302 118.7 186.036 118.773 185.809 118.92C185.589 119.06 185.416 119.27 185.289 119.55C185.169 119.823 185.109 120.163 185.109 120.57C185.109 121.17 185.246 121.633 185.519 121.96C185.792 122.28 186.156 122.44 186.609 122.44ZM191.996 123.09C191.562 123.09 191.182 122.987 190.856 122.78C190.536 122.573 190.286 122.283 190.106 121.91C189.932 121.53 189.846 121.083 189.846 120.57C189.846 120.05 189.932 119.603 190.106 119.23C190.286 118.85 190.536 118.56 190.856 118.36C191.182 118.153 191.562 118.05 191.996 118.05C192.436 118.05 192.812 118.16 193.126 118.38C193.439 118.6 193.649 118.897 193.756 119.27H193.646V116.29C193.646 116.157 193.679 116.057 193.746 115.99C193.819 115.917 193.922 115.88 194.056 115.88C194.182 115.88 194.279 115.917 194.346 115.99C194.419 116.057 194.456 116.157 194.456 116.29V122.65C194.456 122.783 194.422 122.887 194.356 122.96C194.289 123.033 194.189 123.07 194.056 123.07C193.929 123.07 193.829 123.033 193.756 122.96C193.689 122.887 193.656 122.783 193.656 122.65V121.7L193.766 121.84C193.659 122.22 193.446 122.523 193.126 122.75C192.812 122.977 192.436 123.09 191.996 123.09ZM192.166 122.44C192.466 122.44 192.729 122.367 192.956 122.22C193.182 122.073 193.356 121.86 193.476 121.58C193.602 121.3 193.666 120.963 193.666 120.57C193.666 119.963 193.529 119.5 193.256 119.18C192.989 118.86 192.626 118.7 192.166 118.7C191.859 118.7 191.592 118.773 191.366 118.92C191.146 119.06 190.972 119.27 190.846 119.55C190.726 119.823 190.666 120.163 190.666 120.57C190.666 121.17 190.802 121.633 191.076 121.96C191.349 122.28 191.712 122.44 192.166 122.44Z" fill="white"/>
<line x1="20" y1="252.017" x2="322" y2="252.017" stroke="#646667" stroke-opacity="0.5" stroke-width="0.5"/>
<path d="M269.267 235.767V234.519H271.763V243.267H270.383V235.767H269.267ZM275.346 240.891C275.426 241.291 275.598 241.595 275.862 241.803C276.126 242.011 276.482 242.115 276.93 242.115C277.498 242.115 277.914 241.891 278.178 241.443C278.442 240.995 278.574 240.231 278.574 239.151C278.382 239.423 278.11 239.635 277.758 239.787C277.414 239.931 277.038 240.003 276.63 240.003C276.11 240.003 275.638 239.899 275.214 239.691C274.79 239.475 274.454 239.159 274.206 238.743C273.966 238.319 273.846 237.807 273.846 237.207C273.846 236.327 274.102 235.627 274.614 235.107C275.134 234.579 275.846 234.315 276.75 234.315C277.838 234.315 278.61 234.679 279.066 235.407C279.53 236.127 279.762 237.235 279.762 238.731C279.762 239.763 279.674 240.607 279.498 241.263C279.33 241.919 279.034 242.415 278.61 242.751C278.186 243.087 277.598 243.255 276.846 243.255C275.99 243.255 275.33 243.031 274.866 242.583C274.402 242.135 274.142 241.571 274.086 240.891H275.346ZM276.87 238.851C277.35 238.851 277.726 238.703 277.998 238.407C278.278 238.103 278.418 237.703 278.418 237.207C278.418 236.655 278.27 236.227 277.974 235.923C277.686 235.611 277.29 235.455 276.786 235.455C276.282 235.455 275.882 235.615 275.586 235.935C275.298 236.247 275.154 236.659 275.154 237.171C275.154 237.659 275.294 238.063 275.574 238.383C275.862 238.695 276.294 238.851 276.87 238.851ZM281.079 235.767V234.519H283.575V243.267H282.195V235.767H281.079ZM286.21 241.407C286.978 240.743 287.582 240.199 288.022 239.775C288.47 239.343 288.842 238.895 289.138 238.431C289.434 237.967 289.582 237.503 289.582 237.039C289.582 236.559 289.466 236.183 289.234 235.911C289.01 235.639 288.654 235.503 288.166 235.503C287.694 235.503 287.326 235.655 287.062 235.959C286.806 236.255 286.67 236.655 286.654 237.159H285.334C285.358 236.247 285.63 235.551 286.15 235.071C286.678 234.583 287.346 234.339 288.154 234.339C289.026 234.339 289.706 234.579 290.194 235.059C290.69 235.539 290.938 236.179 290.938 236.979C290.938 237.555 290.79 238.111 290.494 238.647C290.206 239.175 289.858 239.651 289.45 240.075C289.05 240.491 288.538 240.975 287.914 241.527L287.374 242.007H291.178V243.147H285.346V242.151L286.21 241.407ZM298.293 239.967L301.341 243.267H299.493L297.045 240.423V243.267H295.677V234.387H297.045V239.547L299.445 236.655H301.341L298.293 239.967ZM301.866 239.079C301.866 238.263 302.054 237.531 302.43 236.883C302.814 236.235 303.33 235.731 303.978 235.371C304.634 235.003 305.35 234.819 306.126 234.819C307.014 234.819 307.802 235.039 308.49 235.479C309.186 235.911 309.69 236.527 310.002 237.327H308.358C308.142 236.887 307.842 236.559 307.458 236.343C307.074 236.127 306.63 236.019 306.126 236.019C305.574 236.019 305.082 236.143 304.65 236.391C304.218 236.639 303.878 236.995 303.63 237.459C303.39 237.923 303.27 238.463 303.27 239.079C303.27 239.695 303.39 240.235 303.63 240.699C303.878 241.163 304.218 241.523 304.65 241.779C305.082 242.027 305.574 242.151 306.126 242.151C306.63 242.151 307.074 242.043 307.458 241.827C307.842 241.611 308.142 241.283 308.358 240.843H310.002C309.69 241.643 309.186 242.259 308.49 242.691C307.802 243.123 307.014 243.339 306.126 243.339C305.342 243.339 304.626 243.159 303.978 242.799C303.33 242.431 302.814 241.923 302.43 241.275C302.054 240.627 301.866 239.895 301.866 239.079ZM311.147 239.931C311.147 239.267 311.283 238.679 311.555 238.167C311.835 237.655 312.211 237.259 312.683 236.979C313.163 236.691 313.691 236.547 314.267 236.547C314.787 236.547 315.239 236.651 315.623 236.859C316.015 237.059 316.327 237.311 316.559 237.615V236.655H317.939V243.267H316.559V242.283C316.327 242.595 316.011 242.855 315.611 243.063C315.211 243.271 314.755 243.375 314.243 243.375C313.675 243.375 313.155 243.231 312.683 242.943C312.211 242.647 311.835 242.239 311.555 241.719C311.283 241.191 311.147 240.595 311.147 239.931ZM316.559 239.955C316.559 239.499 316.463 239.103 316.271 238.767C316.087 238.431 315.843 238.175 315.539 237.999C315.235 237.823 314.907 237.735 314.555 237.735C314.203 237.735 313.875 237.823 313.571 237.999C313.267 238.167 313.019 238.419 312.827 238.755C312.643 239.083 312.551 239.475 312.551 239.931C312.551 240.387 312.643 240.787 312.827 241.131C313.019 241.475 313.267 241.739 313.571 241.923C313.883 242.099 314.211 242.187 314.555 242.187C314.907 242.187 315.235 242.099 315.539 241.923C315.843 241.747 316.087 241.491 316.271 241.155C316.463 240.811 316.559 240.411 316.559 239.955ZM321.104 234.387V243.267H319.736V234.387H321.104Z" fill="white"/>
<path d="M25.868 234.879V235.575H23.54V243.267H22.7V235.575H20.36V234.879H25.868ZM30.0624 243.363C29.4464 243.363 28.8904 243.227 28.3944 242.955C27.9064 242.675 27.5184 242.283 27.2304 241.779C26.9504 241.267 26.8104 240.671 26.8104 239.991C26.8104 239.311 26.9544 238.719 27.2424 238.215C27.5304 237.703 27.9224 237.311 28.4184 237.039C28.9144 236.759 29.4704 236.619 30.0864 236.619C30.7024 236.619 31.2584 236.759 31.7544 237.039C32.2584 237.311 32.6504 237.703 32.9304 238.215C33.2184 238.719 33.3624 239.311 33.3624 239.991C33.3624 240.663 33.2184 241.255 32.9304 241.767C32.6424 242.279 32.2464 242.675 31.7424 242.955C31.2384 243.227 30.6784 243.363 30.0624 243.363ZM30.0624 242.631C30.4944 242.631 30.8944 242.535 31.2624 242.343C31.6304 242.143 31.9264 241.847 32.1504 241.455C32.3824 241.055 32.4984 240.567 32.4984 239.991C32.4984 239.415 32.3864 238.931 32.1624 238.539C31.9384 238.139 31.6424 237.843 31.2744 237.651C30.9064 237.451 30.5064 237.351 30.0744 237.351C29.6424 237.351 29.2424 237.451 28.8744 237.651C28.5064 237.843 28.2104 238.139 27.9864 238.539C27.7704 238.931 27.6624 239.415 27.6624 239.991C27.6624 240.567 27.7704 241.055 27.9864 241.455C28.2104 241.847 28.5024 242.143 28.8624 242.343C29.2304 242.535 29.6304 242.631 30.0624 242.631ZM35.9856 237.423V241.491C35.9856 241.891 36.0616 242.167 36.2136 242.319C36.3656 242.471 36.6336 242.547 37.0176 242.547H37.7856V243.267H36.8856C36.2936 243.267 35.8536 243.131 35.5656 242.859C35.2776 242.579 35.1336 242.123 35.1336 241.491V237.423H34.2216V236.715H35.1336V235.071H35.9856V236.715H37.7856V237.423H35.9856ZM38.7869 239.979C38.7869 239.307 38.9189 238.719 39.1829 238.215C39.4549 237.703 39.8269 237.311 40.2989 237.039C40.7789 236.759 41.3189 236.619 41.9189 236.619C42.5429 236.619 43.0789 236.763 43.5269 237.051C43.9829 237.339 44.3109 237.707 44.5109 238.155V236.715H45.3509V243.267H44.5109V241.815C44.3029 242.263 43.9709 242.635 43.5149 242.931C43.0669 243.219 42.5309 243.363 41.9069 243.363C41.3149 243.363 40.7789 243.223 40.2989 242.943C39.8269 242.663 39.4549 242.267 39.1829 241.755C38.9189 241.243 38.7869 240.651 38.7869 239.979ZM44.5109 239.991C44.5109 239.463 44.4029 238.999 44.1869 238.599C43.9709 238.199 43.6749 237.891 43.2989 237.675C42.9309 237.459 42.5229 237.351 42.0749 237.351C41.6109 237.351 41.1949 237.455 40.8269 237.663C40.4589 237.871 40.1669 238.175 39.9509 238.575C39.7429 238.967 39.6389 239.435 39.6389 239.979C39.6389 240.515 39.7429 240.987 39.9509 241.395C40.1669 241.795 40.4589 242.103 40.8269 242.319C41.1949 242.527 41.6109 242.631 42.0749 242.631C42.5229 242.631 42.9309 242.523 43.2989 242.307C43.6749 242.091 43.9709 241.783 44.1869 241.383C44.4029 240.983 44.5109 240.519 44.5109 239.991ZM48.1086 234.387V243.267H47.2686V234.387H48.1086ZM52.9198 239.067C52.9198 238.243 53.0998 237.507 53.4598 236.859C53.8198 236.203 54.3118 235.695 54.9358 235.335C55.5598 234.967 56.2558 234.783 57.0238 234.783C57.9598 234.783 58.7598 235.007 59.4238 235.455C60.0958 235.895 60.5838 236.519 60.8878 237.327H59.9038C59.6638 236.759 59.2958 236.315 58.7998 235.995C58.3118 235.675 57.7198 235.515 57.0238 235.515C56.4078 235.515 55.8518 235.659 55.3558 235.947C54.8678 236.235 54.4838 236.651 54.2038 237.195C53.9238 237.731 53.7838 238.355 53.7838 239.067C53.7838 239.779 53.9238 240.403 54.2038 240.939C54.4838 241.475 54.8678 241.887 55.3558 242.175C55.8518 242.463 56.4078 242.607 57.0238 242.607C57.7198 242.607 58.3118 242.451 58.7998 242.139C59.2958 241.819 59.6638 241.379 59.9038 240.819H60.8878C60.5838 241.619 60.0958 242.239 59.4238 242.679C58.7518 243.119 57.9518 243.339 57.0238 243.339C56.2558 243.339 55.5598 243.159 54.9358 242.799C54.3118 242.431 53.8198 241.923 53.4598 241.275C53.0998 240.627 52.9198 239.891 52.9198 239.067ZM62.1776 239.979C62.1776 239.307 62.3096 238.719 62.5736 238.215C62.8456 237.703 63.2176 237.311 63.6896 237.039C64.1696 236.759 64.7096 236.619 65.3096 236.619C65.9336 236.619 66.4696 236.763 66.9176 237.051C67.3736 237.339 67.7016 237.707 67.9016 238.155V236.715H68.7416V243.267H67.9016V241.815C67.6936 242.263 67.3616 242.635 66.9056 242.931C66.4576 243.219 65.9216 243.363 65.2976 243.363C64.7056 243.363 64.1696 243.223 63.6896 242.943C63.2176 242.663 62.8456 242.267 62.5736 241.755C62.3096 241.243 62.1776 240.651 62.1776 239.979ZM67.9016 239.991C67.9016 239.463 67.7936 238.999 67.5776 238.599C67.3616 238.199 67.0656 237.891 66.6896 237.675C66.3216 237.459 65.9136 237.351 65.4656 237.351C65.0016 237.351 64.5856 237.455 64.2176 237.663C63.8496 237.871 63.5576 238.175 63.3416 238.575C63.1336 238.967 63.0296 239.435 63.0296 239.979C63.0296 240.515 63.1336 240.987 63.3416 241.395C63.5576 241.795 63.8496 242.103 64.2176 242.319C64.5856 242.527 65.0016 242.631 65.4656 242.631C65.9136 242.631 66.3216 242.523 66.6896 242.307C67.0656 242.091 67.3616 241.783 67.5776 241.383C67.7936 240.983 67.9016 240.519 67.9016 239.991ZM71.4992 234.387V243.267H70.6592V234.387H71.4992ZM76.2694 243.363C75.6534 243.363 75.0974 243.227 74.6014 242.955C74.1134 242.675 73.7254 242.283 73.4374 241.779C73.1574 241.267 73.0174 240.671 73.0174 239.991C73.0174 239.311 73.1614 238.719 73.4494 238.215C73.7374 237.703 74.1294 237.311 74.6254 237.039C75.1214 236.759 75.6774 236.619 76.2934 236.619C76.9094 236.619 77.4654 236.759 77.9614 237.039C78.4654 237.311 78.8574 237.703 79.1374 238.215C79.4254 238.719 79.5694 239.311 79.5694 239.991C79.5694 240.663 79.4254 241.255 79.1374 241.767C78.8494 242.279 78.4534 242.675 77.9494 242.955C77.4454 243.227 76.8854 243.363 76.2694 243.363ZM76.2694 242.631C76.7014 242.631 77.1014 242.535 77.4694 242.343C77.8374 242.143 78.1334 241.847 78.3574 241.455C78.5894 241.055 78.7054 240.567 78.7054 239.991C78.7054 239.415 78.5934 238.931 78.3694 238.539C78.1454 238.139 77.8494 237.843 77.4814 237.651C77.1134 237.451 76.7134 237.351 76.2814 237.351C75.8494 237.351 75.4494 237.451 75.0814 237.651C74.7134 237.843 74.4174 238.139 74.1934 238.539C73.9774 238.931 73.8694 239.415 73.8694 239.991C73.8694 240.567 73.9774 241.055 74.1934 241.455C74.4174 241.847 74.7094 242.143 75.0694 242.343C75.4374 242.535 75.8374 242.631 76.2694 242.631ZM81.9406 237.879C82.1246 237.471 82.4046 237.155 82.7806 236.931C83.1646 236.707 83.6326 236.595 84.1846 236.595V237.471H83.9566C83.3486 237.471 82.8606 237.635 82.4926 237.963C82.1246 238.291 81.9406 238.839 81.9406 239.607V243.267H81.1006V236.715H81.9406V237.879ZM85.8683 235.479C85.7003 235.479 85.5563 235.419 85.4363 235.299C85.3163 235.179 85.2563 235.031 85.2563 234.855C85.2563 234.679 85.3163 234.535 85.4363 234.423C85.5563 234.303 85.7003 234.243 85.8683 234.243C86.0363 234.243 86.1803 234.303 86.3003 234.423C86.4203 234.535 86.4803 234.679 86.4803 234.855C86.4803 235.031 86.4203 235.179 86.3003 235.299C86.1803 235.419 86.0363 235.479 85.8683 235.479ZM86.2883 236.715V243.267H85.4483V236.715H86.2883ZM94.1185 239.655C94.1185 239.943 94.1105 240.163 94.0945 240.315H88.6585C88.6825 240.811 88.8025 241.235 89.0185 241.587C89.2345 241.939 89.5185 242.207 89.8705 242.391C90.2225 242.567 90.6065 242.655 91.0225 242.655C91.5665 242.655 92.0225 242.523 92.3905 242.259C92.7665 241.995 93.0145 241.639 93.1345 241.191H94.0225C93.8625 241.831 93.5185 242.355 92.9905 242.763C92.4705 243.163 91.8145 243.363 91.0225 243.363C90.4065 243.363 89.8545 243.227 89.3665 242.955C88.8785 242.675 88.4945 242.283 88.2145 241.779C87.9425 241.267 87.8065 240.671 87.8065 239.991C87.8065 239.311 87.9425 238.715 88.2145 238.203C88.4865 237.691 88.8665 237.299 89.3545 237.027C89.8425 236.755 90.3985 236.619 91.0225 236.619C91.6465 236.619 92.1905 236.755 92.6545 237.027C93.1265 237.299 93.4865 237.667 93.7345 238.131C93.9905 238.587 94.1185 239.095 94.1185 239.655ZM93.2665 239.631C93.2745 239.143 93.1745 238.727 92.9665 238.383C92.7665 238.039 92.4905 237.779 92.1385 237.603C91.7865 237.427 91.4025 237.339 90.9865 237.339C90.3625 237.339 89.8305 237.539 89.3905 237.939C88.9505 238.339 88.7065 238.903 88.6585 239.631H93.2665ZM97.9113 243.363C97.1593 243.363 96.5433 243.191 96.0633 242.847C95.5913 242.495 95.3273 242.019 95.2713 241.419H96.1353C96.1753 241.787 96.3473 242.087 96.6513 242.319C96.9633 242.543 97.3793 242.655 97.8993 242.655C98.3553 242.655 98.7113 242.547 98.9673 242.331C99.2313 242.115 99.3633 241.847 99.3633 241.527C99.3633 241.303 99.2913 241.119 99.1473 240.975C99.0033 240.831 98.8193 240.719 98.5953 240.639C98.3793 240.551 98.0833 240.459 97.7073 240.363C97.2193 240.235 96.8233 240.107 96.5193 239.979C96.2153 239.851 95.9553 239.663 95.7393 239.415C95.5313 239.159 95.4273 238.819 95.4273 238.395C95.4273 238.075 95.5233 237.779 95.7153 237.507C95.9073 237.235 96.1793 237.019 96.5313 236.859C96.8833 236.699 97.2833 236.619 97.7313 236.619C98.4353 236.619 99.0033 236.799 99.4353 237.159C99.8673 237.511 100.099 237.999 100.131 238.623H99.2913C99.2673 238.239 99.1153 237.931 98.8353 237.699C98.5633 237.459 98.1873 237.339 97.7073 237.339C97.2833 237.339 96.9393 237.439 96.6753 237.639C96.4113 237.839 96.2793 238.087 96.2793 238.383C96.2793 238.639 96.3553 238.851 96.5073 239.019C96.6673 239.179 96.8633 239.307 97.0953 239.403C97.3273 239.491 97.6393 239.591 98.0313 239.703C98.5033 239.831 98.8793 239.955 99.1593 240.075C99.4393 240.195 99.6793 240.371 99.8793 240.603C100.079 240.835 100.183 241.143 100.191 241.527C100.191 241.879 100.095 242.195 99.9033 242.475C99.7113 242.747 99.4433 242.963 99.0993 243.123C98.7553 243.283 98.3593 243.363 97.9113 243.363Z" fill="#646667"/>
<path d="M298.487 261.575L295.151 269.267H293.771L297.143 261.719H292.703V260.555H298.487V261.575ZM299.658 264.779C299.658 263.395 299.89 262.315 300.354 261.539C300.826 260.755 301.634 260.363 302.778 260.363C303.922 260.363 304.726 260.755 305.19 261.539C305.662 262.315 305.898 263.395 305.898 264.779C305.898 266.179 305.662 267.275 305.19 268.067C304.726 268.851 303.922 269.243 302.778 269.243C301.634 269.243 300.826 268.851 300.354 268.067C299.89 267.275 299.658 266.179 299.658 264.779ZM304.554 264.779C304.554 264.131 304.51 263.583 304.422 263.135C304.342 262.687 304.174 262.323 303.918 262.043C303.662 261.755 303.282 261.611 302.778 261.611C302.274 261.611 301.894 261.755 301.638 262.043C301.382 262.323 301.21 262.687 301.122 263.135C301.042 263.583 301.002 264.131 301.002 264.779C301.002 265.451 301.042 266.015 301.122 266.471C301.202 266.927 301.37 267.295 301.626 267.575C301.89 267.855 302.274 267.995 302.778 267.995C303.282 267.995 303.662 267.855 303.918 267.575C304.182 267.295 304.354 266.927 304.434 266.471C304.514 266.015 304.554 265.451 304.554 264.779ZM307.345 264.779C307.345 263.395 307.577 262.315 308.041 261.539C308.513 260.755 309.321 260.363 310.465 260.363C311.609 260.363 312.413 260.755 312.877 261.539C313.349 262.315 313.585 263.395 313.585 264.779C313.585 266.179 313.349 267.275 312.877 268.067C312.413 268.851 311.609 269.243 310.465 269.243C309.321 269.243 308.513 268.851 308.041 268.067C307.577 267.275 307.345 266.179 307.345 264.779ZM312.241 264.779C312.241 264.131 312.197 263.583 312.109 263.135C312.029 262.687 311.861 262.323 311.605 262.043C311.349 261.755 310.969 261.611 310.465 261.611C309.961 261.611 309.581 261.755 309.325 262.043C309.069 262.323 308.897 262.687 308.809 263.135C308.729 263.583 308.689 264.131 308.689 264.779C308.689 265.451 308.729 266.015 308.809 266.471C308.889 266.927 309.057 267.295 309.313 267.575C309.577 267.855 309.961 267.995 310.465 267.995C310.969 267.995 311.349 267.855 311.605 267.575C311.869 267.295 312.041 266.927 312.121 266.471C312.201 266.015 312.241 265.451 312.241 264.779ZM315.033 264.779C315.033 263.395 315.265 262.315 315.729 261.539C316.201 260.755 317.009 260.363 318.153 260.363C319.297 260.363 320.101 260.755 320.565 261.539C321.037 262.315 321.273 263.395 321.273 264.779C321.273 266.179 321.037 267.275 320.565 268.067C320.101 268.851 319.297 269.243 318.153 269.243C317.009 269.243 316.201 268.851 315.729 268.067C315.265 267.275 315.033 266.179 315.033 264.779ZM319.929 264.779C319.929 264.131 319.885 263.583 319.797 263.135C319.717 262.687 319.549 262.323 319.293 262.043C319.037 261.755 318.657 261.611 318.153 261.611C317.649 261.611 317.269 261.755 317.013 262.043C316.757 262.323 316.585 262.687 316.497 263.135C316.417 263.583 316.377 264.131 316.377 264.779C316.377 265.451 316.417 266.015 316.497 266.471C316.577 266.927 316.745 267.295 317.001 267.575C317.265 267.855 317.649 267.995 318.153 267.995C318.657 267.995 319.037 267.855 319.293 267.575C319.557 267.295 319.729 266.927 319.809 266.471C319.889 266.015 319.929 265.451 319.929 264.779Z" fill="white"/>
<path d="M25.868 260.879V261.575H23.54V269.267H22.7V261.575H20.36V260.879H25.868ZM30.0624 269.363C29.4464 269.363 28.8904 269.227 28.3944 268.955C27.9064 268.675 27.5184 268.283 27.2304 267.779C26.9504 267.267 26.8104 266.671 26.8104 265.991C26.8104 265.311 26.9544 264.719 27.2424 264.215C27.5304 263.703 27.9224 263.311 28.4184 263.039C28.9144 262.759 29.4704 262.619 30.0864 262.619C30.7024 262.619 31.2584 262.759 31.7544 263.039C32.2584 263.311 32.6504 263.703 32.9304 264.215C33.2184 264.719 33.3624 265.311 33.3624 265.991C33.3624 266.663 33.2184 267.255 32.9304 267.767C32.6424 268.279 32.2464 268.675 31.7424 268.955C31.2384 269.227 30.6784 269.363 30.0624 269.363ZM30.0624 268.631C30.4944 268.631 30.8944 268.535 31.2624 268.343C31.6304 268.143 31.9264 267.847 32.1504 267.455C32.3824 267.055 32.4984 266.567 32.4984 265.991C32.4984 265.415 32.3864 264.931 32.1624 264.539C31.9384 264.139 31.6424 263.843 31.2744 263.651C30.9064 263.451 30.5064 263.351 30.0744 263.351C29.6424 263.351 29.2424 263.451 28.8744 263.651C28.5064 263.843 28.2104 264.139 27.9864 264.539C27.7704 264.931 27.6624 265.415 27.6624 265.991C27.6624 266.567 27.7704 267.055 27.9864 267.455C28.2104 267.847 28.5024 268.143 28.8624 268.343C29.2304 268.535 29.6304 268.631 30.0624 268.631ZM35.9856 263.423V267.491C35.9856 267.891 36.0616 268.167 36.2136 268.319C36.3656 268.471 36.6336 268.547 37.0176 268.547H37.7856V269.267H36.8856C36.2936 269.267 35.8536 269.131 35.5656 268.859C35.2776 268.579 35.1336 268.123 35.1336 267.491V263.423H34.2216V262.715H35.1336V261.071H35.9856V262.715H37.7856V263.423H35.9856ZM38.7869 265.979C38.7869 265.307 38.9189 264.719 39.1829 264.215C39.4549 263.703 39.8269 263.311 40.2989 263.039C40.7789 262.759 41.3189 262.619 41.9189 262.619C42.5429 262.619 43.0789 262.763 43.5269 263.051C43.9829 263.339 44.3109 263.707 44.5109 264.155V262.715H45.3509V269.267H44.5109V267.815C44.3029 268.263 43.9709 268.635 43.5149 268.931C43.0669 269.219 42.5309 269.363 41.9069 269.363C41.3149 269.363 40.7789 269.223 40.2989 268.943C39.8269 268.663 39.4549 268.267 39.1829 267.755C38.9189 267.243 38.7869 266.651 38.7869 265.979ZM44.5109 265.991C44.5109 265.463 44.4029 264.999 44.1869 264.599C43.9709 264.199 43.6749 263.891 43.2989 263.675C42.9309 263.459 42.5229 263.351 42.0749 263.351C41.6109 263.351 41.1949 263.455 40.8269 263.663C40.4589 263.871 40.1669 264.175 39.9509 264.575C39.7429 264.967 39.6389 265.435 39.6389 265.979C39.6389 266.515 39.7429 266.987 39.9509 267.395C40.1669 267.795 40.4589 268.103 40.8269 268.319C41.1949 268.527 41.6109 268.631 42.0749 268.631C42.5229 268.631 42.9309 268.523 43.2989 268.307C43.6749 268.091 43.9709 267.783 44.1869 267.383C44.4029 266.983 44.5109 266.519 44.5109 265.991ZM48.1086 260.387V269.267H47.2686V260.387H48.1086ZM55.8478 269.351C55.2958 269.351 54.8078 269.255 54.3838 269.063C53.9678 268.871 53.6398 268.603 53.3998 268.259C53.1598 267.915 53.0318 267.531 53.0158 267.107H53.9038C53.9438 267.515 54.1238 267.875 54.4438 268.187C54.7638 268.491 55.2318 268.643 55.8478 268.643C56.4158 268.643 56.8638 268.499 57.1918 268.211C57.5278 267.915 57.6958 267.543 57.6958 267.095C57.6958 266.735 57.6038 266.447 57.4198 266.231C57.2358 266.007 57.0078 265.843 56.7358 265.739C56.4638 265.627 56.0878 265.507 55.6078 265.379C55.0478 265.227 54.6038 265.079 54.2758 264.935C53.9478 264.791 53.6678 264.567 53.4358 264.263C53.2038 263.959 53.0878 263.547 53.0878 263.027C53.0878 262.595 53.1998 262.211 53.4238 261.875C53.6478 261.531 53.9638 261.263 54.3718 261.071C54.7798 260.879 55.2478 260.783 55.7758 260.783C56.5518 260.783 57.1758 260.975 57.6478 261.359C58.1278 261.735 58.4038 262.223 58.4758 262.823H57.5638C57.5078 262.479 57.3198 262.175 56.9998 261.911C56.6798 261.639 56.2478 261.503 55.7038 261.503C55.1998 261.503 54.7798 261.639 54.4438 261.911C54.1078 262.175 53.9398 262.539 53.9398 263.003C53.9398 263.355 54.0318 263.639 54.2158 263.855C54.3998 264.071 54.6278 264.235 54.8998 264.347C55.1798 264.459 55.5558 264.579 56.0278 264.707C56.5718 264.859 57.0118 265.011 57.3478 265.163C57.6838 265.307 57.9678 265.531 58.1998 265.835C58.4318 266.139 58.5478 266.547 58.5478 267.059C58.5478 267.451 58.4438 267.823 58.2358 268.175C58.0278 268.527 57.7198 268.811 57.3118 269.027C56.9038 269.243 56.4158 269.351 55.8478 269.351ZM61.2629 263.423V267.491C61.2629 267.891 61.3389 268.167 61.4909 268.319C61.6429 268.471 61.9109 268.547 62.2949 268.547H63.0629V269.267H62.1629C61.5709 269.267 61.1309 269.131 60.8429 268.859C60.5549 268.579 60.4109 268.123 60.4109 267.491V263.423H59.4989V262.715H60.4109V261.071H61.2629V262.715H63.0629V263.423H61.2629ZM70.3763 265.655C70.3763 265.943 70.3683 266.163 70.3523 266.315H64.9163C64.9403 266.811 65.0603 267.235 65.2763 267.587C65.4923 267.939 65.7763 268.207 66.1283 268.391C66.4803 268.567 66.8643 268.655 67.2803 268.655C67.8243 268.655 68.2803 268.523 68.6483 268.259C69.0243 267.995 69.2723 267.639 69.3923 267.191H70.2803C70.1203 267.831 69.7763 268.355 69.2483 268.763C68.7283 269.163 68.0723 269.363 67.2803 269.363C66.6643 269.363 66.1123 269.227 65.6243 268.955C65.1363 268.675 64.7523 268.283 64.4723 267.779C64.2003 267.267 64.0643 266.671 64.0643 265.991C64.0643 265.311 64.2003 264.715 64.4723 264.203C64.7443 263.691 65.1243 263.299 65.6123 263.027C66.1003 262.755 66.6563 262.619 67.2803 262.619C67.9043 262.619 68.4483 262.755 68.9123 263.027C69.3843 263.299 69.7443 263.667 69.9923 264.131C70.2483 264.587 70.3763 265.095 70.3763 265.655ZM69.5243 265.631C69.5323 265.143 69.4323 264.727 69.2243 264.383C69.0243 264.039 68.7483 263.779 68.3963 263.603C68.0443 263.427 67.6603 263.339 67.2443 263.339C66.6203 263.339 66.0883 263.539 65.6483 263.939C65.2083 264.339 64.9643 264.903 64.9163 265.631H69.5243ZM72.7411 264.155C72.9491 263.715 73.2771 263.351 73.7251 263.063C74.1811 262.767 74.7211 262.619 75.3451 262.619C75.9371 262.619 76.4691 262.759 76.9411 263.039C77.4211 263.311 77.7931 263.703 78.0571 264.215C78.3291 264.719 78.4651 265.307 78.4651 265.979C78.4651 266.651 78.3291 267.243 78.0571 267.755C77.7931 268.267 77.4211 268.663 76.9411 268.943C76.4691 269.223 75.9371 269.363 75.3451 269.363C74.7291 269.363 74.1931 269.219 73.7371 268.931C73.2811 268.635 72.9491 268.267 72.7411 267.827V272.363H71.9131V262.715H72.7411V264.155ZM77.6131 265.979C77.6131 265.435 77.5051 264.967 77.2891 264.575C77.0811 264.175 76.7931 263.871 76.4251 263.663C76.0571 263.455 75.6411 263.351 75.1771 263.351C74.7291 263.351 74.3171 263.459 73.9411 263.675C73.5731 263.891 73.2811 264.199 73.0651 264.599C72.8491 264.999 72.7411 265.463 72.7411 265.991C72.7411 266.519 72.8491 266.983 73.0651 267.383C73.2811 267.783 73.5731 268.091 73.9411 268.307C74.3171 268.523 74.7291 268.631 75.1771 268.631C75.6411 268.631 76.0571 268.527 76.4251 268.319C76.7931 268.103 77.0811 267.795 77.2891 267.395C77.5051 266.987 77.6131 266.515 77.6131 265.979ZM82.2668 269.363C81.5148 269.363 80.8988 269.191 80.4188 268.847C79.9468 268.495 79.6828 268.019 79.6268 267.419H80.4908C80.5308 267.787 80.7028 268.087 81.0068 268.319C81.3188 268.543 81.7348 268.655 82.2548 268.655C82.7108 268.655 83.0668 268.547 83.3228 268.331C83.5868 268.115 83.7188 267.847 83.7188 267.527C83.7188 267.303 83.6468 267.119 83.5028 266.975C83.3588 266.831 83.1748 266.719 82.9508 266.639C82.7348 266.551 82.4388 266.459 82.0628 266.363C81.5748 266.235 81.1788 266.107 80.8748 265.979C80.5708 265.851 80.3108 265.663 80.0948 265.415C79.8868 265.159 79.7828 264.819 79.7828 264.395C79.7828 264.075 79.8788 263.779 80.0708 263.507C80.2628 263.235 80.5348 263.019 80.8868 262.859C81.2388 262.699 81.6388 262.619 82.0868 262.619C82.7908 262.619 83.3588 262.799 83.7908 263.159C84.2228 263.511 84.4548 263.999 84.4868 264.623H83.6468C83.6228 264.239 83.4708 263.931 83.1908 263.699C82.9188 263.459 82.5428 263.339 82.0628 263.339C81.6388 263.339 81.2948 263.439 81.0308 263.639C80.7668 263.839 80.6348 264.087 80.6348 264.383C80.6348 264.639 80.7108 264.851 80.8628 265.019C81.0228 265.179 81.2188 265.307 81.4508 265.403C81.6828 265.491 81.9948 265.591 82.3868 265.703C82.8588 265.831 83.2348 265.955 83.5148 266.075C83.7948 266.195 84.0348 266.371 84.2348 266.603C84.4348 266.835 84.5388 267.143 84.5468 267.527C84.5468 267.879 84.4508 268.195 84.2588 268.475C84.0668 268.747 83.7988 268.963 83.4548 269.123C83.1108 269.283 82.7148 269.363 82.2668 269.363Z" fill="#646667"/>
<path fill-rule="evenodd" clip-rule="evenodd" d="M26.3241 183.08C25.0697 183.08 24.0528 182.063 24.0528 180.809V159.791C24.0528 158.537 25.0697 157.52 26.3241 157.52C27.5785 157.52 28.5954 158.537 28.5954 159.791V180.809C28.5954 182.063 27.5785 183.08 26.3241 183.08Z" fill="white"/>
<path fill-rule="evenodd" clip-rule="evenodd" d="M273.842 183.08C272.587 183.08 271.57 182.063 271.57 180.809V159.791C271.57 158.537 272.587 157.52 273.842 157.52C275.096 157.52 276.113 158.537 276.113 159.791V180.809C276.113 182.063 275.096 183.08 273.842 183.08Z" fill="white"/>
<path fill-rule="evenodd" clip-rule="evenodd" d="M36.7831 183.08C35.5287 183.08 34.5118 182.063 34.5118 180.809V159.791C34.5118 158.537 35.5287 157.52 36.7831 157.52C38.0375 157.52 39.0544 158.537 39.0544 159.791V180.809C39.0544 182.063 38.0375 183.08 36.7831 183.08Z" fill="white"/>
<path fill-rule="evenodd" clip-rule="evenodd" d="M284.301 183.08C283.046 183.08 282.029 182.063 282.029 180.809V151.271C282.029 150.017 283.046 149 284.301 149C285.555 149 286.572 150.017 286.572 151.271V180.809C286.572 182.063 285.555 183.08 284.301 183.08Z" fill="white"/>
<path fill-rule="evenodd" clip-rule="evenodd" d="M305.217 183.08C303.962 183.08 302.945 182.063 302.945 180.809V151.271C302.945 150.017 303.962 149 305.217 149C306.471 149 307.488 150.017 307.488 151.271V180.809C307.488 182.063 306.471 183.08 305.217 183.08Z" fill="white"/>
<path fill-rule="evenodd" clip-rule="evenodd" d="M47.2421 183.08C45.9877 183.08 44.9708 182.063 44.9708 180.809V166.573C44.9708 165.318 45.9877 164.301 47.2421 164.301C48.4965 164.301 49.5134 165.318 49.5134 166.573V180.809C49.5134 182.063 48.4965 183.08 47.2421 183.08Z" fill="white"/>
<path fill-rule="evenodd" clip-rule="evenodd" d="M294.76 183.08C293.505 183.08 292.488 182.063 292.488 180.809V166.573C292.488 165.318 293.505 164.301 294.76 164.301C296.014 164.301 297.031 165.318 297.031 166.573V180.809C297.031 182.063 296.014 183.08 294.76 183.08Z" fill="white"/>
<path fill-rule="evenodd" clip-rule="evenodd" d="M315.676 183.08C314.421 183.08 313.404 182.063 313.404 180.809V175.885C313.404 174.63 314.421 173.613 315.676 173.613C316.93 173.613 317.947 174.63 317.947 175.885V180.809C317.947 182.063 316.93 183.08 315.676 183.08Z" fill="white"/>
<path fill-rule="evenodd" clip-rule="evenodd" d="M99.5331 183.08C98.2787 183.08 97.2618 182.063 97.2618 180.809V166.573C97.2618 165.318 98.2787 164.301 99.5331 164.301C100.787 164.301 101.804 165.318 101.804 166.573V180.809C101.804 182.063 100.787 183.08 99.5331 183.08Z" fill="white"/>
<path fill-rule="evenodd" clip-rule="evenodd" d="M248.277 183.08C247.023 183.08 246.006 182.063 246.006 180.809V166.573C246.006 165.318 247.023 164.301 248.277 164.301C249.532 164.301 250.549 165.318 250.549 166.573V180.809C250.549 182.063 249.532 183.08 248.277 183.08Z" fill="white"/>
<path fill-rule="evenodd" clip-rule="evenodd" d="M132.07 183.08C130.816 183.08 129.799 182.063 129.799 180.809V151.271C129.799 150.017 130.816 149 132.07 149C133.325 149 134.341 150.017 134.341 151.271V180.809C134.341 182.063 133.325 183.08 132.07 183.08Z" fill="white"/>
<path fill-rule="evenodd" clip-rule="evenodd" d="M182.039 183.08C180.785 183.08 179.768 182.063 179.768 180.809V151.271C179.768 150.017 180.785 149 182.039 149C183.293 149 184.31 150.017 184.31 151.271V180.809C184.31 182.063 183.293 183.08 182.039 183.08Z" fill="white"/>
<path fill-rule="evenodd" clip-rule="evenodd" d="M175.066 183.215C173.812 183.215 172.795 182.198 172.795 180.944V163.578C172.795 162.324 173.812 161.307 175.066 161.307C176.321 161.307 177.338 162.324 177.338 163.578V180.944C177.338 182.198 176.321 183.215 175.066 183.215Z" fill="white"/>
<defs>
<filter id="filter0_f_2747_1460" x="-41" y="-99.7046" width="423" height="337.384" filterUnits="userSpaceOnUse" color-interpolation-filters="sRGB">
<feFlood flood-opacity="0" result="BackgroundImageFix"/>
<feBlend mode="normal" in="SourceGraphic" in2="BackgroundImageFix" result="shape"/>
<feGaussianBlur stdDeviation="42" result="effect1_foregroundBlur_2747_1460"/>
</filter>
</defs>
</svg>
