<svg width="342" height="283" viewBox="0 0 342 283" fill="none" xmlns="http://www.w3.org/2000/svg">
<rect width="342" height="283" rx="12" fill="#0D0900"/>
<mask id="mask0_2747_1319" style="mask-type:alpha" maskUnits="userSpaceOnUse" x="0" y="0" width="342" height="283">
<rect opacity="0.4" width="342" height="283" rx="12" fill="#0D0900"/>
</mask>
<g mask="url(#mask0_2747_1319)">
<g filter="url(#filter0_f_2747_1319)">
<path d="M298 10.019C298 31.0862 209.896 112 177.65 112C145.403 112 43 31.0862 43 10.019C43 -11.0482 145.412 -11 177.659 -11C209.906 -11 298 -11.0482 298 10.019Z" fill="#A8660F"/>
</g>
</g>
<path d="M94.2382 186V185.076L97.1422 182.04C97.5182 181.648 97.7982 181.28 97.9822 180.936C98.1662 180.592 98.2582 180.236 98.2582 179.868C98.2582 179.412 98.1142 179.068 97.8262 178.836C97.5462 178.604 97.1382 178.488 96.6022 178.488C96.1782 178.488 95.7782 178.564 95.4022 178.716C95.0342 178.868 94.6782 179.1 94.3342 179.412L93.9022 178.464C94.2382 178.152 94.6542 177.904 95.1502 177.72C95.6542 177.528 96.1862 177.432 96.7462 177.432C97.6262 177.432 98.3022 177.632 98.7742 178.032C99.2542 178.432 99.4942 179.004 99.4942 179.748C99.4942 180.276 99.3662 180.784 99.1102 181.272C98.8542 181.752 98.4702 182.248 97.9582 182.76L95.4502 185.292V184.956H99.8422V186H94.2382ZM101.17 186.684H100.149L103.294 177H104.314L101.17 186.684ZM107.923 186.108C106.875 186.108 106.067 185.744 105.499 185.016C104.939 184.288 104.659 183.268 104.659 181.956C104.659 180.98 104.803 180.16 105.091 179.496C105.379 178.824 105.787 178.312 106.315 177.96C106.851 177.608 107.495 177.432 108.247 177.432C108.695 177.432 109.143 177.52 109.591 177.696C110.039 177.864 110.415 178.104 110.719 178.416L110.275 179.352C109.979 179.064 109.655 178.848 109.303 178.704C108.951 178.56 108.595 178.488 108.235 178.488C107.459 178.488 106.867 178.76 106.459 179.304C106.051 179.84 105.847 180.644 105.847 181.716V182.736H105.727C105.783 182.304 105.919 181.932 106.135 181.62C106.351 181.3 106.631 181.056 106.975 180.888C107.319 180.72 107.703 180.636 108.127 180.636C108.631 180.636 109.075 180.752 109.459 180.984C109.851 181.216 110.159 181.536 110.383 181.944C110.607 182.344 110.719 182.804 110.719 183.324C110.719 183.86 110.599 184.34 110.359 184.764C110.119 185.188 109.787 185.52 109.363 185.76C108.947 185.992 108.467 186.108 107.923 186.108ZM107.851 185.1C108.187 185.1 108.479 185.028 108.727 184.884C108.983 184.74 109.183 184.54 109.327 184.284C109.471 184.02 109.543 183.716 109.543 183.372C109.543 183.028 109.471 182.728 109.327 182.472C109.183 182.216 108.983 182.016 108.727 181.872C108.479 181.72 108.187 181.644 107.851 181.644C107.515 181.644 107.219 181.72 106.963 181.872C106.707 182.016 106.507 182.216 106.363 182.472C106.219 182.728 106.147 183.028 106.147 183.372C106.147 183.716 106.219 184.02 106.363 184.284C106.507 184.54 106.707 184.74 106.963 184.884C107.219 185.028 107.515 185.1 107.851 185.1Z" fill="white"/>
<path d="M115.342 186V181.392C115.342 181.16 115.334 180.924 115.318 180.684C115.302 180.444 115.278 180.204 115.246 179.964H116.302L116.422 181.26H116.278C116.438 180.812 116.694 180.468 117.046 180.228C117.398 179.98 117.818 179.856 118.306 179.856C118.802 179.856 119.21 179.976 119.53 180.216C119.85 180.448 120.066 180.816 120.178 181.32H119.998C120.15 180.872 120.418 180.516 120.802 180.252C121.186 179.988 121.634 179.856 122.146 179.856C122.81 179.856 123.31 180.052 123.646 180.444C123.982 180.828 124.15 181.428 124.15 182.244V186H123.058V182.304C123.058 181.752 122.962 181.356 122.77 181.116C122.578 180.868 122.274 180.744 121.858 180.744C121.37 180.744 120.986 180.912 120.706 181.248C120.426 181.576 120.286 182.024 120.286 182.592V186H119.194V182.304C119.194 181.752 119.098 181.356 118.906 181.116C118.722 180.868 118.418 180.744 117.994 180.744C117.506 180.744 117.122 180.912 116.842 181.248C116.57 181.576 116.434 182.024 116.434 182.592V186H115.342ZM128.683 186.108C127.723 186.108 126.963 185.832 126.403 185.28C125.851 184.728 125.575 183.968 125.575 183C125.575 182.36 125.695 181.808 125.935 181.344C126.183 180.872 126.523 180.508 126.955 180.252C127.387 179.988 127.891 179.856 128.467 179.856C129.019 179.856 129.487 179.976 129.871 180.216C130.255 180.448 130.547 180.78 130.747 181.212C130.947 181.644 131.047 182.156 131.047 182.748V183.108H126.427V182.46H130.303L130.099 182.616C130.099 181.992 129.959 181.508 129.679 181.164C129.407 180.82 129.003 180.648 128.467 180.648C127.883 180.648 127.431 180.852 127.111 181.26C126.791 181.66 126.631 182.208 126.631 182.904V183.012C126.631 183.748 126.811 184.304 127.171 184.68C127.539 185.056 128.047 185.244 128.695 185.244C129.055 185.244 129.391 185.192 129.703 185.088C130.015 184.984 130.315 184.812 130.603 184.572L130.963 185.328C130.691 185.576 130.351 185.768 129.943 185.904C129.543 186.04 129.123 186.108 128.683 186.108ZM134.719 186.108C134.087 186.108 133.607 185.936 133.279 185.592C132.959 185.24 132.799 184.712 132.799 184.008V180.804H131.623V179.964H132.799V178.344L133.891 178.044V179.964H135.595V180.804H133.891V183.912C133.891 184.376 133.971 184.708 134.131 184.908C134.299 185.1 134.539 185.196 134.851 185.196C135.011 185.196 135.147 185.184 135.259 185.16C135.379 185.128 135.487 185.092 135.583 185.052V185.952C135.463 186 135.323 186.036 135.163 186.06C135.011 186.092 134.863 186.108 134.719 186.108ZM136.728 186V181.44C136.728 181.2 136.72 180.956 136.704 180.708C136.696 180.452 136.676 180.204 136.644 179.964H137.7L137.832 181.476L137.652 181.488C137.732 181.12 137.868 180.816 138.06 180.576C138.26 180.328 138.496 180.148 138.768 180.036C139.048 179.916 139.336 179.856 139.632 179.856C139.76 179.856 139.868 179.86 139.956 179.868C140.044 179.876 140.132 179.896 140.22 179.928L140.196 180.9C140.076 180.852 139.964 180.824 139.86 180.816C139.764 180.8 139.644 180.792 139.5 180.792C139.148 180.792 138.844 180.872 138.588 181.032C138.34 181.192 138.148 181.404 138.012 181.668C137.884 181.932 137.82 182.216 137.82 182.52V186H136.728ZM141.182 186V179.964H142.274V186H141.182ZM141.086 178.644V177.468H142.382V178.644H141.086ZM146.692 186.108C146.092 186.108 145.572 185.984 145.132 185.736C144.692 185.48 144.348 185.116 144.1 184.644C143.86 184.164 143.74 183.596 143.74 182.94C143.74 182.292 143.864 181.74 144.112 181.284C144.36 180.82 144.704 180.468 145.144 180.228C145.584 179.98 146.1 179.856 146.692 179.856C147.084 179.856 147.464 179.924 147.832 180.06C148.2 180.188 148.5 180.376 148.732 180.624L148.36 181.392C148.128 181.168 147.872 181.004 147.592 180.9C147.312 180.788 147.036 180.732 146.764 180.732C146.172 180.732 145.708 180.924 145.372 181.308C145.036 181.684 144.868 182.232 144.868 182.952C144.868 183.68 145.036 184.24 145.372 184.632C145.708 185.024 146.172 185.22 146.764 185.22C147.028 185.22 147.3 185.168 147.58 185.064C147.86 184.96 148.12 184.796 148.36 184.572L148.732 185.328C148.492 185.584 148.184 185.78 147.808 185.916C147.44 186.044 147.068 186.108 146.692 186.108ZM152.104 186.108C151.616 186.108 151.16 186.044 150.736 185.916C150.32 185.788 149.976 185.604 149.704 185.364L150.052 184.608C150.348 184.832 150.672 185.004 151.024 185.124C151.384 185.236 151.752 185.292 152.128 185.292C152.584 185.292 152.928 185.208 153.16 185.04C153.4 184.872 153.52 184.648 153.52 184.368C153.52 184.144 153.444 183.964 153.292 183.828C153.14 183.692 152.9 183.592 152.572 183.528L151.432 183.3C150.92 183.18 150.532 182.988 150.268 182.724C150.012 182.452 149.884 182.104 149.884 181.68C149.884 181.328 149.98 181.016 150.172 180.744C150.364 180.464 150.636 180.248 150.988 180.096C151.348 179.936 151.768 179.856 152.248 179.856C152.688 179.856 153.096 179.92 153.472 180.048C153.856 180.176 154.172 180.364 154.42 180.612L154.06 181.344C153.812 181.128 153.532 180.964 153.22 180.852C152.916 180.732 152.604 180.672 152.284 180.672C151.82 180.672 151.476 180.764 151.252 180.948C151.028 181.124 150.916 181.356 150.916 181.644C150.916 181.86 150.984 182.04 151.12 182.184C151.256 182.32 151.476 182.424 151.78 182.496L152.92 182.724C153.456 182.836 153.86 183.02 154.132 183.276C154.404 183.532 154.54 183.872 154.54 184.296C154.54 184.672 154.436 184.996 154.228 185.268C154.028 185.54 153.744 185.748 153.376 185.892C153.016 186.036 152.592 186.108 152.104 186.108ZM160.825 186L158.569 179.964H159.709L161.533 185.136H161.221L163.093 179.964H163.981L165.841 185.136H165.541L167.377 179.964H168.469L166.201 186H165.169L163.249 180.744H163.777L161.869 186H160.825ZM169.658 186V179.964H170.75V186H169.658ZM169.562 178.644V177.468H170.858V178.644H169.562ZM174.832 186.108C174.2 186.108 173.72 185.936 173.392 185.592C173.072 185.24 172.912 184.712 172.912 184.008V180.804H171.736V179.964H172.912V178.344L174.004 178.044V179.964H175.708V180.804H174.004V183.912C174.004 184.376 174.084 184.708 174.244 184.908C174.412 185.1 174.652 185.196 174.964 185.196C175.124 185.196 175.26 185.184 175.372 185.16C175.492 185.128 175.6 185.092 175.696 185.052V185.952C175.576 186 175.436 186.036 175.276 186.06C175.124 186.092 174.976 186.108 174.832 186.108ZM176.853 186V177.168H177.945V181.272H177.789C177.965 180.808 178.249 180.456 178.641 180.216C179.033 179.976 179.485 179.856 179.997 179.856C180.725 179.856 181.261 180.052 181.605 180.444C181.957 180.836 182.133 181.428 182.133 182.22V186H181.041V182.28C181.041 181.744 180.937 181.356 180.729 181.116C180.521 180.868 180.181 180.744 179.709 180.744C179.181 180.744 178.753 180.908 178.425 181.236C178.105 181.564 177.945 182 177.945 182.544V186H176.853ZM183.92 186V179.964H185.012V186H183.92ZM183.824 178.644V177.468H185.12V178.644H183.824ZM186.838 186V181.392C186.838 181.16 186.83 180.924 186.814 180.684C186.798 180.444 186.774 180.204 186.742 179.964H187.798L187.918 181.26H187.774C187.958 180.804 188.242 180.456 188.626 180.216C189.01 179.976 189.458 179.856 189.97 179.856C190.682 179.856 191.218 180.052 191.578 180.444C191.938 180.828 192.118 181.428 192.118 182.244V186H191.026V182.304C191.026 181.752 190.918 181.356 190.702 181.116C190.486 180.868 190.15 180.744 189.694 180.744C189.15 180.744 188.718 180.908 188.398 181.236C188.086 181.564 187.93 182.008 187.93 182.568V186H186.838ZM199.324 186.108C198.692 186.108 198.212 185.936 197.884 185.592C197.564 185.24 197.404 184.712 197.404 184.008V180.804H196.228V179.964H197.404V178.344L198.496 178.044V179.964H200.2V180.804H198.496V183.912C198.496 184.376 198.576 184.708 198.736 184.908C198.904 185.1 199.144 185.196 199.456 185.196C199.616 185.196 199.752 185.184 199.864 185.16C199.984 185.128 200.092 185.092 200.188 185.052V185.952C200.068 186 199.928 186.036 199.768 186.06C199.616 186.092 199.468 186.108 199.324 186.108ZM201.346 186V177.168H202.438V181.272H202.282C202.458 180.808 202.742 180.456 203.134 180.216C203.526 179.976 203.978 179.856 204.49 179.856C205.218 179.856 205.754 180.052 206.098 180.444C206.45 180.836 206.626 181.428 206.626 182.22V186H205.534V182.28C205.534 181.744 205.43 181.356 205.222 181.116C205.014 180.868 204.674 180.744 204.202 180.744C203.674 180.744 203.246 180.908 202.918 181.236C202.598 181.564 202.438 182 202.438 182.544V186H201.346ZM211.16 186.108C210.2 186.108 209.44 185.832 208.88 185.28C208.328 184.728 208.052 183.968 208.052 183C208.052 182.36 208.172 181.808 208.412 181.344C208.66 180.872 209 180.508 209.432 180.252C209.864 179.988 210.368 179.856 210.944 179.856C211.496 179.856 211.964 179.976 212.348 180.216C212.732 180.448 213.024 180.78 213.224 181.212C213.424 181.644 213.524 182.156 213.524 182.748V183.108H208.904V182.46H212.78L212.576 182.616C212.576 181.992 212.436 181.508 212.156 181.164C211.884 180.82 211.48 180.648 210.944 180.648C210.36 180.648 209.908 180.852 209.588 181.26C209.268 181.66 209.108 182.208 209.108 182.904V183.012C209.108 183.748 209.288 184.304 209.648 184.68C210.016 185.056 210.524 185.244 211.172 185.244C211.532 185.244 211.868 185.192 212.18 185.088C212.492 184.984 212.792 184.812 213.08 184.572L213.44 185.328C213.168 185.576 212.828 185.768 212.42 185.904C212.02 186.04 211.6 186.108 211.16 186.108ZM218.103 186V181.44C218.103 181.2 218.095 180.956 218.079 180.708C218.071 180.452 218.051 180.204 218.019 179.964H219.075L219.207 181.476L219.027 181.488C219.107 181.12 219.243 180.816 219.435 180.576C219.635 180.328 219.871 180.148 220.143 180.036C220.423 179.916 220.711 179.856 221.007 179.856C221.135 179.856 221.243 179.86 221.331 179.868C221.419 179.876 221.507 179.896 221.595 179.928L221.571 180.9C221.451 180.852 221.339 180.824 221.235 180.816C221.139 180.8 221.019 180.792 220.875 180.792C220.523 180.792 220.219 180.872 219.963 181.032C219.715 181.192 219.523 181.404 219.387 181.668C219.259 181.932 219.195 182.216 219.195 182.52V186H218.103ZM224.802 186.108C224.274 186.108 223.81 185.984 223.41 185.736C223.01 185.488 222.698 185.128 222.474 184.656C222.25 184.184 222.138 183.624 222.138 182.976C222.138 182.328 222.25 181.772 222.474 181.308C222.698 180.836 223.01 180.476 223.41 180.228C223.81 179.98 224.274 179.856 224.802 179.856C225.338 179.856 225.802 179.992 226.194 180.264C226.594 180.528 226.858 180.892 226.986 181.356H226.842L226.974 179.964H228.03C228.006 180.204 227.982 180.444 227.958 180.684C227.942 180.924 227.934 181.16 227.934 181.392V186H226.842V184.62H226.974C226.846 185.076 226.582 185.44 226.182 185.712C225.79 185.976 225.33 186.108 224.802 186.108ZM225.054 185.244C225.598 185.244 226.034 185.052 226.362 184.668C226.69 184.284 226.854 183.72 226.854 182.976C226.854 182.232 226.69 181.672 226.362 181.296C226.034 180.92 225.598 180.732 225.054 180.732C224.51 180.732 224.07 180.92 223.734 181.296C223.406 181.672 223.242 182.232 223.242 182.976C223.242 183.72 223.406 184.284 223.734 184.668C224.062 185.052 224.502 185.244 225.054 185.244ZM229.764 186V181.392C229.764 181.16 229.756 180.924 229.74 180.684C229.724 180.444 229.7 180.204 229.668 179.964H230.724L230.844 181.26H230.7C230.884 180.804 231.168 180.456 231.552 180.216C231.936 179.976 232.384 179.856 232.896 179.856C233.608 179.856 234.144 180.052 234.504 180.444C234.864 180.828 235.044 181.428 235.044 182.244V186H233.952V182.304C233.952 181.752 233.844 181.356 233.628 181.116C233.412 180.868 233.076 180.744 232.62 180.744C232.076 180.744 231.644 180.908 231.324 181.236C231.012 181.564 230.856 182.008 230.856 182.568V186H229.764ZM239.518 188.688C238.99 188.688 238.506 188.624 238.066 188.496C237.626 188.368 237.23 188.172 236.878 187.908L237.166 187.104C237.414 187.272 237.658 187.408 237.898 187.512C238.138 187.616 238.386 187.692 238.642 187.74C238.906 187.788 239.178 187.812 239.458 187.812C240.05 187.812 240.494 187.66 240.79 187.356C241.086 187.052 241.234 186.62 241.234 186.06V184.368H241.354C241.226 184.824 240.962 185.188 240.562 185.46C240.17 185.724 239.706 185.856 239.17 185.856C238.626 185.856 238.15 185.736 237.742 185.496C237.342 185.248 237.03 184.9 236.806 184.452C236.582 183.996 236.47 183.464 236.47 182.856C236.47 182.24 236.582 181.708 236.806 181.26C237.03 180.812 237.342 180.468 237.742 180.228C238.15 179.98 238.626 179.856 239.17 179.856C239.706 179.856 240.17 179.988 240.562 180.252C240.954 180.516 241.214 180.88 241.342 181.344L241.234 181.236L241.342 179.964H242.398C242.374 180.204 242.35 180.444 242.326 180.684C242.31 180.924 242.302 181.16 242.302 181.392V185.928C242.302 186.824 242.066 187.508 241.594 187.98C241.13 188.452 240.438 188.688 239.518 188.688ZM239.41 184.992C239.962 184.992 240.402 184.804 240.73 184.428C241.058 184.052 241.222 183.528 241.222 182.856C241.222 182.176 241.058 181.652 240.73 181.284C240.402 180.916 239.962 180.732 239.41 180.732C238.85 180.732 238.402 180.916 238.066 181.284C237.738 181.652 237.574 182.176 237.574 182.856C237.574 183.528 237.738 184.052 238.066 184.428C238.402 184.804 238.85 184.992 239.41 184.992ZM246.879 186.108C245.919 186.108 245.159 185.832 244.599 185.28C244.047 184.728 243.771 183.968 243.771 183C243.771 182.36 243.891 181.808 244.131 181.344C244.379 180.872 244.719 180.508 245.151 180.252C245.583 179.988 246.087 179.856 246.663 179.856C247.215 179.856 247.683 179.976 248.067 180.216C248.451 180.448 248.743 180.78 248.943 181.212C249.143 181.644 249.243 182.156 249.243 182.748V183.108H244.623V182.46H248.499L248.295 182.616C248.295 181.992 248.155 181.508 247.875 181.164C247.603 180.82 247.199 180.648 246.663 180.648C246.079 180.648 245.627 180.852 245.307 181.26C244.987 181.66 244.827 182.208 244.827 182.904V183.012C244.827 183.748 245.007 184.304 245.367 184.68C245.735 185.056 246.243 185.244 246.891 185.244C247.251 185.244 247.587 185.192 247.899 185.088C248.211 184.984 248.511 184.812 248.799 184.572L249.159 185.328C248.887 185.576 248.547 185.768 248.139 185.904C247.739 186.04 247.319 186.108 246.879 186.108Z" fill="#848485"/>
<path d="M57.976 36L55.416 31.552H54.024V36H52.2V24.88H56.04C56.8933 24.88 57.6133 25.0293 58.2 25.328C58.7973 25.6267 59.24 26.0267 59.528 26.528C59.8267 27.0293 59.976 27.5893 59.976 28.208C59.976 28.9333 59.7627 29.5947 59.336 30.192C58.92 30.7787 58.2747 31.1787 57.4 31.392L60.152 36H57.976ZM54.024 30.096H56.04C56.7227 30.096 57.2347 29.9253 57.576 29.584C57.928 29.2427 58.104 28.784 58.104 28.208C58.104 27.632 57.9333 27.184 57.592 26.864C57.2507 26.5333 56.7333 26.368 56.04 26.368H54.024V30.096ZM70.3894 31.376C70.3894 31.7067 70.368 32.0053 70.3254 32.272H63.5894C63.6427 32.976 63.904 33.5413 64.3734 33.968C64.8427 34.3947 65.4187 34.608 66.1014 34.608C67.0827 34.608 67.776 34.1973 68.1814 33.376H70.1494C69.8827 34.1867 69.3974 34.8533 68.6934 35.376C68 35.888 67.136 36.144 66.1014 36.144C65.2587 36.144 64.5014 35.9573 63.8294 35.584C63.168 35.2 62.6454 34.6667 62.2614 33.984C61.888 33.2907 61.7014 32.4907 61.7014 31.584C61.7014 30.6773 61.8827 29.8827 62.2454 29.2C62.6187 28.5067 63.136 27.9733 63.7974 27.6C64.4694 27.2267 65.2374 27.04 66.1014 27.04C66.9334 27.04 67.6747 27.2213 68.3254 27.584C68.976 27.9467 69.4827 28.4587 69.8454 29.12C70.208 29.7707 70.3894 30.5227 70.3894 31.376ZM68.4854 30.8C68.4747 30.128 68.2347 29.5893 67.7654 29.184C67.296 28.7787 66.7147 28.576 66.0214 28.576C65.392 28.576 64.8534 28.7787 64.4054 29.184C63.9574 29.5787 63.6907 30.1173 63.6054 30.8H68.4854ZM71.5764 31.584C71.5764 30.6773 71.7577 29.8827 72.1204 29.2C72.4937 28.5067 73.0057 27.9733 73.6564 27.6C74.307 27.2267 75.0537 27.04 75.8964 27.04C76.963 27.04 77.843 27.296 78.5364 27.808C79.2404 28.3093 79.715 29.0293 79.9604 29.968H77.9924C77.8324 29.5307 77.5764 29.1893 77.2244 28.944C76.8724 28.6987 76.4297 28.576 75.8964 28.576C75.1497 28.576 74.5524 28.8427 74.1044 29.376C73.667 29.8987 73.4484 30.6347 73.4484 31.584C73.4484 32.5333 73.667 33.2747 74.1044 33.808C74.5524 34.3413 75.1497 34.608 75.8964 34.608C76.9524 34.608 77.651 34.144 77.9924 33.216H79.9604C79.7044 34.112 79.2244 34.8267 78.5204 35.36C77.8164 35.8827 76.9417 36.144 75.8964 36.144C75.0537 36.144 74.307 35.9573 73.6564 35.584C73.0057 35.2 72.4937 34.6667 72.1204 33.984C71.7577 33.2907 71.5764 32.4907 71.5764 31.584ZM85.6021 36.144C84.7701 36.144 84.0181 35.9573 83.3461 35.584C82.6741 35.2 82.1461 34.6667 81.7621 33.984C81.3781 33.2907 81.1861 32.4907 81.1861 31.584C81.1861 30.688 81.3835 29.8933 81.7781 29.2C82.1728 28.5067 82.7115 27.9733 83.3941 27.6C84.0768 27.2267 84.8395 27.04 85.6821 27.04C86.5248 27.04 87.2875 27.2267 87.9701 27.6C88.6528 27.9733 89.1915 28.5067 89.5861 29.2C89.9808 29.8933 90.1781 30.688 90.1781 31.584C90.1781 32.48 89.9755 33.2747 89.5701 33.968C89.1648 34.6613 88.6101 35.2 87.9061 35.584C87.2128 35.9573 86.4448 36.144 85.6021 36.144ZM85.6021 34.56C86.0715 34.56 86.5088 34.448 86.9141 34.224C87.3301 34 87.6661 33.664 87.9221 33.216C88.1781 32.768 88.3061 32.224 88.3061 31.584C88.3061 30.944 88.1835 30.4053 87.9381 29.968C87.6928 29.52 87.3675 29.184 86.9621 28.96C86.5568 28.736 86.1195 28.624 85.6501 28.624C85.1808 28.624 84.7435 28.736 84.3381 28.96C83.9435 29.184 83.6288 29.52 83.3941 29.968C83.1595 30.4053 83.0421 30.944 83.0421 31.584C83.0421 32.5333 83.2821 33.2693 83.7621 33.792C84.2528 34.304 84.8661 34.56 85.6021 34.56ZM95.3893 34.368L97.8853 27.184H99.8212L96.4613 36H94.2853L90.9413 27.184H92.8932L95.3893 34.368ZM109.28 31.376C109.28 31.7067 109.259 32.0053 109.216 32.272H102.48C102.533 32.976 102.795 33.5413 103.264 33.968C103.733 34.3947 104.309 34.608 104.992 34.608C105.973 34.608 106.667 34.1973 107.072 33.376H109.04C108.773 34.1867 108.288 34.8533 107.584 35.376C106.891 35.888 106.027 36.144 104.992 36.144C104.149 36.144 103.392 35.9573 102.72 35.584C102.059 35.2 101.536 34.6667 101.152 33.984C100.779 33.2907 100.592 32.4907 100.592 31.584C100.592 30.6773 100.773 29.8827 101.136 29.2C101.509 28.5067 102.027 27.9733 102.688 27.6C103.36 27.2267 104.128 27.04 104.992 27.04C105.824 27.04 106.565 27.2213 107.216 27.584C107.867 27.9467 108.373 28.4587 108.736 29.12C109.099 29.7707 109.28 30.5227 109.28 31.376ZM107.376 30.8C107.365 30.128 107.125 29.5893 106.656 29.184C106.187 28.7787 105.605 28.576 104.912 28.576C104.283 28.576 103.744 28.7787 103.296 29.184C102.848 29.5787 102.581 30.1173 102.496 30.8H107.376ZM112.899 28.464C113.166 28.016 113.518 27.6693 113.955 27.424C114.403 27.168 114.931 27.04 115.539 27.04V28.928H115.075C114.36 28.928 113.816 29.1093 113.443 29.472C113.08 29.8347 112.899 30.464 112.899 31.36V36H111.075V27.184H112.899V28.464ZM125.152 27.184L119.744 40.144H117.856L119.648 35.856L116.176 27.184H118.208L120.688 33.904L123.264 27.184H125.152Z" fill="white"/>
<path d="M317.713 29.9998L311.703 23.9898L310.288 25.4028L314.888 29.9998L310.288 34.5958L311.702 36.0098L317.713 29.9998Z" fill="white"/>
<rect x="16" y="16" width="28" height="28" rx="14" fill="#484848" fill-opacity="0.12"/>
<g clip-path="url(#clip0_2747_1319)">
<path d="M32.3333 24.6042C32.3333 25.8659 30.6883 27.4339 29.8687 28.0913C29.7405 28.1941 29.581 28.2502 29.4167 28.2502C29.2523 28.2502 29.0928 28.1941 28.9646 28.0913C28.145 27.4333 26.5 25.8659 26.5 24.6042C26.4816 24.1983 26.6247 23.8017 26.898 23.501C27.1713 23.2004 27.5525 23.0203 27.9583 23C28.3641 23.0203 28.7454 23.2004 29.0187 23.501C29.292 23.8017 29.4351 24.1983 29.4167 24.6042C29.3983 24.1983 29.5414 23.8017 29.8147 23.501C30.088 23.2004 30.4692 23.0203 30.875 23C31.2808 23.0203 31.662 23.2004 31.9353 23.501C32.2086 23.8017 32.3517 24.1983 32.3333 24.6042ZM36.6138 30.2042L32.1222 35.1094C31.5753 35.7057 30.9104 36.1817 30.1697 36.5072C29.4289 36.8327 28.6286 37.0005 27.8195 37H25.3333C24.7145 37 24.121 36.7542 23.6834 36.3166C23.2458 35.879 23 35.2855 23 34.6667V31.75C23 31.1312 23.2458 30.5377 23.6834 30.1001C24.121 29.6625 24.7145 29.4167 25.3333 29.4167H29.8757C30.0686 29.417 30.2589 29.4605 30.4327 29.5439C30.6066 29.6273 30.7596 29.7485 30.8806 29.8986C31.0016 30.0487 31.0875 30.224 31.1321 30.4116C31.1766 30.5992 31.1787 30.7944 31.1381 30.9829C31.0749 31.2466 30.9327 31.4847 30.7304 31.6653C30.5282 31.8458 30.2755 31.9603 30.0064 31.9933L27.578 32.3333C27.4249 32.3553 27.2869 32.4371 27.1941 32.5608C27.1014 32.6845 27.0615 32.84 27.0833 32.9931C27.1051 33.1462 27.1869 33.2845 27.3106 33.3773C27.4344 33.4702 27.5899 33.5101 27.7431 33.4883L30.2234 33.1383C30.8076 33.0523 31.3416 32.7598 31.7287 32.3139C32.1158 31.8679 32.3303 31.2981 32.3333 30.7076C32.3305 30.5827 32.3178 30.4583 32.2954 30.3354L34.3616 28.1555C34.634 27.8605 35.0122 27.6852 35.4134 27.6681C35.8146 27.6509 36.2063 27.7932 36.503 28.0639C36.7982 28.3344 36.9752 28.7101 36.9959 29.1099C37.0166 29.5097 36.8794 29.9017 36.6138 30.2013V30.2042Z" fill="white"/>
</g>
<path d="M158.205 99.3778C156.262 99.3778 154.535 99.045 153.024 98.3793C151.521 97.7135 150.334 96.7869 149.461 95.5994C148.589 94.4119 148.125 93.04 148.071 91.4837H153.145C153.19 92.2304 153.437 92.8826 153.887 93.4403C154.337 93.9891 154.935 94.4164 155.682 94.7223C156.429 95.0282 157.265 95.1811 158.192 95.1811C159.182 95.1811 160.059 95.0102 160.823 94.6683C161.588 94.3175 162.186 93.8317 162.618 93.2109C163.05 92.5902 163.261 91.875 163.252 91.0653C163.261 90.2287 163.045 89.491 162.605 88.8523C162.164 88.2135 161.525 87.7143 160.688 87.3544C159.861 86.9946 158.862 86.8146 157.693 86.8146H155.25V82.9553H157.693C158.655 82.9553 159.496 82.7888 160.216 82.456C160.945 82.1231 161.516 81.6553 161.93 81.0526C162.344 80.4408 162.546 79.7346 162.537 78.9339C162.546 78.1513 162.371 77.4721 162.011 76.8963C161.66 76.3116 161.161 75.8572 160.513 75.5334C159.874 75.2095 159.123 75.0476 158.259 75.0476C157.414 75.0476 156.631 75.2005 155.911 75.5064C155.192 75.8123 154.611 76.2486 154.171 76.8153C153.73 77.3731 153.496 78.0388 153.469 78.8125H148.651C148.687 77.2652 149.133 75.9067 149.987 74.7372C150.851 73.5587 152.003 72.6411 153.442 71.9844C154.881 71.3187 156.496 70.9858 158.286 70.9858C160.131 70.9858 161.732 71.3321 163.09 72.0249C164.458 72.7086 165.515 73.6307 166.262 74.7912C167.008 75.9517 167.382 77.2337 167.382 78.6371C167.391 80.1934 166.932 81.4979 166.005 82.5504C165.088 83.603 163.882 84.2912 162.389 84.6151V84.831C164.332 85.1009 165.821 85.8205 166.855 86.9901C167.899 88.1506 168.416 89.5945 168.407 91.3217C168.407 92.8691 167.966 94.2545 167.085 95.478C166.212 96.6925 165.007 97.6461 163.468 98.3388C161.939 99.0315 160.185 99.3778 158.205 99.3778ZM182.494 99.5263C180.272 99.5263 178.365 98.964 176.773 97.8395C175.189 96.706 173.97 95.0732 173.116 92.9411C172.27 90.8 171.847 88.2225 171.847 85.2088C171.856 82.1951 172.284 79.6312 173.129 77.517C173.984 75.3939 175.203 73.7746 176.786 72.6591C178.379 71.5436 180.281 70.9858 182.494 70.9858C184.707 70.9858 186.61 71.5436 188.202 72.6591C189.795 73.7746 191.014 75.3939 191.859 77.517C192.714 79.6402 193.141 82.2041 193.141 85.2088C193.141 88.2315 192.714 90.8134 191.859 92.9545C191.014 95.0866 189.795 96.715 188.202 97.8395C186.619 98.964 184.716 99.5263 182.494 99.5263ZM182.494 95.3026C184.222 95.3026 185.584 94.4524 186.583 92.7521C187.591 91.0428 188.094 88.5284 188.094 85.2088C188.094 83.0137 187.865 81.1695 187.406 79.6761C186.947 78.1828 186.3 77.0582 185.463 76.3026C184.626 75.5379 183.637 75.1555 182.494 75.1555C180.776 75.1555 179.418 76.0102 178.419 77.7195C177.42 79.4197 176.917 81.9162 176.908 85.2088C176.899 87.4129 177.119 89.2661 177.569 90.7685C178.028 92.2708 178.675 93.4044 179.512 94.169C180.349 94.9247 181.343 95.3026 182.494 95.3026Z" fill="#FEB900"/>
<rect x="131" y="112" width="79" height="15" rx="4" fill="white" fill-opacity="0.08"/>
<path d="M137.478 123.07C137.351 123.07 137.254 123.037 137.188 122.97C137.121 122.897 137.088 122.793 137.088 122.66V116.3C137.088 116.167 137.121 116.063 137.188 115.99C137.254 115.917 137.341 115.88 137.448 115.88C137.554 115.88 137.631 115.9 137.678 115.94C137.731 115.973 137.791 116.037 137.858 116.13L142.218 121.94H141.978V116.28C141.978 116.153 142.011 116.057 142.078 115.99C142.144 115.917 142.241 115.88 142.368 115.88C142.488 115.88 142.578 115.917 142.638 115.99C142.704 116.057 142.738 116.153 142.738 116.28V122.67C142.738 122.797 142.708 122.897 142.648 122.97C142.594 123.037 142.514 123.07 142.408 123.07C142.308 123.07 142.228 123.05 142.168 123.01C142.108 122.97 142.044 122.907 141.978 122.82L137.628 117.01H137.858V122.66C137.858 122.793 137.824 122.897 137.758 122.97C137.691 123.037 137.598 123.07 137.478 123.07ZM146.57 123.09C146.057 123.09 145.613 122.99 145.24 122.79C144.873 122.583 144.587 122.293 144.38 121.92C144.18 121.547 144.08 121.1 144.08 120.58C144.08 120.073 144.18 119.633 144.38 119.26C144.58 118.88 144.853 118.583 145.2 118.37C145.553 118.157 145.96 118.05 146.42 118.05C146.747 118.05 147.04 118.107 147.3 118.22C147.56 118.327 147.78 118.483 147.96 118.69C148.147 118.897 148.287 119.147 148.38 119.44C148.48 119.733 148.53 120.063 148.53 120.43C148.53 120.537 148.5 120.617 148.44 120.67C148.38 120.717 148.293 120.74 148.18 120.74H144.7V120.21H147.99L147.83 120.34C147.83 119.98 147.777 119.677 147.67 119.43C147.563 119.177 147.407 118.983 147.2 118.85C147 118.717 146.747 118.65 146.44 118.65C146.1 118.65 145.81 118.73 145.57 118.89C145.337 119.043 145.16 119.26 145.04 119.54C144.92 119.813 144.86 120.133 144.86 120.5V120.56C144.86 121.173 145.007 121.64 145.3 121.96C145.6 122.28 146.023 122.44 146.57 122.44C146.797 122.44 147.02 122.41 147.24 122.35C147.467 122.29 147.687 122.19 147.9 122.05C147.993 121.99 148.077 121.963 148.15 121.97C148.23 121.97 148.293 121.993 148.34 122.04C148.387 122.08 148.417 122.133 148.43 122.2C148.45 122.26 148.443 122.327 148.41 122.4C148.383 122.473 148.327 122.537 148.24 122.59C148.02 122.75 147.76 122.873 147.46 122.96C147.16 123.047 146.863 123.09 146.57 123.09ZM151.892 123.09C151.379 123.09 150.936 122.99 150.562 122.79C150.196 122.583 149.909 122.293 149.702 121.92C149.502 121.547 149.402 121.1 149.402 120.58C149.402 120.073 149.502 119.633 149.702 119.26C149.902 118.88 150.176 118.583 150.522 118.37C150.876 118.157 151.282 118.05 151.742 118.05C152.069 118.05 152.362 118.107 152.622 118.22C152.882 118.327 153.102 118.483 153.282 118.69C153.469 118.897 153.609 119.147 153.702 119.44C153.802 119.733 153.852 120.063 153.852 120.43C153.852 120.537 153.822 120.617 153.762 120.67C153.702 120.717 153.616 120.74 153.502 120.74H150.022V120.21H153.312L153.152 120.34C153.152 119.98 153.099 119.677 152.992 119.43C152.886 119.177 152.729 118.983 152.522 118.85C152.322 118.717 152.069 118.65 151.762 118.65C151.422 118.65 151.132 118.73 150.892 118.89C150.659 119.043 150.482 119.26 150.362 119.54C150.242 119.813 150.182 120.133 150.182 120.5V120.56C150.182 121.173 150.329 121.64 150.622 121.96C150.922 122.28 151.346 122.44 151.892 122.44C152.119 122.44 152.342 122.41 152.562 122.35C152.789 122.29 153.009 122.19 153.222 122.05C153.316 121.99 153.399 121.963 153.472 121.97C153.552 121.97 153.616 121.993 153.662 122.04C153.709 122.08 153.739 122.133 153.752 122.2C153.772 122.26 153.766 122.327 153.732 122.4C153.706 122.473 153.649 122.537 153.562 122.59C153.342 122.75 153.082 122.873 152.782 122.96C152.482 123.047 152.186 123.09 151.892 123.09ZM156.875 123.09C156.441 123.09 156.061 122.987 155.735 122.78C155.415 122.573 155.165 122.283 154.985 121.91C154.811 121.53 154.725 121.083 154.725 120.57C154.725 120.05 154.811 119.603 154.985 119.23C155.165 118.85 155.415 118.56 155.735 118.36C156.061 118.153 156.441 118.05 156.875 118.05C157.315 118.05 157.691 118.16 158.005 118.38C158.318 118.6 158.528 118.897 158.635 119.27H158.525V116.29C158.525 116.157 158.558 116.057 158.625 115.99C158.698 115.917 158.801 115.88 158.935 115.88C159.061 115.88 159.158 115.917 159.225 115.99C159.298 116.057 159.335 116.157 159.335 116.29V122.65C159.335 122.783 159.301 122.887 159.235 122.96C159.168 123.033 159.068 123.07 158.935 123.07C158.808 123.07 158.708 123.033 158.635 122.96C158.568 122.887 158.535 122.783 158.535 122.65V121.7L158.645 121.84C158.538 122.22 158.325 122.523 158.005 122.75C157.691 122.977 157.315 123.09 156.875 123.09ZM157.045 122.44C157.345 122.44 157.608 122.367 157.835 122.22C158.061 122.073 158.235 121.86 158.355 121.58C158.481 121.3 158.545 120.963 158.545 120.57C158.545 119.963 158.408 119.5 158.135 119.18C157.868 118.86 157.505 118.7 157.045 118.7C156.738 118.7 156.471 118.773 156.245 118.92C156.025 119.06 155.851 119.27 155.725 119.55C155.605 119.823 155.545 120.163 155.545 120.57C155.545 121.17 155.681 121.633 155.955 121.96C156.228 122.28 156.591 122.44 157.045 122.44ZM163.393 123.07C163.286 123.07 163.2 123.047 163.133 123C163.073 122.947 163.036 122.88 163.023 122.8C163.016 122.713 163.036 122.617 163.083 122.51L165.833 116.25C165.893 116.117 165.963 116.023 166.043 115.97C166.13 115.91 166.223 115.88 166.323 115.88C166.423 115.88 166.513 115.91 166.593 115.97C166.68 116.023 166.75 116.117 166.803 116.25L169.563 122.51C169.616 122.617 169.636 122.713 169.623 122.8C169.616 122.887 169.583 122.953 169.523 123C169.463 123.047 169.38 123.07 169.273 123.07C169.153 123.07 169.056 123.04 168.983 122.98C168.91 122.913 168.85 122.82 168.803 122.7L168.063 120.99L168.463 121.2H164.163L164.573 120.99L163.843 122.7C163.783 122.827 163.72 122.92 163.653 122.98C163.586 123.04 163.5 123.07 163.393 123.07ZM166.313 116.91L164.703 120.7L164.463 120.51H168.163L167.943 120.7L166.333 116.91H166.313ZM172.551 123.09C172.171 123.09 171.851 123.023 171.591 122.89C171.337 122.75 171.147 122.55 171.021 122.29C170.894 122.023 170.831 121.7 170.831 121.32V118.77H170.161C170.047 118.77 169.961 118.743 169.901 118.69C169.841 118.63 169.811 118.55 169.811 118.45C169.811 118.35 169.841 118.273 169.901 118.22C169.961 118.167 170.047 118.14 170.161 118.14H170.831V116.99C170.831 116.857 170.867 116.757 170.941 116.69C171.014 116.617 171.114 116.58 171.241 116.58C171.367 116.58 171.464 116.617 171.531 116.69C171.604 116.757 171.641 116.857 171.641 116.99V118.14H172.901C173.014 118.14 173.101 118.167 173.161 118.22C173.221 118.273 173.251 118.35 173.251 118.45C173.251 118.55 173.221 118.63 173.161 118.69C173.101 118.743 173.014 118.77 172.901 118.77H171.641V121.24C171.641 121.62 171.721 121.91 171.881 122.11C172.041 122.303 172.301 122.4 172.661 122.4C172.787 122.4 172.894 122.387 172.981 122.36C173.074 122.333 173.151 122.32 173.211 122.32C173.271 122.313 173.321 122.333 173.361 122.38C173.401 122.427 173.421 122.507 173.421 122.62C173.421 122.7 173.404 122.773 173.371 122.84C173.344 122.907 173.294 122.953 173.221 122.98C173.141 123.007 173.034 123.03 172.901 123.05C172.774 123.077 172.657 123.09 172.551 123.09ZM175.92 123.09C175.54 123.09 175.22 123.023 174.96 122.89C174.707 122.75 174.517 122.55 174.39 122.29C174.263 122.023 174.2 121.7 174.2 121.32V118.77H173.53C173.417 118.77 173.33 118.743 173.27 118.69C173.21 118.63 173.18 118.55 173.18 118.45C173.18 118.35 173.21 118.273 173.27 118.22C173.33 118.167 173.417 118.14 173.53 118.14H174.2V116.99C174.2 116.857 174.237 116.757 174.31 116.69C174.383 116.617 174.483 116.58 174.61 116.58C174.737 116.58 174.833 116.617 174.9 116.69C174.973 116.757 175.01 116.857 175.01 116.99V118.14H176.27C176.383 118.14 176.47 118.167 176.53 118.22C176.59 118.273 176.62 118.35 176.62 118.45C176.62 118.55 176.59 118.63 176.53 118.69C176.47 118.743 176.383 118.77 176.27 118.77H175.01V121.24C175.01 121.62 175.09 121.91 175.25 122.11C175.41 122.303 175.67 122.4 176.03 122.4C176.157 122.4 176.263 122.387 176.35 122.36C176.443 122.333 176.52 122.32 176.58 122.32C176.64 122.313 176.69 122.333 176.73 122.38C176.77 122.427 176.79 122.507 176.79 122.62C176.79 122.7 176.773 122.773 176.74 122.84C176.713 122.907 176.663 122.953 176.59 122.98C176.51 123.007 176.403 123.03 176.27 123.05C176.143 123.077 176.027 123.09 175.92 123.09ZM179.607 123.09C179.094 123.09 178.651 122.99 178.277 122.79C177.911 122.583 177.624 122.293 177.417 121.92C177.217 121.547 177.117 121.1 177.117 120.58C177.117 120.073 177.217 119.633 177.417 119.26C177.617 118.88 177.891 118.583 178.237 118.37C178.591 118.157 178.997 118.05 179.457 118.05C179.784 118.05 180.077 118.107 180.337 118.22C180.597 118.327 180.817 118.483 180.997 118.69C181.184 118.897 181.324 119.147 181.417 119.44C181.517 119.733 181.567 120.063 181.567 120.43C181.567 120.537 181.537 120.617 181.477 120.67C181.417 120.717 181.331 120.74 181.217 120.74H177.737V120.21H181.027L180.867 120.34C180.867 119.98 180.814 119.677 180.707 119.43C180.601 119.177 180.444 118.983 180.237 118.85C180.037 118.717 179.784 118.65 179.477 118.65C179.137 118.65 178.847 118.73 178.607 118.89C178.374 119.043 178.197 119.26 178.077 119.54C177.957 119.813 177.897 120.133 177.897 120.5V120.56C177.897 121.173 178.044 121.64 178.337 121.96C178.637 122.28 179.061 122.44 179.607 122.44C179.834 122.44 180.057 122.41 180.277 122.35C180.504 122.29 180.724 122.19 180.937 122.05C181.031 121.99 181.114 121.963 181.187 121.97C181.267 121.97 181.331 121.993 181.377 122.04C181.424 122.08 181.454 122.133 181.467 122.2C181.487 122.26 181.481 122.327 181.447 122.4C181.421 122.473 181.364 122.537 181.277 122.59C181.057 122.75 180.797 122.873 180.497 122.96C180.197 123.047 179.901 123.09 179.607 123.09ZM183.139 123.07C183.006 123.07 182.906 123.033 182.839 122.96C182.773 122.887 182.739 122.783 182.739 122.65V118.48C182.739 118.347 182.773 118.247 182.839 118.18C182.906 118.107 183.003 118.07 183.129 118.07C183.256 118.07 183.353 118.107 183.419 118.18C183.493 118.247 183.529 118.347 183.529 118.48V119.34L183.419 119.22C183.559 118.833 183.786 118.543 184.099 118.35C184.419 118.15 184.786 118.05 185.199 118.05C185.586 118.05 185.906 118.12 186.159 118.26C186.419 118.4 186.613 118.613 186.739 118.9C186.866 119.18 186.929 119.537 186.929 119.97V122.65C186.929 122.783 186.893 122.887 186.819 122.96C186.753 123.033 186.656 123.07 186.529 123.07C186.396 123.07 186.293 123.033 186.219 122.96C186.153 122.887 186.119 122.783 186.119 122.65V120.02C186.119 119.567 186.029 119.237 185.849 119.03C185.676 118.817 185.396 118.71 185.009 118.71C184.563 118.71 184.206 118.85 183.939 119.13C183.679 119.403 183.549 119.77 183.549 120.23V122.65C183.549 122.93 183.413 123.07 183.139 123.07ZM190.373 123.09C189.993 123.09 189.673 123.023 189.413 122.89C189.16 122.75 188.97 122.55 188.843 122.29C188.716 122.023 188.653 121.7 188.653 121.32V118.77H187.983C187.87 118.77 187.783 118.743 187.723 118.69C187.663 118.63 187.633 118.55 187.633 118.45C187.633 118.35 187.663 118.273 187.723 118.22C187.783 118.167 187.87 118.14 187.983 118.14H188.653V116.99C188.653 116.857 188.69 116.757 188.763 116.69C188.836 116.617 188.936 116.58 189.063 116.58C189.19 116.58 189.286 116.617 189.353 116.69C189.426 116.757 189.463 116.857 189.463 116.99V118.14H190.723C190.836 118.14 190.923 118.167 190.983 118.22C191.043 118.273 191.073 118.35 191.073 118.45C191.073 118.55 191.043 118.63 190.983 118.69C190.923 118.743 190.836 118.77 190.723 118.77H189.463V121.24C189.463 121.62 189.543 121.91 189.703 122.11C189.863 122.303 190.123 122.4 190.483 122.4C190.61 122.4 190.716 122.387 190.803 122.36C190.896 122.333 190.973 122.32 191.033 122.32C191.093 122.313 191.143 122.333 191.183 122.38C191.223 122.427 191.243 122.507 191.243 122.62C191.243 122.7 191.226 122.773 191.193 122.84C191.166 122.907 191.116 122.953 191.043 122.98C190.963 123.007 190.856 123.03 190.723 123.05C190.596 123.077 190.48 123.09 190.373 123.09ZM192.378 123.05C192.244 123.05 192.144 123.013 192.078 122.94C192.011 122.86 191.978 122.75 191.978 122.61V118.52C191.978 118.38 192.011 118.273 192.078 118.2C192.144 118.127 192.244 118.09 192.378 118.09C192.504 118.09 192.604 118.127 192.678 118.2C192.751 118.273 192.788 118.38 192.788 118.52V122.61C192.788 122.75 192.751 122.86 192.678 122.94C192.611 123.013 192.511 123.05 192.378 123.05ZM192.378 116.97C192.211 116.97 192.081 116.927 191.988 116.84C191.894 116.747 191.848 116.623 191.848 116.47C191.848 116.31 191.894 116.19 191.988 116.11C192.081 116.023 192.211 115.98 192.378 115.98C192.551 115.98 192.681 116.023 192.768 116.11C192.861 116.19 192.908 116.31 192.908 116.47C192.908 116.623 192.861 116.747 192.768 116.84C192.681 116.927 192.551 116.97 192.378 116.97ZM196.322 123.09C195.849 123.09 195.439 122.987 195.092 122.78C194.745 122.573 194.475 122.283 194.282 121.91C194.095 121.53 194.002 121.083 194.002 120.57C194.002 120.183 194.055 119.837 194.162 119.53C194.269 119.217 194.425 118.95 194.632 118.73C194.839 118.51 195.082 118.343 195.362 118.23C195.649 118.11 195.969 118.05 196.322 118.05C196.795 118.05 197.205 118.153 197.552 118.36C197.899 118.567 198.165 118.86 198.352 119.24C198.545 119.613 198.642 120.057 198.642 120.57C198.642 120.957 198.589 121.303 198.482 121.61C198.375 121.917 198.219 122.183 198.012 122.41C197.805 122.63 197.559 122.8 197.272 122.92C196.992 123.033 196.675 123.09 196.322 123.09ZM196.322 122.44C196.622 122.44 196.885 122.367 197.112 122.22C197.339 122.073 197.512 121.86 197.632 121.58C197.759 121.3 197.822 120.963 197.822 120.57C197.822 119.963 197.685 119.5 197.412 119.18C197.145 118.86 196.782 118.7 196.322 118.7C196.015 118.7 195.749 118.773 195.522 118.92C195.302 119.06 195.129 119.27 195.002 119.55C194.882 119.823 194.822 120.163 194.822 120.57C194.822 121.17 194.959 121.633 195.232 121.96C195.505 122.28 195.869 122.44 196.322 122.44ZM200.259 123.07C200.125 123.07 200.025 123.033 199.959 122.96C199.892 122.887 199.859 122.783 199.859 122.65V118.48C199.859 118.347 199.892 118.247 199.959 118.18C200.025 118.107 200.122 118.07 200.249 118.07C200.375 118.07 200.472 118.107 200.539 118.18C200.612 118.247 200.649 118.347 200.649 118.48V119.34L200.539 119.22C200.679 118.833 200.905 118.543 201.219 118.35C201.539 118.15 201.905 118.05 202.319 118.05C202.705 118.05 203.025 118.12 203.279 118.26C203.539 118.4 203.732 118.613 203.859 118.9C203.985 119.18 204.049 119.537 204.049 119.97V122.65C204.049 122.783 204.012 122.887 203.939 122.96C203.872 123.033 203.775 123.07 203.649 123.07C203.515 123.07 203.412 123.033 203.339 122.96C203.272 122.887 203.239 122.783 203.239 122.65V120.02C203.239 119.567 203.149 119.237 202.969 119.03C202.795 118.817 202.515 118.71 202.129 118.71C201.682 118.71 201.325 118.85 201.059 119.13C200.799 119.403 200.669 119.77 200.669 120.23V122.65C200.669 122.93 200.532 123.07 200.259 123.07Z" fill="white"/>
<rect x="23" y="237" width="296" height="28" rx="8" fill="white" fill-opacity="0.04"/>
<path d="M55 259C55 259 45.25 253.75 45.25 247.562C45.25 246.22 45.7834 244.932 46.7328 243.983C47.6822 243.033 48.9698 242.5 50.3125 242.5C52.4303 242.5 54.2444 243.654 55 245.5C55.7556 243.654 57.5697 242.5 59.6875 242.5C61.0302 242.5 62.3178 243.033 63.2672 243.983C64.2166 244.932 64.75 246.22 64.75 247.562C64.75 253.75 55 259 55 259Z" fill="white"/>
<path d="M76.4195 255L74.4995 251.664H73.4555V255H72.0875V246.66H74.9675C75.6075 246.66 76.1475 246.772 76.5875 246.996C77.0355 247.22 77.3675 247.52 77.5835 247.896C77.8075 248.272 77.9195 248.692 77.9195 249.156C77.9195 249.7 77.7595 250.196 77.4395 250.644C77.1275 251.084 76.6435 251.384 75.9875 251.544L78.0515 255H76.4195ZM73.4555 250.572H74.9675C75.4795 250.572 75.8635 250.444 76.1195 250.188C76.3835 249.932 76.5155 249.588 76.5155 249.156C76.5155 248.724 76.3875 248.388 76.1315 248.148C75.8755 247.9 75.4875 247.776 74.9675 247.776H73.4555V250.572ZM86.3295 246.66V255H84.9615V251.352H81.0375V255H79.6695V246.66H81.0375V250.236H84.9615V246.66H86.3295ZM92.4625 255L90.5425 251.664H89.4985V255H88.1305V246.66H91.0105C91.6505 246.66 92.1905 246.772 92.6305 246.996C93.0785 247.22 93.4105 247.52 93.6265 247.896C93.8505 248.272 93.9625 248.692 93.9625 249.156C93.9625 249.7 93.8025 250.196 93.4825 250.644C93.1705 251.084 92.6865 251.384 92.0305 251.544L94.0945 255H92.4625ZM89.4985 250.572H91.0105C91.5225 250.572 91.9065 250.444 92.1625 250.188C92.4265 249.932 92.5585 249.588 92.5585 249.156C92.5585 248.724 92.4305 248.388 92.1745 248.148C91.9185 247.9 91.5305 247.776 91.0105 247.776H89.4985V250.572Z" fill="white"/>
<path d="M103.125 251.375L104.25 252.5L106.875 249.875" stroke="#34C759" stroke-linecap="round" stroke-linejoin="round"/>
<path d="M105 255.5C107.485 255.5 109.5 253.485 109.5 251C109.5 248.515 107.485 246.5 105 246.5C102.515 246.5 100.5 248.515 100.5 251C100.5 253.485 102.515 255.5 105 255.5Z" stroke="#34C759" stroke-linecap="round" stroke-linejoin="round"/>
<g clip-path="url(#clip1_2747_1319)">
<path d="M150.875 248.75C151.911 248.75 152.75 247.911 152.75 246.875C152.75 245.839 151.911 245 150.875 245C149.839 245 149 245.839 149 246.875C149 247.911 149.839 248.75 150.875 248.75Z" stroke="white" stroke-linecap="round" stroke-linejoin="round"/>
<path d="M142.25 241.501C142.97 241.501 143.66 241.787 144.169 242.296C144.678 242.805 144.964 243.495 144.964 244.215V251.848C145.794 252.425 146.417 253.253 146.744 254.21C147.071 255.167 147.084 256.203 146.781 257.168C146.479 258.133 145.876 258.976 145.061 259.574C144.246 260.173 143.261 260.495 142.25 260.495C141.239 260.495 140.254 260.173 139.439 259.574C138.624 258.976 138.021 258.133 137.718 257.168C137.415 256.203 137.428 255.167 137.755 254.21C138.082 253.253 138.706 252.425 139.535 251.848V244.215C139.535 243.495 139.822 242.805 140.33 242.296C140.839 241.787 141.53 241.501 142.25 241.501ZM142.248 247.107C141.972 247.108 141.748 247.331 141.748 247.607V253.264C140.588 253.496 139.713 254.521 139.713 255.75C139.713 257.15 140.848 258.285 142.248 258.285C143.648 258.285 144.784 257.15 144.784 255.75C144.784 254.521 143.909 253.496 142.748 253.264V247.607C142.748 247.331 142.524 247.107 142.248 247.107ZM142.248 254.214C143.096 254.214 143.784 254.902 143.784 255.75C143.784 256.598 143.096 257.285 142.248 257.285C141.401 257.285 140.713 256.598 140.713 255.75C140.713 254.902 141.4 254.214 142.248 254.214Z" fill="white"/>
</g>
<path d="M165.397 246.66V247.776H163.177V255H161.809V247.776H159.577V246.66H165.397ZM172.843 251.532C172.843 251.78 172.827 252.004 172.795 252.204H167.743C167.783 252.732 167.979 253.156 168.331 253.476C168.683 253.796 169.115 253.956 169.627 253.956C170.363 253.956 170.883 253.648 171.187 253.032H172.663C172.463 253.64 172.099 254.14 171.571 254.532C171.051 254.916 170.403 255.108 169.627 255.108C168.995 255.108 168.427 254.968 167.923 254.688C167.427 254.4 167.035 254 166.747 253.488C166.467 252.968 166.327 252.368 166.327 251.688C166.327 251.008 166.463 250.412 166.735 249.9C167.015 249.38 167.403 248.98 167.899 248.7C168.403 248.42 168.979 248.28 169.627 248.28C170.251 248.28 170.807 248.416 171.295 248.688C171.783 248.96 172.163 249.344 172.435 249.84C172.707 250.328 172.843 250.892 172.843 251.532ZM171.415 251.1C171.407 250.596 171.227 250.192 170.875 249.888C170.523 249.584 170.087 249.432 169.567 249.432C169.095 249.432 168.691 249.584 168.355 249.888C168.019 250.184 167.819 250.588 167.755 251.1H171.415ZM182.193 248.28C182.713 248.28 183.177 248.388 183.585 248.604C184.001 248.82 184.325 249.14 184.557 249.564C184.797 249.988 184.917 250.5 184.917 251.1V255H183.561V251.304C183.561 250.712 183.413 250.26 183.117 249.948C182.821 249.628 182.417 249.468 181.905 249.468C181.393 249.468 180.985 249.628 180.681 249.948C180.385 250.26 180.237 250.712 180.237 251.304V255H178.881V251.304C178.881 250.712 178.733 250.26 178.437 249.948C178.141 249.628 177.737 249.468 177.225 249.468C176.713 249.468 176.305 249.628 176.001 249.948C175.705 250.26 175.557 250.712 175.557 251.304V255H174.189V248.388H175.557V249.144C175.781 248.872 176.065 248.66 176.409 248.508C176.753 248.356 177.121 248.28 177.513 248.28C178.041 248.28 178.513 248.392 178.929 248.616C179.345 248.84 179.665 249.164 179.889 249.588C180.089 249.188 180.401 248.872 180.825 248.64C181.249 248.4 181.705 248.28 182.193 248.28ZM188.026 249.36C188.258 249.056 188.574 248.8 188.974 248.592C189.374 248.384 189.826 248.28 190.33 248.28C190.906 248.28 191.43 248.424 191.902 248.712C192.382 248.992 192.758 249.388 193.03 249.9C193.302 250.412 193.438 251 193.438 251.664C193.438 252.328 193.302 252.924 193.03 253.452C192.758 253.972 192.382 254.38 191.902 254.676C191.43 254.964 190.906 255.108 190.33 255.108C189.826 255.108 189.378 255.008 188.986 254.808C188.594 254.6 188.274 254.344 188.026 254.04V258.144H186.658V248.388H188.026V249.36ZM192.046 251.664C192.046 251.208 191.95 250.816 191.758 250.488C191.574 250.152 191.326 249.9 191.014 249.732C190.71 249.556 190.382 249.468 190.03 249.468C189.686 249.468 189.358 249.556 189.046 249.732C188.742 249.908 188.494 250.164 188.302 250.5C188.118 250.836 188.026 251.232 188.026 251.688C188.026 252.144 188.118 252.544 188.302 252.888C188.494 253.224 188.742 253.48 189.046 253.656C189.358 253.832 189.686 253.92 190.03 253.92C190.382 253.92 190.71 253.832 191.014 253.656C191.326 253.472 191.574 253.208 191.758 252.864C191.95 252.52 192.046 252.12 192.046 251.664Z" fill="white"/>
<path d="M204 255.5C206.485 255.5 208.5 253.485 208.5 251C208.5 248.515 206.485 246.5 204 246.5C201.515 246.5 199.5 248.515 199.5 251C199.5 253.485 201.515 255.5 204 255.5Z" stroke="#FFCC00" stroke-miterlimit="10"/>
<path d="M204 251.375V248.75" stroke="#FFCC00" stroke-linecap="round" stroke-linejoin="round"/>
<path d="M204 253.25C204.207 253.25 204.375 253.082 204.375 252.875C204.375 252.668 204.207 252.5 204 252.5C203.793 252.5 203.625 252.668 203.625 252.875C203.625 253.082 203.793 253.25 204 253.25Z" fill="#FFCC00"/>
<g clip-path="url(#clip2_2747_1319)">
<path d="M246.688 242.5C248.03 242.5 249.318 243.033 250.268 243.982C251.217 244.932 251.75 246.22 251.75 247.562C251.75 253.75 242 259 242 259C242 259 238.062 256.881 235.195 253.75L234.005 251.25H236.75C236.917 251.25 237.073 251.166 237.166 251.027L238.25 249.401L240.834 253.277C240.927 253.416 241.083 253.5 241.25 253.5C241.417 253.5 241.573 253.416 241.666 253.277L243.018 251.25H245C245.276 251.25 245.5 251.026 245.5 250.75C245.5 250.474 245.276 250.25 245 250.25H242.75C242.604 250.25 242.466 250.314 242.372 250.423L242.334 250.473L241.25 252.099L238.666 248.223C238.573 248.084 238.417 248 238.25 248C238.104 248 237.966 248.064 237.872 248.173L237.834 248.223L236.482 250.25H233.529L232.25 247.562C232.25 246.22 232.783 244.932 233.732 243.982C234.682 243.033 235.97 242.5 237.312 242.5C239.43 242.5 241.244 243.654 242 245.5C242.756 243.654 244.57 242.5 246.688 242.5ZM234.005 251.25H233C232.724 251.25 232.5 251.026 232.5 250.75C232.5 250.474 232.724 250.25 233 250.25H233.529L234.005 251.25Z" fill="white"/>
</g>
<path d="M265.873 246.66V255H264.505V251.352H260.581V255H259.213V246.66H260.581V250.236H264.505V246.66H265.873ZM272.005 255L270.085 251.664H269.041V255H267.673V246.66H270.553C271.193 246.66 271.733 246.772 272.173 246.996C272.621 247.22 272.953 247.52 273.169 247.896C273.393 248.272 273.505 248.692 273.505 249.156C273.505 249.7 273.345 250.196 273.025 250.644C272.713 251.084 272.229 251.384 271.573 251.544L273.637 255H272.005ZM269.041 250.572H270.553C271.065 250.572 271.449 250.444 271.705 250.188C271.969 249.932 272.101 249.588 272.101 249.156C272.101 248.724 271.973 248.388 271.717 248.148C271.461 247.9 271.073 247.776 270.553 247.776H269.041V250.572ZM282.443 246.66L279.311 255H277.727L274.583 246.66H276.047L278.519 253.596L281.003 246.66H282.443Z" fill="white"/>
<path d="M291.125 251.375L292.25 252.5L294.875 249.875" stroke="#34C759" stroke-linecap="round" stroke-linejoin="round"/>
<path d="M293 255.5C295.485 255.5 297.5 253.485 297.5 251C297.5 248.515 295.485 246.5 293 246.5C290.515 246.5 288.5 248.515 288.5 251C288.5 253.485 290.515 255.5 293 255.5Z" stroke="#34C759" stroke-linecap="round" stroke-linejoin="round"/>
<defs>
<filter id="filter0_f_2747_1319" x="-41" y="-95" width="423" height="291" filterUnits="userSpaceOnUse" color-interpolation-filters="sRGB">
<feFlood flood-opacity="0" result="BackgroundImageFix"/>
<feBlend mode="normal" in="SourceGraphic" in2="BackgroundImageFix" result="shape"/>
<feGaussianBlur stdDeviation="42" result="effect1_foregroundBlur_2747_1319"/>
</filter>
<clipPath id="clip0_2747_1319">
<rect width="14" height="14" fill="white" transform="translate(23 23)"/>
</clipPath>
<clipPath id="clip1_2747_1319">
<rect width="24" height="24" fill="white" transform="translate(131 239)"/>
</clipPath>
<clipPath id="clip2_2747_1319">
<rect width="24" height="24" fill="white" transform="translate(230 239)"/>
</clipPath>
</defs>
</svg>
