<svg width="264" height="412" viewBox="0 0 264 412" fill="none" xmlns="http://www.w3.org/2000/svg">
<mask id="path-1-inside-1_59_345" fill="white">
<path fill-rule="evenodd" clip-rule="evenodd" d="M118.572 22.9996C116.289 10.2858 105.878 0 92.9611 0L24 0C10.7452 0 0 10.7452 0 24V388C0 401.255 10.7452 412 24 412H240C253.255 412 264 401.255 264 388V178.229C264 165.819 254.471 155.646 242.376 152.869C179.242 138.374 130.103 87.2133 118.572 22.9996Z"/>
</mask>
<path fill-rule="evenodd" clip-rule="evenodd" d="M118.572 22.9996C116.289 10.2858 105.878 0 92.9611 0L24 0C10.7452 0 0 10.7452 0 24V388C0 401.255 10.7452 412 24 412H240C253.255 412 264 401.255 264 388V178.229C264 165.819 254.471 155.646 242.376 152.869C179.242 138.374 130.103 87.2133 118.572 22.9996Z" fill="#023900"/>
<path fill-rule="evenodd" clip-rule="evenodd" d="M118.572 22.9996C116.289 10.2858 105.878 0 92.9611 0L24 0C10.7452 0 0 10.7452 0 24V388C0 401.255 10.7452 412 24 412H240C253.255 412 264 401.255 264 388V178.229C264 165.819 254.471 155.646 242.376 152.869C179.242 138.374 130.103 87.2133 118.572 22.9996Z" fill="url(#paint0_radial_59_345)"/>
<path d="M242.376 152.869L242.152 153.844L242.376 152.869ZM24 1H92.9611V-1H24V1ZM1 388V24H-1V388H1ZM240 411H24V413H240V411ZM263 178.229V388H265V178.229H263ZM242.6 151.895C179.854 137.489 131.016 86.6405 119.556 22.8228L117.588 23.1763C129.19 87.7862 178.629 139.26 242.152 153.844L242.6 151.895ZM265 178.229C265 165.275 255.068 154.757 242.6 151.895L242.152 153.844C253.874 156.535 263 166.363 263 178.229H265ZM240 413C253.807 413 265 401.807 265 388H263C263 400.703 252.703 411 240 411V413ZM-1 388C-1 401.807 10.1929 413 24 413V411C11.2974 411 1 400.703 1 388H-1ZM92.9611 1C105.311 1 115.375 10.8521 117.588 23.1763L119.556 22.8228C117.203 9.71951 106.446 -1 92.9611 -1V1ZM24 -1C10.1929 -1 -1 10.1929 -1 24H1C1 11.2975 11.2975 1 24 1V-1Z" fill="white" fill-opacity="0.05" mask="url(#path-1-inside-1_59_345)"/>
<defs>
<radialGradient id="paint0_radial_59_345" cx="0" cy="0" r="1" gradientUnits="userSpaceOnUse" gradientTransform="translate(272.5 -18) rotate(124.16) scale(355.297 354.958)">
<stop stop-color="#BCFFBA"/>
<stop offset="1" stop-color="#25B021" stop-opacity="0"/>
</radialGradient>
</defs>
</svg>
