<svg width="52" height="53" viewBox="0 0 52 53" fill="none" xmlns="http://www.w3.org/2000/svg">
<rect y="0.562866" width="52" height="52" rx="8" fill="#131313"/>
<path d="M31 22.3962C31.6454 22.5301 32.1323 22.7534 32.5237 23.1261C33.5 24.0561 33.5 25.5528 33.5 28.5462C33.5 31.5397 33.5 33.0363 32.5237 33.9663C31.5474 34.8962 29.976 34.8962 26.8333 34.8962H25.1667C22.024 34.8962 20.4526 34.8962 19.4763 33.9663C18.5 33.0363 18.5 31.5397 18.5 28.5462C18.5 25.5528 18.5 24.0561 19.4763 23.1261C19.8676 22.7534 20.3546 22.5301 21 22.3962" stroke="white" stroke-width="1.25" stroke-linecap="round"/>
<path d="M26.0211 18.2299L26 28.2295M26.0211 18.2299C25.8856 18.2243 25.7492 18.2728 25.6277 18.3753C24.8724 19.0129 23.5 20.6702 23.5 20.6702M26.0211 18.2299C26.1426 18.235 26.2635 18.2835 26.3723 18.3754C27.1276 19.0131 28.5 20.6702 28.5 20.6702" stroke="white" stroke-width="1.25" stroke-linecap="round" stroke-linejoin="round"/>
</svg>
