<svg width="518" height="1007" viewBox="0 0 518 1007" fill="none" xmlns="http://www.w3.org/2000/svg">
<path d="M0 1H156C169.255 1 180 11.7452 180 25V227C180 240.255 169.255 251 156 251H0" stroke="url(#paint0_linear_4292_1018)" stroke-opacity="0.7"/>
<path d="M0 506H156C169.255 506 180 516.745 180 530V732C180 745.255 169.255 756 156 756H0" stroke="url(#paint1_linear_4292_1018)" stroke-opacity="0.7"/>
<path d="M518 251H362C348.745 251 338 261.745 338 275V477C338 490.255 348.745 501 362 501H518" stroke="url(#paint2_linear_4292_1018)" stroke-opacity="0.7"/>
<line x1="259" y1="880" x2="259" y2="127" stroke="#678032" stroke-width="2" stroke-linecap="round"/>
<circle cx="259" cy="376" r="9" fill="#678032"/>
<circle cx="259" cy="629" r="9" fill="#678032"/>
<circle cx="260" cy="124" r="9" fill="#678032"/>
<path d="M184 124.5L189 127.387L189 121.613L184 124.5ZM188.364 124.5L188.364 125L191.273 125L191.273 124.5L191.273 124L188.364 124L188.364 124.5ZM194.182 124.5L194.182 125L197.091 125L197.091 124.5L197.091 124L194.182 124L194.182 124.5ZM200 124.5L200 125L202.909 125L202.909 124.5L202.909 124L200 124L200 124.5ZM205.818 124.5L205.818 125L208.727 125L208.727 124.5L208.727 124L205.818 124L205.818 124.5ZM211.636 124.5L211.636 125L214.545 125L214.545 124.5L214.545 124L211.636 124L211.636 124.5ZM217.455 124.5L217.455 125L220.364 125L220.364 124.5L220.364 124L217.455 124L217.455 124.5ZM223.273 124.5L223.273 125L226.182 125L226.182 124.5L226.182 124L223.273 124L223.273 124.5ZM229.091 124.5L229.091 125L232 125L232 124.5L232 124L229.091 124L229.091 124.5ZM234.909 124.5L234.909 125L237.818 125L237.818 124.5L237.818 124L234.909 124L234.909 124.5ZM240.727 124.5L240.727 125L243.636 125L243.636 124.5L243.636 124L240.727 124L240.727 124.5ZM246.545 124.5L246.545 125L248 125L248 124.5L248 124L246.545 124L246.545 124.5Z" fill="#61F35D" fill-opacity="0.4"/>
<path d="M184 629L189 631.887L189 626.113L184 629ZM188.364 629L188.364 629.5L191.273 629.5L191.273 629L191.273 628.5L188.364 628.5L188.364 629ZM194.182 629L194.182 629.5L197.091 629.5L197.091 629L197.091 628.5L194.182 628.5L194.182 629ZM200 629L200 629.5L202.909 629.5L202.909 629L202.909 628.5L200 628.5L200 629ZM205.818 629L205.818 629.5L208.727 629.5L208.727 629L208.727 628.5L205.818 628.5L205.818 629ZM211.636 629L211.636 629.5L214.545 629.5L214.545 629L214.545 628.5L211.636 628.5L211.636 629ZM217.455 629L217.455 629.5L220.364 629.5L220.364 629L220.364 628.5L217.455 628.5L217.455 629ZM223.273 629L223.273 629.5L226.182 629.5L226.182 629L226.182 628.5L223.273 628.5L223.273 629ZM229.091 629L229.091 629.5L232 629.5L232 629L232 628.5L229.091 628.5L229.091 629ZM234.909 629L234.909 629.5L237.818 629.5L237.818 629L237.818 628.5L234.909 628.5L234.909 629ZM240.727 629L240.727 629.5L243.636 629.5L243.636 629L243.636 628.5L240.727 628.5L240.727 629ZM246.545 629L246.545 629.5L248 629.5L248 629L248 628.5L246.545 628.5L246.545 629Z" fill="#61F35D" fill-opacity="0.4"/>
<path d="M336 376L331 373.113L331 378.887L336 376ZM331.636 376L331.636 375.5L328.727 375.5L328.727 376L328.727 376.5L331.636 376.5L331.636 376ZM325.818 376L325.818 375.5L322.909 375.5L322.909 376L322.909 376.5L325.818 376.5L325.818 376ZM320 376L320 375.5L317.091 375.5L317.091 376L317.091 376.5L320 376.5L320 376ZM314.182 376L314.182 375.5L311.273 375.5L311.273 376L311.273 376.5L314.182 376.5L314.182 376ZM308.364 376L308.364 375.5L305.455 375.5L305.455 376L305.455 376.5L308.364 376.5L308.364 376ZM302.545 376L302.545 375.5L299.636 375.5L299.636 376L299.636 376.5L302.545 376.5L302.545 376ZM296.727 376L296.727 375.5L293.818 375.5L293.818 376L293.818 376.5L296.727 376.5L296.727 376ZM290.909 376L290.909 375.5L288 375.5L288 376L288 376.5L290.909 376.5L290.909 376ZM285.091 376L285.091 375.5L282.182 375.5L282.182 376L282.182 376.5L285.091 376.5L285.091 376ZM279.273 376L279.273 375.5L276.364 375.5L276.364 376L276.364 376.5L279.273 376.5L279.273 376ZM273.455 376L273.455 375.5L272 375.5L272 376L272 376.5L273.455 376.5L273.455 376Z" fill="#61F35D" fill-opacity="0.4"/>
<path d="M518 756H362C348.745 756 338 766.745 338 780V982C338 995.255 348.745 1006 362 1006H518" stroke="url(#paint3_linear_4292_1018)" stroke-opacity="0.7"/>
<circle cx="258" cy="881" r="9" fill="#678032"/>
<path d="M330 881L325 878.113L325 883.887L330 881ZM325.5 881L325.5 880.5L322.5 880.5L322.5 881L322.5 881.5L325.5 881.5L325.5 881ZM319.5 881L319.5 880.5L316.5 880.5L316.5 881L316.5 881.5L319.5 881.5L319.5 881ZM313.5 881L313.5 880.5L310.5 880.5L310.5 881L310.5 881.5L313.5 881.5L313.5 881ZM307.5 881L307.5 880.5L304.5 880.5L304.5 881L304.5 881.5L307.5 881.5L307.5 881ZM301.5 881L301.5 880.5L298.5 880.5L298.5 881L298.5 881.5L301.5 881.5L301.5 881ZM295.5 881L295.5 880.5L292.5 880.5L292.5 881L292.5 881.5L295.5 881.5L295.5 881ZM289.5 881L289.5 880.5L286.5 880.5L286.5 881L286.5 881.5L289.5 881.5L289.5 881ZM283.5 881L283.5 880.5L280.5 880.5L280.5 881L280.5 881.5L283.5 881.5L283.5 881ZM277.5 881L277.5 880.5L274.5 880.5L274.5 881L274.5 881.5L277.5 881.5L277.5 881ZM271.5 881L271.5 880.5L270 880.5L270 881L270 881.5L271.5 881.5L271.5 881Z" fill="#61F35D" fill-opacity="0.4"/>
<defs>
<linearGradient id="paint0_linear_4292_1018" x1="0" y1="126" x2="180" y2="126" gradientUnits="userSpaceOnUse">
<stop offset="0.081934" stop-color="#CFFF65" stop-opacity="0"/>
<stop offset="0.706057" stop-color="#86FF22"/>
<stop offset="1" stop-color="#25B021"/>
</linearGradient>
<linearGradient id="paint1_linear_4292_1018" x1="0" y1="631" x2="180" y2="631" gradientUnits="userSpaceOnUse">
<stop offset="0.081934" stop-color="#CFFF65" stop-opacity="0"/>
<stop offset="0.706057" stop-color="#86FF22"/>
<stop offset="1" stop-color="#25B021"/>
</linearGradient>
<linearGradient id="paint2_linear_4292_1018" x1="518" y1="376" x2="338" y2="376" gradientUnits="userSpaceOnUse">
<stop offset="0.081934" stop-color="#CFFF65" stop-opacity="0"/>
<stop offset="0.706057" stop-color="#86FF22"/>
<stop offset="1" stop-color="#25B021"/>
</linearGradient>
<linearGradient id="paint3_linear_4292_1018" x1="518" y1="881" x2="338" y2="881" gradientUnits="userSpaceOnUse">
<stop offset="0.081934" stop-color="#CFFF65" stop-opacity="0"/>
<stop offset="0.706057" stop-color="#86FF22"/>
<stop offset="1" stop-color="#25B021"/>
</linearGradient>
</defs>
</svg>
