<svg width="554" height="412" viewBox="0 0 554 412" fill="none" xmlns="http://www.w3.org/2000/svg">
<mask id="path-1-inside-1_59_327" fill="white">
<path fill-rule="evenodd" clip-rule="evenodd" d="M21.7765 152.061C9.61157 154.786 0 164.986 0 177.452V388C0 401.255 10.7452 412 24 412H530C543.255 412 554 401.255 554 388V24C554 10.7452 543.255 0 530 0L171.86 0C158.999 0 148.614 10.2 146.274 22.8461C134.412 86.9492 85.04 137.894 21.7765 152.061Z"/>
</mask>
<path fill-rule="evenodd" clip-rule="evenodd" d="M21.7765 152.061C9.61157 154.786 0 164.986 0 177.452V388C0 401.255 10.7452 412 24 412H530C543.255 412 554 401.255 554 388V24C554 10.7452 543.255 0 530 0L171.86 0C158.999 0 148.614 10.2 146.274 22.8461C134.412 86.9492 85.04 137.894 21.7765 152.061Z" fill="#023900"/>
<path fill-rule="evenodd" clip-rule="evenodd" d="M21.7765 152.061C9.61157 154.786 0 164.986 0 177.452V388C0 401.255 10.7452 412 24 412H530C543.255 412 554 401.255 554 388V24C554 10.7452 543.255 0 530 0L171.86 0C158.999 0 148.614 10.2 146.274 22.8461C134.412 86.9492 85.04 137.894 21.7765 152.061Z" fill="url(#paint0_radial_59_327)"/>
<path d="M146.274 22.8461L145.29 22.6641L146.274 22.8461ZM21.7765 152.061L21.9951 153.037L21.7765 152.061ZM1 388V177.452H-1V388H1ZM530 411H24V413H530V411ZM553 24V388H555V24H553ZM171.86 1H530V-1H171.86V1ZM145.29 22.6641C133.502 86.3719 84.4319 137.005 21.558 151.086L21.9951 153.037C85.648 138.782 135.322 87.5265 147.257 23.028L145.29 22.6641ZM171.86 -1C158.434 -1 147.702 9.6302 145.29 22.6641L147.257 23.028C149.525 10.7698 159.564 1 171.86 1V-1ZM555 24C555 10.1929 543.807 -1 530 -1V1C542.703 1 553 11.2975 553 24H555ZM530 413C543.807 413 555 401.807 555 388H553C553 400.703 542.703 411 530 411V413ZM1 177.452C1 165.533 10.2054 155.677 21.9951 153.037L21.558 151.086C9.01774 153.894 -1 164.439 -1 177.452H1ZM-1 388C-1 401.807 10.1929 413 24 413V411C11.2975 411 1 400.703 1 388H-1Z" fill="white" fill-opacity="0.05" mask="url(#path-1-inside-1_59_327)"/>
<defs>
<radialGradient id="paint0_radial_59_327" cx="0" cy="0" r="1" gradientUnits="userSpaceOnUse" gradientTransform="translate(-85 -83.5) rotate(40.9603) scale(597.221 597.755)">
<stop stop-color="#BCFFBA"/>
<stop offset="1" stop-color="#25B021" stop-opacity="0"/>
</radialGradient>
</defs>
</svg>
