<svg width="212" height="66" viewBox="0 0 212 66" fill="none" xmlns="http://www.w3.org/2000/svg">
<g filter="url(#filter0_di_2747_1185)">
<g clip-path="url(#clip0_2747_1185)">
<rect x="1" width="210" height="64" rx="20" fill="#068101"/>
<g filter="url(#filter1_dd_2747_1185)">
<rect x="9" y="8" width="194" height="47" rx="16" fill="#25B021"/>
<rect x="9.5" y="8.5" width="193" height="46" rx="15.5" stroke="white" stroke-opacity="0.15"/>
<path d="M68.1111 22L57 34H67L65.8889 42L77 30H67L68.1111 22Z" stroke="#CFFF65" stroke-opacity="0.972549" stroke-width="2" stroke-linecap="round" stroke-linejoin="round"/>
<path d="M89.026 30.618C87.5007 29.8553 86.738 28.6527 86.738 27.01C86.738 26.218 86.936 25.492 87.332 24.832C87.728 24.172 88.322 23.6513 89.114 23.27C89.906 22.874 90.874 22.676 92.018 22.676C93.1473 22.676 94.108 22.874 94.9 23.27C95.7067 23.6513 96.308 24.172 96.704 24.832C97.1 25.492 97.298 26.218 97.298 27.01C97.298 27.8313 97.0853 28.5573 96.66 29.188C96.2493 29.804 95.6993 30.2807 95.01 30.618C95.846 30.926 96.506 31.432 96.99 32.136C97.474 32.8253 97.716 33.6393 97.716 34.578C97.716 35.5313 97.474 36.3747 96.99 37.108C96.506 37.8413 95.8313 38.406 94.966 38.802C94.1007 39.198 93.118 39.396 92.018 39.396C90.918 39.396 89.9353 39.198 89.07 38.802C88.2193 38.406 87.552 37.8413 87.068 37.108C86.584 36.3747 86.342 35.5313 86.342 34.578C86.342 33.6247 86.584 32.8033 87.068 32.114C87.552 31.4247 88.2047 30.926 89.026 30.618ZM94.9 27.318C94.9 26.4967 94.6433 25.866 94.13 25.426C93.6167 24.986 92.9127 24.766 92.018 24.766C91.138 24.766 90.4413 24.986 89.928 25.426C89.4147 25.866 89.158 26.504 89.158 27.34C89.158 28.0733 89.422 28.6747 89.95 29.144C90.4927 29.5987 91.182 29.826 92.018 29.826C92.854 29.826 93.5433 29.5913 94.086 29.122C94.6287 28.6527 94.9 28.0513 94.9 27.318ZM92.018 31.718C91.05 31.718 90.258 31.96 89.642 32.444C89.0407 32.9133 88.74 33.5953 88.74 34.49C88.74 35.326 89.0333 36.008 89.62 36.536C90.2067 37.0493 91.006 37.306 92.018 37.306C93.0153 37.306 93.8 37.042 94.372 36.514C94.9587 35.986 95.252 35.3113 95.252 34.49C95.252 33.61 94.9513 32.928 94.35 32.444C93.7633 31.96 92.986 31.718 92.018 31.718ZM110.288 23.71C111.916 23.71 113.339 24.0253 114.556 24.656C115.788 25.272 116.734 26.1667 117.394 27.34C118.069 28.4987 118.406 29.8553 118.406 31.41C118.406 32.9647 118.069 34.314 117.394 35.458C116.734 36.602 115.788 37.482 114.556 38.098C113.339 38.6993 111.916 39 110.288 39H105.294V23.71H110.288ZM110.288 36.954C112.077 36.954 113.449 36.47 114.402 35.502C115.355 34.534 115.832 33.17 115.832 31.41C115.832 29.6353 115.355 28.2493 114.402 27.252C113.449 26.2547 112.077 25.756 110.288 25.756H107.802V36.954H110.288ZM119.506 32.884C119.506 31.6667 119.755 30.5887 120.254 29.65C120.767 28.7113 121.456 27.9853 122.322 27.472C123.202 26.944 124.17 26.68 125.226 26.68C126.179 26.68 127.008 26.8707 127.712 27.252C128.43 27.6187 129.002 28.0807 129.428 28.638V26.878H131.958V39H129.428V37.196C129.002 37.768 128.423 38.2447 127.69 38.626C126.956 39.0073 126.12 39.198 125.182 39.198C124.14 39.198 123.187 38.934 122.322 38.406C121.456 37.8633 120.767 37.1153 120.254 36.162C119.755 35.194 119.506 34.1013 119.506 32.884ZM129.428 32.928C129.428 32.092 129.252 31.366 128.9 30.75C128.562 30.134 128.115 29.6647 127.558 29.342C127 29.0193 126.399 28.858 125.754 28.858C125.108 28.858 124.507 29.0193 123.95 29.342C123.392 29.65 122.938 30.112 122.586 30.728C122.248 31.3293 122.08 32.048 122.08 32.884C122.08 33.72 122.248 34.4533 122.586 35.084C122.938 35.7147 123.392 36.1987 123.95 36.536C124.522 36.8587 125.123 37.02 125.754 37.02C126.399 37.02 127 36.8587 127.558 36.536C128.115 36.2133 128.562 35.744 128.9 35.128C129.252 34.4973 129.428 33.764 129.428 32.928ZM145.614 26.878L138.178 44.698H135.582L138.046 38.802L133.272 26.878H136.066L139.476 36.118L143.018 26.878H145.614ZM151.357 39.198C150.403 39.198 149.545 39.0293 148.783 38.692C148.035 38.34 147.441 37.8707 147.001 37.284C146.561 36.6827 146.326 36.0153 146.297 35.282H148.893C148.937 35.7953 149.179 36.228 149.619 36.58C150.073 36.9173 150.638 37.086 151.313 37.086C152.017 37.086 152.559 36.954 152.941 36.69C153.337 36.4113 153.535 36.0593 153.535 35.634C153.535 35.1793 153.315 34.842 152.875 34.622C152.449 34.402 151.767 34.16 150.829 33.896C149.919 33.6467 149.179 33.4047 148.607 33.17C148.035 32.9353 147.536 32.576 147.111 32.092C146.7 31.608 146.495 30.97 146.495 30.178C146.495 29.5327 146.685 28.946 147.067 28.418C147.448 27.8753 147.991 27.45 148.695 27.142C149.413 26.834 150.235 26.68 151.159 26.68C152.537 26.68 153.645 27.032 154.481 27.736C155.331 28.4253 155.786 29.3713 155.845 30.574H153.337C153.293 30.0313 153.073 29.5987 152.677 29.276C152.281 28.9533 151.745 28.792 151.071 28.792C150.411 28.792 149.905 28.9167 149.553 29.166C149.201 29.4153 149.025 29.7453 149.025 30.156C149.025 30.4787 149.142 30.75 149.377 30.97C149.611 31.19 149.897 31.366 150.235 31.498C150.572 31.6153 151.071 31.7693 151.731 31.96C152.611 32.1947 153.329 32.4367 153.887 32.686C154.459 32.9207 154.95 33.2727 155.361 33.742C155.771 34.2113 155.984 34.8347 155.999 35.612C155.999 36.3013 155.808 36.9173 155.427 37.46C155.045 38.0027 154.503 38.428 153.799 38.736C153.109 39.044 152.295 39.198 151.357 39.198Z" fill="#CFFF65"/>
</g>
</g>
</g>
<defs>
<filter id="filter0_di_2747_1185" x="0" y="0" width="212" height="66" filterUnits="userSpaceOnUse" color-interpolation-filters="sRGB">
<feFlood flood-opacity="0" result="BackgroundImageFix"/>
<feColorMatrix in="SourceAlpha" type="matrix" values="0 0 0 0 0 0 0 0 0 0 0 0 0 0 0 0 0 0 127 0" result="hardAlpha"/>
<feOffset dy="1"/>
<feGaussianBlur stdDeviation="0.5"/>
<feComposite in2="hardAlpha" operator="out"/>
<feColorMatrix type="matrix" values="0 0 0 0 1 0 0 0 0 1 0 0 0 0 1 0 0 0 0.07 0"/>
<feBlend mode="normal" in2="BackgroundImageFix" result="effect1_dropShadow_2747_1185"/>
<feBlend mode="normal" in="SourceGraphic" in2="effect1_dropShadow_2747_1185" result="shape"/>
<feColorMatrix in="SourceAlpha" type="matrix" values="0 0 0 0 0 0 0 0 0 0 0 0 0 0 0 0 0 0 127 0" result="hardAlpha"/>
<feOffset dy="1"/>
<feGaussianBlur stdDeviation="1.5"/>
<feComposite in2="hardAlpha" operator="arithmetic" k2="-1" k3="1"/>
<feColorMatrix type="matrix" values="0 0 0 0 0.00547059 0 0 0 0 0.0187459 0 0 0 0 0.116098 0 0 0 0.5 0"/>
<feBlend mode="normal" in2="shape" result="effect2_innerShadow_2747_1185"/>
</filter>
<filter id="filter1_dd_2747_1185" x="-3" y="6" width="218" height="71" filterUnits="userSpaceOnUse" color-interpolation-filters="sRGB">
<feFlood flood-opacity="0" result="BackgroundImageFix"/>
<feColorMatrix in="SourceAlpha" type="matrix" values="0 0 0 0 0 0 0 0 0 0 0 0 0 0 0 0 0 0 127 0" result="hardAlpha"/>
<feMorphology radius="2" operator="erode" in="SourceAlpha" result="effect1_dropShadow_2747_1185"/>
<feOffset dy="4"/>
<feGaussianBlur stdDeviation="3"/>
<feColorMatrix type="matrix" values="0 0 0 0 0 0 0 0 0 0 0 0 0 0 0 0 0 0 0.05 0"/>
<feBlend mode="normal" in2="BackgroundImageFix" result="effect1_dropShadow_2747_1185"/>
<feColorMatrix in="SourceAlpha" type="matrix" values="0 0 0 0 0 0 0 0 0 0 0 0 0 0 0 0 0 0 127 0" result="hardAlpha"/>
<feMorphology radius="3" operator="erode" in="SourceAlpha" result="effect2_dropShadow_2747_1185"/>
<feOffset dy="10"/>
<feGaussianBlur stdDeviation="7.5"/>
<feColorMatrix type="matrix" values="0 0 0 0 0 0 0 0 0 0 0 0 0 0 0 0 0 0 0.1 0"/>
<feBlend mode="normal" in2="effect1_dropShadow_2747_1185" result="effect2_dropShadow_2747_1185"/>
<feBlend mode="normal" in="SourceGraphic" in2="effect2_dropShadow_2747_1185" result="shape"/>
</filter>
<clipPath id="clip0_2747_1185">
<rect x="1" width="210" height="64" rx="20" fill="white"/>
</clipPath>
</defs>
</svg>
