<svg width="116" height="93" viewBox="0 0 116 93" fill="none" xmlns="http://www.w3.org/2000/svg">
<g filter="url(#filter0_di_2747_588)">
<path d="M148.99 16.0469C152.791 16.0469 155.872 19.2342 155.872 23.166C155.872 27.0979 152.791 30.2852 148.99 30.2852C147.81 30.2851 146.7 29.9779 145.73 29.4365C143.171 28.0087 140.682 25.8359 137.752 25.8359H102.448C97.9941 25.8361 93.9354 28.3934 92.0127 32.4111L75.0586 67.8418C72.2485 73.7139 66.3165 77.4511 59.8066 77.4512H7.65723C6.18294 77.451 4.98828 76.2556 4.98828 74.7812C4.98855 73.3071 6.18311 72.1115 7.65723 72.1113H59.8066C64.2609 72.1112 68.3195 69.554 70.2422 65.5361L87.1963 30.1064C90.0064 24.2342 95.9383 20.4962 102.448 20.4961H137.753C140.683 20.4961 143.171 18.3237 145.73 16.8957C146.7 16.3542 147.81 16.0469 148.99 16.0469Z" fill="#25B021"/>
</g>
<g filter="url(#filter1_f_2747_588)">
<path d="M18.328 77.5283C16.8535 77.5283 15.6582 76.333 15.6582 74.8586C15.6582 73.3841 16.8535 72.1888 18.328 72.1888L39.6861 72.1888C41.1606 72.1888 42.3559 73.3841 42.3559 74.8586C42.3559 76.333 41.1606 77.5283 39.6861 77.5283L18.328 77.5283Z" fill="#CFFF65"/>
</g>
<mask id="path-3-inside-1_2747_588" fill="white">
<path d="M20.9986 76.6384C20.0156 76.6384 19.2187 75.8416 19.2187 74.8586C19.2187 73.8756 20.0156 73.0787 20.9986 73.0787L36.1273 73.0787C37.1103 73.0787 37.9071 73.8756 37.9071 74.8586C37.9071 75.8416 37.1103 76.6384 36.1273 76.6384L20.9986 76.6384Z"/>
</mask>
<path d="M20.9986 76.6384C20.0156 76.6384 19.2187 75.8416 19.2187 74.8586C19.2187 73.8756 20.0156 73.0787 20.9986 73.0787L36.1273 73.0787C37.1103 73.0787 37.9071 73.8756 37.9071 74.8586C37.9071 75.8416 37.1103 76.6384 36.1273 76.6384L20.9986 76.6384Z" fill="#CFFF65"/>
<path d="M20.9986 76.6384C20.0156 76.6384 19.2187 75.8416 19.2187 74.8586C19.2187 73.8756 20.0156 73.0787 20.9986 73.0787L36.1273 73.0787C37.1103 73.0787 37.9071 73.8756 37.9071 74.8586C37.9071 75.8416 37.1103 76.6384 36.1273 76.6384L20.9986 76.6384Z" fill="url(#paint0_radial_2747_588)" fill-opacity="0.6" style="mix-blend-mode:overlay"/>
<path d="M20.9986 76.6384C20.0156 76.6384 19.2187 75.8416 19.2187 74.8586C19.2187 73.8756 20.0156 73.0787 20.9986 73.0787L36.1273 73.0787C37.1103 73.0787 37.9071 73.8756 37.9071 74.8586C37.9071 75.8416 37.1103 76.6384 36.1273 76.6384L20.9986 76.6384Z" fill="url(#paint1_radial_2747_588)" fill-opacity="0.2"/>
<path d="M20.1087 76.6384C19.1257 76.6384 18.3288 75.8416 18.3288 74.8586C18.3288 73.8756 19.1257 73.0787 20.1087 73.0787L20.9986 73.0787C20.5071 73.0787 20.1087 73.8756 20.1087 74.8586C20.1087 75.8416 20.5071 76.6384 20.9986 76.6384L20.1087 76.6384ZM37.0172 73.0787C38.0002 73.0787 38.797 73.8756 38.797 74.8586C38.797 75.8416 38.0002 76.6384 37.0172 76.6384L36.1273 76.6384C36.6188 76.6384 37.0172 75.8416 37.0172 74.8586C37.0172 73.8756 36.6188 73.0787 36.1273 73.0787L37.0172 73.0787ZM37.9071 76.6384L19.2188 76.6384L37.9071 76.6384ZM19.2187 73.0787L37.9071 73.0787L19.2187 73.0787Z" fill="white" fill-opacity="0.15" mask="url(#path-3-inside-1_2747_588)"/>
<defs>
<filter id="filter0_di_2747_588" x="4.98828" y="16.0469" width="152.663" height="63.1841" filterUnits="userSpaceOnUse" color-interpolation-filters="sRGB">
<feFlood flood-opacity="0" result="BackgroundImageFix"/>
<feColorMatrix in="SourceAlpha" type="matrix" values="0 0 0 0 0 0 0 0 0 0 0 0 0 0 0 0 0 0 127 0" result="hardAlpha"/>
<feOffset dx="0.889922" dy="0.889922"/>
<feGaussianBlur stdDeviation="0.444961"/>
<feComposite in2="hardAlpha" operator="out"/>
<feColorMatrix type="matrix" values="0 0 0 0 1 0 0 0 0 1 0 0 0 0 1 0 0 0 0.07 0"/>
<feBlend mode="normal" in2="BackgroundImageFix" result="effect1_dropShadow_2747_588"/>
<feBlend mode="normal" in="SourceGraphic" in2="effect1_dropShadow_2747_588" result="shape"/>
<feColorMatrix in="SourceAlpha" type="matrix" values="0 0 0 0 0 0 0 0 0 0 0 0 0 0 0 0 0 0 127 0" result="hardAlpha"/>
<feOffset dx="0.889922" dy="0.889922"/>
<feGaussianBlur stdDeviation="1.77984"/>
<feComposite in2="hardAlpha" operator="arithmetic" k2="-1" k3="1"/>
<feColorMatrix type="matrix" values="0 0 0 0 0.00547059 0 0 0 0 0.0187459 0 0 0 0 0.116098 0 0 0 0.55 0"/>
<feBlend mode="normal" in2="shape" result="effect2_innerShadow_2747_588"/>
</filter>
<filter id="filter1_f_2747_588" x="0.796499" y="57.327" width="56.4207" height="35.063" filterUnits="userSpaceOnUse" color-interpolation-filters="sRGB">
<feFlood flood-opacity="0" result="BackgroundImageFix"/>
<feBlend mode="normal" in="SourceGraphic" in2="BackgroundImageFix" result="shape"/>
<feGaussianBlur stdDeviation="7.43085" result="effect1_foregroundBlur_2747_588"/>
</filter>
<radialGradient id="paint0_radial_2747_588" cx="0" cy="0" r="1" gradientUnits="userSpaceOnUse" gradientTransform="translate(33.8444 74.8586) scale(15.8445 23.0466)">
<stop stop-color="white"/>
<stop offset="1" stop-color="white" stop-opacity="0"/>
</radialGradient>
<radialGradient id="paint1_radial_2747_588" cx="0" cy="0" r="1" gradientUnits="userSpaceOnUse" gradientTransform="translate(34.2507 74.8586) scale(5.68776 4.15297)">
<stop stop-color="white"/>
<stop offset="1" stop-color="white" stop-opacity="0"/>
</radialGradient>
</defs>
</svg>
