<svg width="108" height="108" viewBox="0 0 108 108" fill="none" xmlns="http://www.w3.org/2000/svg">
<g clip-path="url(#clip0_2760_1430)">
<path d="M103.5 54L92.52 41.445L94.05 24.84L77.805 21.15L69.3 6.75L54 13.32L38.7 6.75L30.195 21.105L13.95 24.75L15.48 41.4L4.5 54L15.48 66.555L13.95 83.205L30.195 86.895L38.7 101.25L54 94.635L69.3 101.205L77.805 86.85L94.05 83.16L92.52 66.555L103.5 54ZM42.21 72.045L31.5 61.245C29.745 59.49 29.745 56.655 31.5 54.9L31.815 54.585C33.57 52.83 36.45 52.83 38.205 54.585L45.45 61.875L68.625 38.655C70.38 36.9 73.26 36.9 75.015 38.655L75.33 38.97C77.085 40.725 77.085 43.56 75.33 45.315L48.69 72.045C46.845 73.8 44.01 73.8 42.21 72.045Z" fill="#34B000"/>
</g>
<defs>
<clipPath id="clip0_2760_1430">
<rect width="108" height="108" fill="white"/>
</clipPath>
</defs>
</svg>
