<svg width="120" height="143" viewBox="0 0 120 143" fill="none" xmlns="http://www.w3.org/2000/svg">
<path fill-rule="evenodd" clip-rule="evenodd" d="M38.1819 34.0825C20.8414 36.8068 4.20801 48.8246 0.526781 66.7064C-0.848838 73.4109 0.245849 84.0955 6.49426 88.3268C8.32809 89.7022 10.4249 90.6885 12.6555 91.225C33.6772 95.2342 42.115 74.0485 55.1834 62.8132C60.9959 57.78 74.0352 51.8581 78.2977 62.2915C81.3589 69.7881 77.0383 77.8547 71.8942 83.313C60.3371 95.553 41.4466 101.958 33.0863 117.231C31.7224 119.455 30.7616 121.901 30.2479 124.457C27.6613 141.074 48.4313 145.044 60.9571 142.117C88.1401 135.741 109.646 111.493 117.542 85.419C121.029 73.9035 121.339 58.6205 114.955 47.9165C107.796 35.9084 91.9086 29.6387 78.2977 32.6528C70.2087 34.44 63.4856 38.8162 56.0166 42.1105C49.6519 44.9604 36.7966 45.3178 38.1819 34.0825Z" fill="#F5FFDF"/>
<path fill-rule="evenodd" clip-rule="evenodd" d="M80.2848 60.7844C88.3738 60.7844 99.6016 63.5377 104.426 72.3771C108.369 79.6129 106.964 92.7513 105.085 96.6832C98.8459 109.754 95.3391 110.508 80.6432 110.508C65.9474 110.508 61.5977 99.5331 61.5977 85.0518C61.5977 70.5706 65.5889 60.7844 80.2848 60.7844Z" fill="#3C6CA4"/>
<path fill-rule="evenodd" clip-rule="evenodd" d="M74.1313 64.7839C83.0147 64.8419 98.3984 69.1698 96.8775 86.5879C95.6375 100.886 85.7563 106.17 75.817 105.291C66.5751 104.47 54.6789 100.934 54.7661 86.5879C54.8533 72.2419 65.2382 64.7356 74.1313 64.7839Z" fill="#D9E5F4"/>
<path fill-rule="evenodd" clip-rule="evenodd" d="M69.6765 65.4699C82.3283 68.2908 92.0642 74.7247 88.5864 90.23C85.1086 105.735 82.4737 102.267 67.4581 107.532C55.2035 111.812 40.1298 99.5814 43.5785 84.0762C47.0272 68.5709 57.0247 62.6393 69.6765 65.4699Z" fill="#EAAA5B"/>
<path fill-rule="evenodd" clip-rule="evenodd" d="M61.1329 63.6924C73.7266 63.5861 79.4325 66.1268 82.8328 77.1592C84.1988 81.6127 80.9438 88.3848 80.5756 91.5052C80.2075 94.6256 80.0719 101.233 76.3228 105.03C70.7332 110.72 61.0845 111.734 53.0729 112.102C38.2414 112.778 27.3624 100.432 30.2299 85.0519C33.0974 69.6723 47.5317 63.818 61.1329 63.6924Z" fill="#CD8328"/>
<path fill-rule="evenodd" clip-rule="evenodd" d="M37.5225 69.5273L27.7188 8.05693L50.6489 7.72848L68.6192 0L50.7362 69.3534L37.5225 69.5273Z" fill="#117D11"/>
<path fill-rule="evenodd" clip-rule="evenodd" d="M51.1359 19.6496L64.4852 18.1812L72.148 9.36107L83.1626 8.95532L72.7389 26.3444L55.5243 65.3153L45.7109 63.3155L51.1359 19.6496Z" fill="#019400"/>
<path fill-rule="evenodd" clip-rule="evenodd" d="M53.4497 15.1671L56.8112 65.4698H45.5156L53.4497 15.1671Z" fill="black"/>
<path fill-rule="evenodd" clip-rule="evenodd" d="M32.1579 63.7695L13.2383 20.9538L26.452 14.771L40.5472 16.2104L53.4509 10.0663L52.4822 65.4698L32.1579 63.7695Z" fill="#34B000"/>
<path fill-rule="evenodd" clip-rule="evenodd" d="M43.0923 113.609L41.707 123.945L52.6248 122.931L49.8735 110.536L43.0923 113.609Z" fill="#018800"/>
<path fill-rule="evenodd" clip-rule="evenodd" d="M39.207 115.038L48.2357 118.381L47.1605 110.536L41.7064 107.638L39.207 115.038Z" fill="black"/>
<path fill-rule="evenodd" clip-rule="evenodd" d="M46.6875 110.652L48.1019 127.385L62.8462 123.144L54.1275 110.372L46.6875 110.652Z" fill="#34B000"/>
<path fill-rule="evenodd" clip-rule="evenodd" d="M46.6875 111.686L49.6713 118.883L55.2706 111.686L52.6259 108.972L46.6875 111.686Z" fill="black"/>
<path fill-rule="evenodd" clip-rule="evenodd" d="M62.6045 65.4312C62.6058 65.0751 62.5366 64.7224 62.4008 64.3931C62.2651 64.0638 62.0655 63.7644 61.8135 63.5122C61.5615 63.26 61.262 63.0599 60.9323 62.9234C60.6026 62.7868 60.2491 62.7166 59.8921 62.7166H28.6597C27.9377 62.7166 27.2453 63.0026 26.7348 63.5116C26.2243 64.0207 25.9375 64.7112 25.9375 65.4312V75.7197C25.9375 76.4397 26.2243 77.1301 26.7348 77.6392C27.2453 78.1483 27.9377 78.4343 28.6597 78.4343H59.8921C60.2491 78.4343 60.6026 78.3641 60.9323 78.2275C61.262 78.091 61.5615 77.8909 61.8135 77.6386C62.0655 77.3864 62.2651 77.0871 62.4008 76.7578C62.5366 76.4285 62.6058 76.0757 62.6045 75.7197V65.4312Z" fill="#E3A151"/>
<path fill-rule="evenodd" clip-rule="evenodd" d="M63.8145 80.3955C63.812 79.7054 63.5352 79.0444 63.045 78.5573C62.5547 78.0702 61.8909 77.7967 61.1989 77.7968H25.52C24.8288 77.7968 24.166 78.0706 23.6773 78.5579C23.1886 79.0453 22.9141 79.7062 22.9141 80.3955V90.2686C22.9128 90.6107 22.9793 90.9496 23.1096 91.266C23.24 91.5825 23.4318 91.8701 23.6739 92.1124C23.916 92.3547 24.2037 92.547 24.5205 92.6782C24.8373 92.8094 25.1769 92.877 25.52 92.877H61.1989C61.8926 92.877 62.5579 92.6021 63.0484 92.113C63.5389 91.6238 63.8145 90.9604 63.8145 90.2686V80.3955Z" fill="#E3A151"/>
<path fill-rule="evenodd" clip-rule="evenodd" d="M60.8782 92.877C60.8782 92.877 62.1957 98.4415 60.0741 100.335C57.9526 102.228 34.3442 106.914 28.5899 105.31C24.928 104.286 25.9355 92.877 25.9355 92.877H60.8782Z" fill="#E3A151"/>
<path fill-rule="evenodd" clip-rule="evenodd" d="M57.5571 103.137C57.5571 102.591 57.3397 102.067 56.9527 101.682C56.5658 101.296 56.0409 101.079 55.4936 101.079L34.0359 103.793C33.4903 103.788 32.9649 103.999 32.5746 104.379C32.1842 104.759 31.9608 105.278 31.9531 105.822C31.9531 105.822 33.7937 111.792 34.6172 113.126C35.0822 113.869 36.1187 113.754 36.9131 113.821C39.1068 114.143 41.3359 114.143 43.5296 113.821C48.3734 112.952 54.0502 110.71 56.2396 110.15C56.9274 109.976 57.7508 108.46 57.7508 108.46C58.1093 107.619 57.5571 103.137 57.5571 103.137Z" fill="#E3A151"/>
<path fill-rule="evenodd" clip-rule="evenodd" d="M62.8961 87.7375C63.8648 90.6936 70.4814 92.9928 75.8095 89.2735C74.8407 82.9651 75.9354 76.5795 76.7007 70.5802C77.4466 64.7839 76.5942 61.364 74.6082 58.8716C72.3801 56.0797 65.4536 58.0891 62.6055 58.4465C59.7573 58.804 60.5711 81.0234 62.8961 87.7375Z" fill="#E3A151"/>
<path fill-rule="evenodd" clip-rule="evenodd" d="M34.1309 113.802C40.263 114.295 46.1142 114.372 51.6748 112.43C53.5399 111.785 55.3219 110.923 56.9836 109.86C57.0203 109.839 57.0522 109.81 57.0775 109.775C57.1028 109.741 57.121 109.702 57.131 109.661C57.1409 109.619 57.1424 109.576 57.1354 109.534C57.1284 109.492 57.113 109.452 57.0902 109.416C57.041 109.345 56.9664 109.295 56.8817 109.277C56.7971 109.259 56.7087 109.274 56.6348 109.319C55.0131 110.35 53.2772 111.189 51.4617 111.821C45.9883 113.754 40.2243 113.647 34.1793 113.164C34.1373 113.16 34.0949 113.165 34.0546 113.177C34.0143 113.19 33.9768 113.21 33.9444 113.237C33.912 113.264 33.8852 113.297 33.8657 113.334C33.8462 113.371 33.8342 113.412 33.8306 113.454C33.8251 113.497 33.8288 113.541 33.8413 113.582C33.8538 113.623 33.8749 113.662 33.9032 113.695C33.9315 113.727 33.9664 113.754 34.0056 113.772C34.0448 113.791 34.0875 113.801 34.1309 113.802Z" fill="black"/>
<path fill-rule="evenodd" clip-rule="evenodd" d="M26.5001 104.025C28.889 104.529 31.3053 104.893 33.7366 105.117C35.7322 105.291 37.7375 105.368 39.7332 105.368C41.4628 105.33 43.1878 105.175 44.8966 104.904C48.5681 104.402 53.8865 103.755 57.4902 101.591C58.78 100.932 59.8586 99.925 60.6035 98.6852C61.3484 97.4455 61.7298 96.0222 61.7043 94.5772C61.7125 94.53 61.7103 94.4816 61.6978 94.4354C61.6852 94.3892 61.6627 94.3462 61.6318 94.3096C61.6009 94.2729 61.5623 94.2435 61.5188 94.2233C61.4752 94.2031 61.4278 94.1926 61.3798 94.1926C61.3318 94.1926 61.2843 94.2031 61.2408 94.2233C61.1972 94.2435 61.1587 94.2729 61.1278 94.3096C61.0969 94.3462 61.0743 94.3892 61.0618 94.4354C61.0493 94.4816 61.047 94.53 61.0552 94.5772C61.0552 98.4414 58.5462 100.615 55.2428 101.958C51.9393 103.301 47.7544 103.842 44.7416 104.247C43.0621 104.518 41.3661 104.673 39.6653 104.711C37.7278 104.711 35.7032 104.634 33.7269 104.46C31.3214 104.239 28.9309 103.878 26.5679 103.378C26.488 103.371 26.4083 103.394 26.3439 103.442C26.2795 103.489 26.2348 103.559 26.2181 103.637C26.2015 103.715 26.214 103.797 26.2535 103.867C26.2929 103.936 26.3565 103.989 26.4323 104.016L26.5001 104.025Z" fill="black"/>
<path fill-rule="evenodd" clip-rule="evenodd" d="M25.9769 77.3427C34.1435 80.0767 42.804 80.3955 51.2903 79.2748C55.3202 78.7338 58.1393 78.1156 61.5977 75.8453C61.6336 75.8227 61.6647 75.7933 61.689 75.7586C61.7134 75.7239 61.7306 75.6847 61.7396 75.6434C61.7486 75.602 61.7493 75.5593 61.7415 75.5176C61.7338 75.476 61.7179 75.4364 61.6946 75.4009C61.6454 75.3299 61.5708 75.2804 61.4862 75.2624C61.4015 75.2444 61.3132 75.2594 61.2393 75.3043C57.868 77.5166 55.1265 78.1059 51.2031 78.6372C42.8137 79.7579 34.25 79.4487 26.1804 76.7051C26.1397 76.6917 26.0967 76.6866 26.054 76.6901C26.0113 76.6936 25.9697 76.7056 25.9318 76.7254C25.8938 76.7453 25.8603 76.7725 25.8331 76.8055C25.8059 76.8385 25.7856 76.8767 25.7735 76.9176C25.7568 76.9587 25.7488 77.0028 25.7501 77.0471C25.7515 77.0914 25.762 77.135 25.7812 77.175C25.8003 77.215 25.8276 77.2505 25.8613 77.2794C25.895 77.3083 25.9344 77.3298 25.9769 77.3427Z" fill="black"/>
<path fill-rule="evenodd" clip-rule="evenodd" d="M22.9244 89.0127C23.2344 91.5921 24.8619 92.7803 26.935 93.3406C28.3012 93.6543 29.6986 93.8131 31.1006 93.814C38.9571 94.0266 46.833 93.331 54.6799 93.0025C56.9618 93.0585 59.2413 92.8181 61.4611 92.2876C63.0305 91.7853 64.251 90.8772 64.5223 89.3219C64.531 89.2812 64.5315 89.2392 64.5235 89.1983C64.5156 89.1575 64.4995 89.1187 64.4762 89.0842C64.4529 89.0497 64.4228 89.0203 64.3878 88.9976C64.3528 88.975 64.3136 88.9597 64.2725 88.9525C64.2314 88.9454 64.1893 88.9466 64.1487 88.956C64.1081 88.9655 64.0698 88.983 64.0362 89.0076C64.0025 89.0321 63.9741 89.0632 63.9528 89.0989C63.9314 89.1347 63.9176 89.1744 63.912 89.2156C63.6795 90.5391 62.6042 91.2733 61.2673 91.708C59.1071 92.2192 56.8897 92.4498 54.6702 92.3939C46.8427 92.7127 38.9862 93.36 31.1393 93.1957C29.7829 93.2012 28.4304 93.0488 27.1094 92.7417C26.1798 92.5848 25.3279 92.127 24.6853 91.439C24.0427 90.7511 23.6451 89.8712 23.554 88.9354C23.5443 88.855 23.5034 88.7816 23.44 88.7311C23.3766 88.6805 23.2958 88.6567 23.215 88.6649C23.1725 88.6672 23.1309 88.6783 23.0928 88.6973C23.0547 88.7164 23.021 88.7431 22.9937 88.7757C22.9664 88.8083 22.9462 88.8462 22.9343 88.887C22.9224 88.9278 22.919 88.9706 22.9244 89.0127Z" fill="black"/>
<path fill-rule="evenodd" clip-rule="evenodd" d="M64.6961 18.2682C63.0686 24.8374 61.0149 31.1844 59.7555 37.8406C59.7479 37.8805 59.7482 37.9216 59.7565 37.9615C59.7647 38.0013 59.7808 38.0391 59.8038 38.0727C59.8267 38.1064 59.8561 38.1352 59.8902 38.1575C59.9243 38.1798 59.9625 38.1952 60.0025 38.2029C60.0426 38.2105 60.0838 38.2101 60.1238 38.2019C60.1637 38.1936 60.2016 38.1776 60.2353 38.1547C60.2691 38.1318 60.298 38.1025 60.3203 38.0685C60.3427 38.0345 60.3582 37.9965 60.3658 37.9565C61.6155 31.31 63.6692 24.9727 65.2967 18.4228C65.3144 18.3422 65.3 18.2579 65.2567 18.1876C65.2133 18.1174 65.1443 18.0666 65.0642 18.046C65.0254 18.036 64.9849 18.0337 64.9452 18.0395C64.9056 18.0453 64.8675 18.0589 64.8331 18.0797C64.7988 18.1004 64.769 18.1277 64.7455 18.1601C64.722 18.1925 64.7051 18.2292 64.6961 18.2682Z" fill="black"/>
<path fill-rule="evenodd" clip-rule="evenodd" d="M26.1401 15.3411C28.6492 21.8813 30.5382 28.6534 32.7954 35.2902C32.8085 35.3291 32.8292 35.365 32.8563 35.3958C32.8834 35.4267 32.9164 35.4518 32.9534 35.4698C32.9904 35.4878 33.0305 35.4982 33.0716 35.5006C33.1127 35.5029 33.1538 35.4971 33.1926 35.4834C33.2676 35.455 33.3292 35.3995 33.3651 35.3279C33.401 35.2563 33.4086 35.1739 33.3863 35.097C31.1195 28.4505 29.2207 21.6688 26.7117 15.1189C26.6978 15.0809 26.6763 15.0462 26.6486 15.0167C26.6208 14.9872 26.5874 14.9636 26.5503 14.9474C26.5132 14.9311 26.4732 14.9225 26.4326 14.9221C26.3921 14.9217 26.3519 14.9295 26.3145 14.945C26.2764 14.9588 26.2416 14.9803 26.212 15.0079C26.1825 15.0356 26.1588 15.0689 26.1425 15.1059C26.1262 15.1429 26.1176 15.1828 26.1172 15.2232C26.1168 15.2637 26.1246 15.3037 26.1401 15.3411Z" fill="black"/>
<path fill-rule="evenodd" clip-rule="evenodd" d="M12.6268 22.1614C18.9043 35.0873 25.7533 47.8683 31.4205 61.0743C31.4314 61.1178 31.4516 61.1584 31.4798 61.1933C31.508 61.2283 31.5434 61.2566 31.5837 61.2765C31.624 61.2964 31.6681 61.3073 31.7131 61.3085C31.758 61.3097 31.8027 61.3011 31.8439 61.2834C31.8852 61.2656 31.9221 61.2391 31.9521 61.2057C31.9821 61.1723 32.0045 61.1329 32.0176 61.09C32.0308 61.0472 32.0345 61.002 32.0284 60.9576C32.0223 60.9131 32.0066 60.8706 31.9823 60.8328C26.3152 47.6171 19.4661 34.8265 13.179 21.8909C13.1399 21.8198 13.075 21.7661 12.9976 21.741C12.9202 21.7159 12.8361 21.7211 12.7624 21.7557C12.7265 21.7732 12.6945 21.7976 12.6682 21.8275C12.6419 21.8575 12.6218 21.8924 12.6092 21.9302C12.5965 21.968 12.5916 22.0079 12.5946 22.0476C12.5976 22.0873 12.6086 22.126 12.6268 22.1614Z" fill="black"/>
<path fill-rule="evenodd" clip-rule="evenodd" d="M62.1588 123.646C61.5291 123.878 59.7757 124.303 59.7273 124.322C57.2279 125.018 54.7286 125.684 52.2486 126.457C52.1703 126.482 52.1049 126.536 52.0668 126.609C52.0287 126.681 52.0209 126.766 52.0451 126.844C52.0717 126.92 52.1266 126.984 52.1986 127.022C52.2706 127.059 52.3543 127.068 52.4326 127.047C54.9029 126.274 57.4023 125.607 59.892 124.912C59.9501 124.912 62.1297 124.351 62.5754 124.139C62.6407 124.111 62.6979 124.067 62.7419 124.011C62.7859 123.956 62.8153 123.89 62.8273 123.82C62.8008 123.542 62.6968 123.278 62.5269 123.057C62.1685 122.506 61.5582 121.81 61.3547 121.54C59.8532 119.25 58.2548 117.019 56.6564 114.778C56.608 114.713 56.5365 114.67 56.457 114.658C56.3774 114.645 56.296 114.664 56.2301 114.71C56.1971 114.733 56.1691 114.762 56.1478 114.796C56.1265 114.831 56.1122 114.868 56.1059 114.908C56.0995 114.948 56.1013 114.988 56.111 115.027C56.1207 115.066 56.1381 115.103 56.1623 115.135C57.751 117.367 59.3398 119.589 60.8413 121.897C61.0157 122.158 61.6551 122.864 62.0135 123.414C62.0665 123.489 62.1149 123.566 62.1588 123.646Z" fill="black"/>
<path fill-rule="evenodd" clip-rule="evenodd" d="M61.3144 59.4513C60.3193 63.8687 60.1583 68.4323 60.8398 72.9085C61.2757 76.367 61.8085 79.7675 62.4479 83.2067C62.816 85.332 63.1744 87.9114 64.5113 89.6986C65.0499 90.385 65.7338 90.9443 66.5141 91.3368C67.2945 91.7292 68.1521 91.945 69.0257 91.9689C70.7445 92.0588 72.4625 91.7787 74.0631 91.1477C74.6699 90.9457 75.265 90.7102 75.8456 90.4425C76.2616 90.2576 76.627 89.9761 76.9112 89.6213C77.4398 88.7141 77.6124 87.6436 77.3956 86.6169C77.1922 85.0325 76.5722 83.313 76.485 82.0764C76.1847 77.9439 76.1847 73.7951 76.485 69.6625C76.7369 66.4262 76.9984 62.6876 75.7003 59.6155C75.6665 59.5416 75.6048 59.4839 75.5287 59.455C75.4525 59.4261 75.368 59.4282 75.2934 59.4609C75.2562 59.4756 75.2224 59.4977 75.1941 59.526C75.1658 59.5543 75.1438 59.588 75.1292 59.6252C75.1147 59.6624 75.108 59.7022 75.1096 59.7421C75.1111 59.782 75.121 59.8211 75.1385 59.857C76.3978 62.8422 76.1072 66.4745 75.8747 69.6142C75.5696 73.7756 75.5696 77.9536 75.8747 82.115C75.9619 83.3612 76.5819 85.1002 76.7853 86.6942C76.9804 87.5679 76.8459 88.4827 76.4075 89.2639C76.1855 89.5404 75.8997 89.7592 75.5744 89.9015C74.9932 90.1913 74.3053 90.3942 73.8403 90.5777C72.3247 91.171 70.7004 91.4377 69.0741 91.3602C68.2882 91.3405 67.5162 91.1485 66.8131 90.7979C66.1099 90.4473 65.4927 89.9467 65.0054 89.3315C63.7266 87.6216 63.4069 85.1388 63.0679 83.1004C62.4769 79.6709 61.8957 76.28 61.4598 72.8312C60.7912 68.4293 60.9456 63.942 61.9151 59.5962C61.9252 59.5575 61.9274 59.5172 61.9216 59.4776C61.9158 59.438 61.9021 59.4 61.8814 59.3658C61.8606 59.3315 61.8331 59.3018 61.8007 59.2783C61.7682 59.2549 61.7313 59.2381 61.6923 59.2291C61.6528 59.2175 61.6114 59.2141 61.5706 59.2192C61.5298 59.2242 61.4904 59.2376 61.455 59.2584C61.4196 59.2793 61.3888 59.3071 61.3646 59.3403C61.3405 59.3735 61.3234 59.4113 61.3144 59.4513Z" fill="black"/>
<path fill-rule="evenodd" clip-rule="evenodd" d="M55.5616 112.314C65.9175 113.28 76.5834 108.923 79.9353 98.4512C81.7275 92.8287 81.0203 86.9551 82.3378 81.3036C82.357 81.2203 82.3423 81.1329 82.2969 81.0604C82.2515 80.9879 82.1791 80.9364 82.0956 80.9172C82.0121 80.898 81.9244 80.9126 81.8517 80.9579C81.779 81.0032 81.7273 81.0754 81.7081 81.1587C80.3906 86.7908 81.1075 92.6452 79.3153 98.2483C76.0603 108.421 65.6753 112.643 55.6197 111.667C55.5777 111.663 55.5354 111.667 55.495 111.68C55.4547 111.692 55.4173 111.712 55.3848 111.739C55.3524 111.766 55.3257 111.799 55.3061 111.837C55.2866 111.874 55.2747 111.915 55.271 111.957C55.2628 112.042 55.2887 112.128 55.343 112.195C55.3974 112.261 55.4759 112.304 55.5616 112.314Z" fill="black"/>
<path fill-rule="evenodd" clip-rule="evenodd" d="M72.6408 109.232C81.8439 111.686 94.0985 112.063 100.734 104.141C103.04 101.407 104.251 97.9585 105.336 94.6159C105.364 94.5339 105.358 94.4443 105.32 94.3665C105.282 94.2887 105.214 94.229 105.132 94.2005C105.049 94.1781 104.96 94.1875 104.883 94.2268C104.806 94.266 104.747 94.3324 104.716 94.413C103.66 97.6783 102.488 101.06 100.24 103.716C93.7207 111.445 81.7373 111 72.7667 108.604C72.6833 108.584 72.595 108.596 72.5207 108.64C72.4465 108.683 72.3922 108.754 72.3695 108.836C72.3581 108.88 72.3563 108.926 72.3642 108.971C72.372 109.016 72.3894 109.058 72.4151 109.096C72.4408 109.133 72.4742 109.165 72.5131 109.188C72.552 109.212 72.5956 109.227 72.6408 109.232Z" fill="black"/>
<path fill-rule="evenodd" clip-rule="evenodd" d="M76.5167 106.035C85.4389 105.919 93.8476 100.702 95.8916 91.8046C95.9016 91.7634 95.9033 91.7205 95.8965 91.6786C95.8897 91.6367 95.8746 91.5966 95.852 91.5606C95.8295 91.5246 95.7999 91.4935 95.7652 91.4691C95.7304 91.4446 95.691 91.4273 95.6494 91.4182C95.5648 91.4004 95.4766 91.4154 95.4028 91.4603C95.3289 91.5052 95.2751 91.5765 95.2523 91.6597C93.247 100.267 85.0998 105.271 76.4683 105.387C76.4255 105.387 76.3831 105.396 76.3436 105.413C76.3042 105.429 76.2686 105.454 76.2388 105.484C76.2089 105.515 76.1856 105.551 76.1701 105.591C76.1546 105.631 76.1473 105.673 76.1486 105.716C76.1496 105.762 76.1602 105.807 76.1797 105.848C76.1993 105.89 76.2273 105.926 76.2619 105.957C76.2966 105.987 76.3371 106.009 76.381 106.022C76.4249 106.036 76.4711 106.04 76.5167 106.035Z" fill="black"/>
<path fill-rule="evenodd" clip-rule="evenodd" d="M12.907 45.5111C11.0664 48.9696 10.7951 51.4813 11.328 53.5197C12.0029 55.5349 13.1795 57.3465 14.7476 58.7848C17.5667 61.7699 21.0251 64.9193 20.1435 71.9232C20.1327 72.0076 20.1386 72.0932 20.161 72.1753C20.1833 72.2574 20.2217 72.3343 20.2739 72.4016C20.3261 72.4689 20.391 72.5253 20.4651 72.5675C20.5391 72.6097 20.6208 72.637 20.7054 72.6477C20.7895 72.6585 20.8749 72.6525 20.9566 72.6301C21.0383 72.6077 21.1147 72.5693 21.1814 72.5172C21.2481 72.465 21.3038 72.4002 21.3451 72.3264C21.3865 72.2526 21.4127 72.1714 21.4223 72.0874C22.391 64.5425 18.7292 61.113 15.697 57.896C14.2776 56.6196 13.2074 55.0038 12.5873 53.2009C12.1127 51.3848 12.4226 49.1821 14.0598 46.1197C14.1408 45.9673 14.1576 45.789 14.1068 45.6241C14.0559 45.4593 13.9414 45.3213 13.7886 45.2406C13.6357 45.1599 13.4569 45.1431 13.2916 45.1938C13.1263 45.2445 12.9879 45.3587 12.907 45.5111Z" fill="#279FF2"/>
<path fill-rule="evenodd" clip-rule="evenodd" d="M78.4539 141.141C77.0298 138.108 76.7682 135.673 77.3398 133.635C78.011 131.584 79.3168 129.799 81.0695 128.534C84.8379 125.511 90.3598 123.376 94.3123 120.535C98.1 117.821 100.793 113.995 103.031 109.996C103.074 109.922 103.102 109.841 103.113 109.757C103.124 109.673 103.118 109.587 103.095 109.505C103.073 109.423 103.034 109.347 102.981 109.28C102.929 109.213 102.863 109.158 102.789 109.116C102.64 109.033 102.463 109.011 102.298 109.056C102.133 109.101 101.993 109.21 101.907 109.358C99.7373 113.222 97.1798 116.884 93.547 119.482C89.5751 122.332 84.0338 124.487 80.246 127.53C78.2711 128.967 76.811 130.999 76.0804 133.326C75.4411 135.606 75.6736 138.34 77.272 141.731C77.3455 141.885 77.4774 142.005 77.639 142.063C77.8006 142.121 77.9787 142.112 78.1342 142.04C78.2179 142.006 78.2934 141.955 78.3559 141.89C78.4183 141.825 78.4662 141.747 78.4964 141.662C78.5266 141.577 78.5384 141.487 78.5311 141.397C78.5238 141.307 78.4975 141.22 78.4539 141.141Z" fill="#279FF2"/>
<path fill-rule="evenodd" clip-rule="evenodd" d="M74.829 44.8156C73.8602 41.9174 74.829 36.9035 77.2121 33.8701C78.7136 31.938 80.8061 30.8367 83.4024 31.6868C84.8361 32.1602 85.4367 33.4257 85.9986 34.7299C86.6864 36.3239 87.3161 37.9952 88.6723 38.9805C88.7402 39.0313 88.8174 39.0681 88.8996 39.0887C88.9818 39.1094 89.0674 39.1136 89.1512 39.101C89.2351 39.0884 89.3156 39.0593 89.388 39.0154C89.4605 38.9715 89.5234 38.9137 89.5733 38.8453C89.6244 38.7769 89.6615 38.6991 89.6824 38.6163C89.7032 38.5336 89.7075 38.4475 89.6949 38.3631C89.6823 38.2787 89.6531 38.1976 89.6089 38.1245C89.5648 38.0514 89.5066 37.9878 89.4377 37.9372C88.2558 37.0871 87.7811 35.5994 87.1902 34.2275C86.483 32.5659 85.6208 31.0588 83.8093 30.4599C80.6221 29.4069 77.9968 30.7207 76.1852 33.0779C73.5599 36.4398 72.5524 41.9657 73.5987 45.202C73.6161 45.2914 73.6524 45.3762 73.705 45.4507C73.7576 45.5253 73.8254 45.5879 73.9039 45.6345C73.9825 45.6811 74.07 45.7106 74.1608 45.7211C74.2516 45.7316 74.3435 45.7229 74.4307 45.6955C74.5179 45.6681 74.5983 45.6227 74.6666 45.5622C74.735 45.5017 74.7897 45.4275 74.8273 45.3444C74.8649 45.2614 74.8845 45.1713 74.8848 45.0802C74.8851 44.989 74.8661 44.8989 74.829 44.8156Z" fill="#A14DF6"/>
<path fill-rule="evenodd" clip-rule="evenodd" d="M21.2984 117.241C19.7097 120.303 19.4675 122.574 20.0391 124.255C20.9013 126.795 23.6815 128.119 27.1303 128.727C30.4505 129.188 33.7955 129.449 37.1471 129.51C38.6674 129.504 40.1798 129.729 41.6324 130.177C43.7152 131.075 44.7711 133.2 45.5074 135.2C45.5385 135.279 45.5851 135.352 45.6443 135.413C45.7035 135.474 45.7743 135.524 45.8526 135.558C45.9308 135.592 46.015 135.61 46.1004 135.612C46.1858 135.613 46.2707 135.598 46.3502 135.567C46.4297 135.536 46.5023 135.49 46.5638 135.431C46.6254 135.372 46.6746 135.301 46.7088 135.223C46.743 135.145 46.7614 135.061 46.7631 134.976C46.7647 134.891 46.7495 134.806 46.7183 134.727C45.8271 132.427 44.5193 130.022 42.1168 128.988C40.5215 128.486 38.8588 128.228 37.1859 128.225C33.8863 128.159 30.5935 127.9 27.324 127.452C25.934 127.237 24.5869 126.803 23.3328 126.167C22.3573 125.688 21.6021 124.855 21.221 123.839C20.7366 122.4 21.0562 120.468 22.4125 117.84C22.4921 117.688 22.5078 117.51 22.456 117.346C22.4043 117.182 22.2893 117.045 22.1364 116.966C21.9835 116.886 21.8053 116.871 21.6409 116.922C21.4765 116.974 21.3393 117.089 21.2597 117.241H21.2984Z" fill="#A14DF6"/>
<path fill-rule="evenodd" clip-rule="evenodd" d="M99.0767 52.032C98.9931 52.0429 98.9085 52.0429 98.8249 52.032C98.5385 52.0239 98.2546 51.9751 97.982 51.8871L97.7495 51.7905C97.3911 51.5092 97.1551 51.1009 97.0908 50.6505C96.9842 49.6845 97.9143 48.7184 98.9314 48.2837C99.0877 48.2139 99.2099 48.0854 99.2716 47.9262C99.3333 47.767 99.3294 47.5899 99.2608 47.4335C99.1889 47.2771 99.0583 47.155 98.897 47.0935C98.7358 47.0321 98.5569 47.0363 98.3986 47.1051C96.868 47.8006 95.6474 49.2884 95.8024 50.7761C95.8937 51.5585 96.2905 52.2734 96.9067 52.7662C97.1417 52.9487 97.4123 53.0803 97.7011 53.1526C98.187 53.3001 98.6975 53.3493 99.2027 53.2975C99.4346 53.279 99.6566 53.1958 99.8433 53.0574C100.03 52.919 100.174 52.7311 100.259 52.515C100.31 52.3621 100.302 52.1956 100.237 52.0481C100.172 51.9006 100.054 51.7827 99.9059 51.7175C99.758 51.6522 99.5911 51.6443 99.4378 51.6954C99.2844 51.7464 99.1557 51.8526 99.0767 51.9933V52.032Z" fill="#F56C2C"/>
<path fill-rule="evenodd" clip-rule="evenodd" d="M14.362 97.2339C13.9357 100.055 13.3932 102.837 12.812 105.619C12.7935 105.703 12.792 105.79 12.8074 105.874C12.8228 105.958 12.8549 106.039 12.9017 106.111C12.9486 106.183 13.0093 106.245 13.0804 106.293C13.1515 106.341 13.2315 106.375 13.3157 106.392C13.4837 106.424 13.6575 106.389 13.8003 106.295C13.9431 106.202 14.0438 106.056 14.081 105.89C14.672 103.069 15.2145 100.277 15.6407 97.4271C15.6658 97.2581 15.6228 97.0861 15.5212 96.9485C15.4195 96.811 15.2675 96.7191 15.0982 96.6929C15.014 96.6778 14.9275 96.68 14.8442 96.6993C14.7608 96.7187 14.6823 96.7548 14.6134 96.8054C14.5445 96.856 14.4866 96.9202 14.4434 96.9938C14.4002 97.0675 14.3725 97.1492 14.362 97.2339Z" fill="#F56C2C"/>
<path fill-rule="evenodd" clip-rule="evenodd" d="M9.5949 100.238C13.148 101.156 16.5788 102.492 19.8152 104.219C19.9655 104.288 20.1366 104.297 20.2934 104.244C20.4502 104.191 20.581 104.081 20.659 103.935C20.7369 103.79 20.7561 103.62 20.7127 103.461C20.6693 103.302 20.5666 103.165 20.4255 103.079C17.0951 101.3 13.5631 99.9244 9.90488 98.9825C9.82083 98.9581 9.7327 98.9509 9.64578 98.9613C9.55886 98.9717 9.47497 98.9996 9.39913 99.0432C9.32329 99.0868 9.25706 99.1452 9.20445 99.215C9.15185 99.2848 9.11395 99.3644 9.09303 99.4492C9.0721 99.534 9.0686 99.6221 9.08271 99.7082C9.09682 99.7944 9.12827 99.8768 9.17516 99.9506C9.22204 100.024 9.28339 100.088 9.35552 100.137C9.42766 100.187 9.50909 100.221 9.5949 100.238Z" fill="#F56C2C"/>
<path fill-rule="evenodd" clip-rule="evenodd" d="M11.2022 97.2435C13.3141 99.9775 14.9513 102.885 16.8307 105.755C16.9257 105.898 17.0732 105.998 17.2416 106.034C17.41 106.07 17.5859 106.039 17.7316 105.948C17.804 105.902 17.8663 105.842 17.915 105.771C17.9636 105.701 17.9975 105.621 18.0147 105.537C18.0319 105.454 18.032 105.367 18.0149 105.283C17.9979 105.199 17.9642 105.12 17.9156 105.049C15.9782 102.151 14.3603 99.2529 12.2291 96.4513C12.177 96.3841 12.112 96.3278 12.038 96.2855C11.964 96.2433 11.8824 96.2161 11.7979 96.2053C11.7133 96.1945 11.6274 96.2005 11.5452 96.2228C11.4629 96.2451 11.3859 96.2834 11.3185 96.3354C11.1844 96.442 11.0973 96.5964 11.0756 96.7659C11.0539 96.9355 11.0993 97.1068 11.2022 97.2435Z" fill="#F56C2C"/>
<path fill-rule="evenodd" clip-rule="evenodd" d="M9.40175 104.76C12.7633 102.228 16.677 100.325 20.1548 97.9971C20.2276 97.9505 20.2904 97.8899 20.3393 97.8187C20.3883 97.7476 20.4225 97.6674 20.44 97.5829C20.4574 97.4984 20.4577 97.4113 20.4409 97.3266C20.4241 97.242 20.3905 97.1615 20.342 97.09C20.2936 97.0185 20.2313 96.9574 20.1588 96.9103C20.0864 96.8631 20.0052 96.831 19.92 96.8156C19.8349 96.8002 19.7475 96.8019 19.6631 96.8207C19.5786 96.8394 19.4988 96.8748 19.4283 96.9248C15.9214 99.3013 11.998 101.214 8.61707 103.755C8.47961 103.859 8.38912 104.013 8.36551 104.183C8.34189 104.353 8.38707 104.526 8.49112 104.663C8.59518 104.8 8.74959 104.89 8.92036 104.914C9.09113 104.937 9.26429 104.892 9.40175 104.789V104.76Z" fill="#F56C2C"/>
<path fill-rule="evenodd" clip-rule="evenodd" d="M93.2639 6.74304C91.3264 10.0566 89.1855 13.2253 87.4514 16.6548C87.3743 16.8085 87.3617 16.9865 87.4162 17.1496C87.4707 17.3126 87.5879 17.4474 87.7421 17.5243C87.8962 17.6011 88.0747 17.6138 88.2382 17.5594C88.4017 17.5051 88.5368 17.3882 88.6139 17.2344C90.3189 13.8243 92.4889 10.6846 94.4264 7.39995C94.5137 7.25135 94.5383 7.07422 94.4947 6.90755C94.4511 6.74087 94.3429 6.59829 94.1939 6.51118C94.0449 6.42406 93.8673 6.39955 93.7001 6.44303C93.533 6.48651 93.39 6.59443 93.3027 6.74304H93.2639Z" fill="#F56C2C"/>
<path fill-rule="evenodd" clip-rule="evenodd" d="M86.8816 9.58327C89.2163 12.2593 91.8125 14.6744 94.3313 17.1668C94.3907 17.227 94.4616 17.2748 94.5398 17.3074C94.618 17.34 94.7018 17.3568 94.7865 17.3568C94.8713 17.3568 94.9552 17.34 95.0333 17.3074C95.1115 17.2748 95.1824 17.227 95.2419 17.1668C95.3022 17.1075 95.3501 17.0368 95.3828 16.9589C95.4155 16.8809 95.4324 16.7973 95.4324 16.7128C95.4324 16.6283 95.4155 16.5446 95.3828 16.4667C95.3501 16.3887 95.3022 16.318 95.2419 16.2587C92.7425 13.7953 90.1753 11.4284 87.86 8.75245C87.8098 8.67406 87.7432 8.60738 87.6648 8.55697C87.5864 8.50657 87.498 8.47361 87.4056 8.46035C87.3133 8.44708 87.2192 8.45383 87.1297 8.48012C87.0402 8.5064 86.9575 8.55162 86.8871 8.61268C86.8167 8.67374 86.7603 8.74921 86.7218 8.83396C86.6833 8.9187 86.6637 9.01073 86.6641 9.10376C86.6645 9.19679 86.6849 9.28863 86.7241 9.37305C86.7634 9.45746 86.8204 9.53246 86.8913 9.59292L86.8816 9.58327Z" fill="#F56C2C"/>
<path fill-rule="evenodd" clip-rule="evenodd" d="M88.642 7.73812C89.0586 11.0807 89.9111 14.288 90.163 17.6596C90.1758 17.8312 90.2565 17.9908 90.3873 18.1031C90.5181 18.2154 90.6883 18.2713 90.8604 18.2585C91.0326 18.2457 91.1925 18.1652 91.3052 18.0348C91.4178 17.9043 91.4739 17.7346 91.461 17.5629C91.2092 14.1721 90.3567 10.9454 89.9304 7.58355C89.9086 7.41245 89.8202 7.25678 89.6843 7.15014C89.5483 7.0435 89.3757 6.99444 89.2038 7.01358C89.1192 7.02431 89.0376 7.05158 88.9636 7.09381C88.8895 7.13605 88.8245 7.19242 88.7723 7.25971C88.7201 7.327 88.6818 7.40389 88.6594 7.48598C88.637 7.56807 88.6311 7.65375 88.642 7.73812Z" fill="#F56C2C"/>
<path fill-rule="evenodd" clip-rule="evenodd" d="M86.4068 15.341C89.7683 14.2396 93.1879 13.4088 96.5301 12.1626C96.692 12.1024 96.8232 11.9805 96.895 11.8238C96.9667 11.6671 96.9732 11.4884 96.9128 11.327C96.8524 11.1656 96.7302 11.0347 96.573 10.9631C96.4159 10.8916 96.2367 10.8852 96.0748 10.9454C92.7811 12.1723 89.2936 13.0128 85.9998 14.1044C85.8354 14.1582 85.6992 14.275 85.6211 14.429C85.543 14.5829 85.5293 14.7616 85.5833 14.9256C85.6372 15.0895 85.7543 15.2254 85.9087 15.3033C86.0632 15.3812 86.2423 15.3948 86.4068 15.341Z" fill="#F56C2C"/>
</svg>
