<svg xmlns="http://www.w3.org/2000/svg" width="538" height="312" viewBox="0 0 538 312" version="1.1"><path d="M 4.701 3.632 C 4.316 4.018, 4 12.583, 4 22.667 L 4 41 6.522 41 L 9.044 41 8.772 22.263 C 8.540 6.282, 8.272 3.482, 6.951 3.228 C 6.099 3.065, 5.087 3.246, 4.701 3.632 M 229.272 41.528 C 223.432 47.368, 224.300 49.612, 240.736 71.194 C 248.404 81.262, 255.265 90.443, 255.983 91.596 C 257.188 93.530, 256.003 95.286, 240.644 114.336 C 224.721 134.086, 224 135.173, 224 139.418 C 224 143.020, 224.496 144.245, 226.635 145.927 C 229.738 148.369, 234.676 148.616, 237.722 146.482 C 238.914 145.648, 246.252 136.848, 254.030 126.927 C 261.807 117.007, 268.545 109.027, 269.002 109.195 C 269.460 109.363, 276.202 117.825, 283.985 128 C 291.768 138.175, 299.118 147.047, 300.318 147.715 C 303.289 149.368, 306.533 149.293, 310.020 147.490 C 313.616 145.630, 315 143.179, 315 138.671 C 315 135.747, 312.522 131.944, 299 114.124 C 290.200 102.526, 283 92.851, 283 92.624 C 283 92.396, 290.425 82.679, 299.500 71.030 C 317.830 47.501, 318.578 45.844, 313.195 40.687 C 309.846 37.478, 305.338 37.157, 301.885 39.882 C 300.573 40.917, 293.425 49.667, 286 59.327 C 278.575 68.987, 272.050 76.772, 271.500 76.628 C 270.950 76.484, 264.368 68.331, 256.874 58.510 C 249.379 48.690, 242.431 40.057, 241.433 39.327 C 237.983 36.805, 233.114 37.686, 229.272 41.528 M 4 174.386 L 4 287.772 6.793 293.118 C 9.945 299.151, 16.141 304.422, 21.908 305.975 C 24.486 306.669, 91.826 306.923, 228.616 306.752 C 430.749 306.501, 431.500 306.493, 431.500 304.500 C 431.500 302.508, 430.667 302.498, 228.500 302 C 64.226 301.595, 24.928 301.250, 22.500 300.190 C 20.850 299.470, 17.799 297.228, 15.720 295.208 C 8.681 288.370, 9 294.242, 9 171.318 L 9 61 6.500 61 L 4 61 4 174.386 M 105.634 216.031 C 93.334 219.715, 86.543 234.793, 91.886 246.556 C 94.518 252.350, 101.138 257.674, 107.380 259.015 C 111.019 259.798, 158.773 260.027, 272.500 259.808 L 432.500 259.500 436.653 257.279 C 449.997 250.144, 452.977 233.440, 442.865 222.469 C 435.425 214.398, 449.355 214.989, 269.072 215.086 C 180.757 215.133, 107.210 215.558, 105.634 216.031 M 154.337 231.935 C 154.834 234.421, 154.585 234.919, 152.712 235.185 C 149.526 235.638, 149.926 238.434, 153.231 238.815 C 155.825 239.113, 155.887 239.243, 154.477 241.394 C 153.661 242.640, 153.295 243.961, 153.663 244.330 C 154.968 245.634, 156.874 244.974, 157.500 243 C 157.849 241.900, 158.524 241, 159 241 C 159.476 241, 160.151 241.900, 160.500 243 C 160.849 244.100, 161.779 245, 162.567 245 C 164.307 245, 164.459 241.859, 162.800 240.200 C 161.867 239.267, 162.327 239, 164.873 239 C 167.454 239, 168.074 238.630, 167.805 237.250 C 167.561 236.003, 166.696 235.590, 164.794 235.813 C 162.214 236.116, 162.164 236.027, 163.268 233.101 C 164.767 229.131, 163.371 227.864, 160.969 231.015 L 159.075 233.500 157.481 231.250 C 155.214 228.051, 153.629 228.397, 154.337 231.935 M 178.513 229.979 C 178.180 230.518, 178.378 231.838, 178.953 232.913 C 179.862 234.611, 179.639 234.909, 177.250 235.184 C 173.596 235.604, 173.596 238.396, 177.250 238.816 C 180.031 239.136, 180.833 240.367, 179 241.500 C 177.471 242.445, 177.811 245, 179.465 245 C 180.270 245, 181.451 244.027, 182.087 242.837 L 183.245 240.673 185.069 243.087 C 186.528 245.018, 187.142 245.251, 188.146 244.250 C 189.121 243.278, 189.133 242.733, 188.200 241.800 C 186.346 239.946, 186.754 239.161, 189.750 238.816 C 193.404 238.396, 193.404 235.604, 189.750 235.184 C 187.361 234.909, 187.138 234.611, 188.047 232.913 C 189.118 230.911, 188.594 229, 186.973 229 C 186.473 229, 185.463 230.148, 184.728 231.550 L 183.392 234.100 182.027 231.550 C 180.582 228.851, 179.507 228.371, 178.513 229.979 M 203 230.941 C 203 232.009, 203.563 233.236, 204.250 233.670 C 205.072 234.188, 204.473 234.639, 202.500 234.989 C 200.757 235.297, 199.500 236.140, 199.500 237 C 199.500 237.860, 200.757 238.703, 202.500 239.011 C 204.473 239.361, 205.072 239.812, 204.250 240.330 C 202.531 241.414, 202.671 245, 204.433 245 C 205.221 245, 206.151 244.100, 206.500 243 C 206.849 241.900, 207.446 241, 207.827 241 C 208.207 241, 209.081 241.900, 209.768 243 C 210.455 244.100, 211.463 245, 212.008 245 C 213.438 245, 213.231 241.264, 211.750 240.330 C 210.928 239.812, 211.527 239.361, 213.500 239.011 C 215.243 238.703, 216.500 237.860, 216.500 237 C 216.500 236.140, 215.243 235.297, 213.500 234.989 C 211.527 234.639, 210.928 234.188, 211.750 233.670 C 213.203 232.754, 213.450 229, 212.057 229 C 211.538 229, 210.413 230, 209.557 231.223 L 208 233.445 206.443 231.223 C 204.524 228.483, 203 228.358, 203 230.941 M 227.446 230.087 C 227.077 230.685, 227.275 231.675, 227.887 232.287 C 229.653 234.053, 229.206 234.843, 226.250 235.184 C 224.613 235.372, 223.500 236.107, 223.500 237 C 223.500 237.893, 224.613 238.628, 226.250 238.816 C 229.320 239.170, 229.419 239.349, 227.997 242.005 C 226.441 244.914, 228.946 245.724, 231.015 242.981 L 232.755 240.673 233.913 242.837 C 235.159 245.165, 238.010 245.804, 237.985 243.750 C 237.976 243.063, 237.539 241.825, 237.012 241 C 236.263 239.826, 236.646 239.389, 238.778 238.990 C 240.285 238.708, 241.500 237.820, 241.500 237 C 241.500 236.180, 240.285 235.292, 238.778 235.010 C 236.646 234.611, 236.263 234.174, 237.012 233 C 238.382 230.853, 238.219 229, 236.661 229 C 235.924 229, 234.757 230.237, 234.069 231.749 L 232.816 234.497 231.376 231.749 C 229.854 228.842, 228.555 228.293, 227.446 230.087 M 252 230.941 C 252 232.009, 252.563 233.236, 253.250 233.670 C 254.072 234.188, 253.473 234.639, 251.500 234.989 C 247.721 235.657, 247.538 238.300, 251.222 238.990 C 253.354 239.389, 253.737 239.826, 252.988 241 C 251.590 243.191, 251.791 245, 253.433 245 C 254.221 245, 255.151 244.100, 255.500 243 C 255.849 241.900, 256.446 241, 256.827 241 C 257.207 241, 258.081 241.900, 258.768 243 C 259.455 244.100, 260.463 245, 261.008 245 C 262.394 245, 262.249 241.649, 260.800 240.200 C 259.867 239.267, 260.327 239, 262.873 239 C 265.451 239, 266.076 238.628, 265.813 237.250 C 265.630 236.287, 264.472 235.356, 263.240 235.180 C 260.699 234.818, 260.612 234.593, 262.003 231.995 C 263.589 229.031, 261.040 228.301, 258.900 231.106 L 257.075 233.500 255.481 231.250 C 253.522 228.486, 252 228.351, 252 230.941 M 276.446 230.087 C 276.077 230.685, 276.275 231.675, 276.887 232.287 C 278.653 234.053, 278.206 234.843, 275.250 235.184 C 273.613 235.372, 272.500 236.107, 272.500 237 C 272.500 237.893, 273.613 238.628, 275.250 238.816 C 278.246 239.161, 278.654 239.946, 276.800 241.800 C 275.867 242.733, 275.879 243.278, 276.854 244.250 C 277.858 245.251, 278.472 245.018, 279.931 243.087 L 281.755 240.673 282.913 242.837 C 284.159 245.165, 287.010 245.804, 286.985 243.750 C 286.976 243.063, 286.539 241.825, 286.012 241 C 285.263 239.826, 285.646 239.389, 287.778 238.990 C 289.285 238.708, 290.500 237.820, 290.500 237 C 290.500 236.180, 289.285 235.292, 287.778 235.010 C 285.646 234.611, 285.263 234.174, 286.012 233 C 287.382 230.853, 287.219 229, 285.661 229 C 284.924 229, 283.757 230.237, 283.069 231.749 L 281.816 234.497 280.376 231.749 C 278.854 228.842, 277.555 228.293, 276.446 230.087 M 301 230.941 C 301 232.009, 301.563 233.236, 302.250 233.670 C 303.072 234.188, 302.473 234.639, 300.500 234.989 C 296.721 235.657, 296.538 238.300, 300.222 238.990 C 302.354 239.389, 302.737 239.826, 301.988 241 C 300.590 243.191, 300.791 245, 302.433 245 C 303.221 245, 304.151 244.100, 304.500 243 C 304.849 241.900, 305.446 241, 305.827 241 C 306.207 241, 307.081 241.900, 307.768 243 C 308.455 244.100, 309.463 245, 310.008 245 C 311.394 245, 311.249 241.649, 309.800 240.200 C 308.867 239.267, 309.327 239, 311.873 239 C 314.457 239, 315.073 238.631, 314.799 237.250 C 314.564 236.069, 313.708 235.605, 312.166 235.823 C 310.053 236.122, 309.932 235.878, 310.552 232.573 C 311.353 228.305, 309.723 227.742, 307.706 231.591 L 306.349 234.182 304.651 231.591 C 302.641 228.522, 301 228.230, 301 230.941 M 325.446 230.087 C 325.077 230.685, 325.275 231.675, 325.887 232.287 C 327.666 234.066, 327.189 235, 324.500 235 C 322.667 235, 322 235.533, 322 237 C 322 238.467, 322.667 239, 324.500 239 C 327.286 239, 327.440 239.309, 325.997 242.005 C 324.438 244.919, 326.947 245.721, 329.021 242.972 L 330.768 240.656 332.125 242.828 C 333.598 245.187, 336.009 245.763, 335.985 243.750 C 335.976 243.063, 335.539 241.825, 335.012 241 C 334.263 239.826, 334.646 239.389, 336.778 238.990 C 340.334 238.324, 340.350 235.598, 336.800 235.188 C 334.325 234.903, 334.192 234.673, 335.212 232.434 C 336.859 228.820, 335.157 228.079, 332.590 231.291 L 330.359 234.083 329.201 231.541 C 327.973 228.846, 326.553 228.296, 325.446 230.087 M 350.015 230.250 C 350.024 230.938, 350.461 232.175, 350.988 233 C 351.737 234.174, 351.354 234.611, 349.222 235.010 C 347.715 235.292, 346.500 236.180, 346.500 237 C 346.500 237.820, 347.715 238.708, 349.222 238.990 C 351.354 239.389, 351.737 239.826, 350.988 241 C 350.461 241.825, 350.024 243.063, 350.015 243.750 C 349.991 245.763, 352.402 245.187, 353.875 242.828 L 355.232 240.656 356.979 242.972 C 359.053 245.721, 361.562 244.919, 360.003 242.005 C 358.581 239.349, 358.680 239.170, 361.750 238.816 C 363.387 238.628, 364.500 237.893, 364.500 237 C 364.500 236.107, 363.387 235.372, 361.750 235.184 C 358.794 234.843, 358.347 234.053, 360.113 232.287 C 361.276 231.124, 360.540 229, 358.973 229 C 358.473 229, 357.416 230.237, 356.624 231.749 L 355.184 234.497 353.931 231.749 C 352.665 228.970, 349.987 227.945, 350.015 230.250 M 374.446 230.087 C 374.077 230.685, 374.275 231.675, 374.887 232.287 C 376.647 234.047, 376.197 235, 373.607 235 C 371.311 235, 369.490 237.157, 370.736 238.402 C 371.064 238.731, 372.383 239, 373.667 239 C 376.282 239, 376.429 239.331, 374.997 242.005 C 373.438 244.919, 375.947 245.721, 378.021 242.972 L 379.768 240.656 381.125 242.828 C 382.598 245.187, 385.009 245.763, 384.985 243.750 C 384.976 243.063, 384.539 241.825, 384.012 241 C 383.263 239.826, 383.646 239.389, 385.778 238.990 C 389.334 238.324, 389.350 235.598, 385.800 235.188 C 383.325 234.903, 383.192 234.673, 384.212 232.434 C 385.859 228.820, 384.157 228.079, 381.590 231.291 L 379.359 234.083 378.201 231.541 C 376.973 228.846, 375.553 228.296, 374.446 230.087 M 458.529 302.355 C 457.394 303.185, 456.920 304.348, 457.306 305.355 C 457.860 306.799, 460.187 307, 476.362 307 C 492.879 307, 494.854 306.822, 495.447 305.276 C 496.799 301.753, 493.462 301, 476.500 301 C 464.516 301, 459.907 301.348, 458.529 302.355" stroke="none" fill="#f8f9fa" fill-rule="evenodd"/><path d="M 0 156.002 L 0 312.004 269.250 311.752 L 538.500 311.500 538.753 155.750 L 539.006 0 269.503 0 L 0 0 0 156.002 M 0.488 156.500 C 0.488 242.300, 0.606 277.252, 0.750 234.171 C 0.894 191.091, 0.894 120.891, 0.750 78.171 C 0.606 35.452, 0.488 70.700, 0.488 156.500 M 4.701 3.632 C 4.316 4.018, 4 12.583, 4 22.667 L 4 41 6.522 41 L 9.044 41 8.772 22.263 C 8.540 6.282, 8.272 3.482, 6.951 3.228 C 6.099 3.065, 5.087 3.246, 4.701 3.632 M 229.272 41.528 C 223.432 47.368, 224.300 49.612, 240.736 71.194 C 248.404 81.262, 255.265 90.443, 255.983 91.596 C 257.188 93.530, 256.003 95.286, 240.644 114.336 C 224.721 134.086, 224 135.173, 224 139.418 C 224 143.020, 224.496 144.245, 226.635 145.927 C 229.738 148.369, 234.676 148.616, 237.722 146.482 C 238.914 145.648, 246.252 136.848, 254.030 126.927 C 261.807 117.007, 268.545 109.027, 269.002 109.195 C 269.460 109.363, 276.202 117.825, 283.985 128 C 291.768 138.175, 299.118 147.047, 300.318 147.715 C 303.289 149.368, 306.533 149.293, 310.020 147.490 C 313.616 145.630, 315 143.179, 315 138.671 C 315 135.747, 312.522 131.944, 299 114.124 C 290.200 102.526, 283 92.851, 283 92.624 C 283 92.396, 290.425 82.679, 299.500 71.030 C 317.830 47.501, 318.578 45.844, 313.195 40.687 C 309.846 37.478, 305.338 37.157, 301.885 39.882 C 300.573 40.917, 293.425 49.667, 286 59.327 C 278.575 68.987, 272.050 76.772, 271.500 76.628 C 270.950 76.484, 264.368 68.331, 256.874 58.510 C 249.379 48.690, 242.431 40.057, 241.433 39.327 C 237.983 36.805, 233.114 37.686, 229.272 41.528 M 4 174.386 L 4 287.772 6.793 293.118 C 9.945 299.151, 16.141 304.422, 21.908 305.975 C 24.486 306.669, 91.826 306.923, 228.616 306.752 C 430.749 306.501, 431.500 306.493, 431.500 304.500 C 431.500 302.508, 430.667 302.498, 228.500 302 C 64.226 301.595, 24.928 301.250, 22.500 300.190 C 20.850 299.470, 17.799 297.228, 15.720 295.208 C 8.681 288.370, 9 294.242, 9 171.318 L 9 61 6.500 61 L 4 61 4 174.386 M 105.634 216.031 C 93.334 219.715, 86.543 234.793, 91.886 246.556 C 94.518 252.350, 101.138 257.674, 107.380 259.015 C 111.019 259.798, 158.773 260.027, 272.500 259.808 L 432.500 259.500 436.653 257.279 C 449.997 250.144, 452.977 233.440, 442.865 222.469 C 435.425 214.398, 449.355 214.989, 269.072 215.086 C 180.757 215.133, 107.210 215.558, 105.634 216.031 M 154.337 231.935 C 154.834 234.421, 154.585 234.919, 152.712 235.185 C 149.526 235.638, 149.926 238.434, 153.231 238.815 C 155.825 239.113, 155.887 239.243, 154.477 241.394 C 153.661 242.640, 153.295 243.961, 153.663 244.330 C 154.968 245.634, 156.874 244.974, 157.500 243 C 157.849 241.900, 158.524 241, 159 241 C 159.476 241, 160.151 241.900, 160.500 243 C 160.849 244.100, 161.779 245, 162.567 245 C 164.307 245, 164.459 241.859, 162.800 240.200 C 161.867 239.267, 162.327 239, 164.873 239 C 167.454 239, 168.074 238.630, 167.805 237.250 C 167.561 236.003, 166.696 235.590, 164.794 235.813 C 162.214 236.116, 162.164 236.027, 163.268 233.101 C 164.767 229.131, 163.371 227.864, 160.969 231.015 L 159.075 233.500 157.481 231.250 C 155.214 228.051, 153.629 228.397, 154.337 231.935 M 178.513 229.979 C 178.180 230.518, 178.378 231.838, 178.953 232.913 C 179.862 234.611, 179.639 234.909, 177.250 235.184 C 173.596 235.604, 173.596 238.396, 177.250 238.816 C 180.031 239.136, 180.833 240.367, 179 241.500 C 177.471 242.445, 177.811 245, 179.465 245 C 180.270 245, 181.451 244.027, 182.087 242.837 L 183.245 240.673 185.069 243.087 C 186.528 245.018, 187.142 245.251, 188.146 244.250 C 189.121 243.278, 189.133 242.733, 188.200 241.800 C 186.346 239.946, 186.754 239.161, 189.750 238.816 C 193.404 238.396, 193.404 235.604, 189.750 235.184 C 187.361 234.909, 187.138 234.611, 188.047 232.913 C 189.118 230.911, 188.594 229, 186.973 229 C 186.473 229, 185.463 230.148, 184.728 231.550 L 183.392 234.100 182.027 231.550 C 180.582 228.851, 179.507 228.371, 178.513 229.979 M 203 230.941 C 203 232.009, 203.563 233.236, 204.250 233.670 C 205.072 234.188, 204.473 234.639, 202.500 234.989 C 200.757 235.297, 199.500 236.140, 199.500 237 C 199.500 237.860, 200.757 238.703, 202.500 239.011 C 204.473 239.361, 205.072 239.812, 204.250 240.330 C 202.531 241.414, 202.671 245, 204.433 245 C 205.221 245, 206.151 244.100, 206.500 243 C 206.849 241.900, 207.446 241, 207.827 241 C 208.207 241, 209.081 241.900, 209.768 243 C 210.455 244.100, 211.463 245, 212.008 245 C 213.438 245, 213.231 241.264, 211.750 240.330 C 210.928 239.812, 211.527 239.361, 213.500 239.011 C 215.243 238.703, 216.500 237.860, 216.500 237 C 216.500 236.140, 215.243 235.297, 213.500 234.989 C 211.527 234.639, 210.928 234.188, 211.750 233.670 C 213.203 232.754, 213.450 229, 212.057 229 C 211.538 229, 210.413 230, 209.557 231.223 L 208 233.445 206.443 231.223 C 204.524 228.483, 203 228.358, 203 230.941 M 227.446 230.087 C 227.077 230.685, 227.275 231.675, 227.887 232.287 C 229.653 234.053, 229.206 234.843, 226.250 235.184 C 224.613 235.372, 223.500 236.107, 223.500 237 C 223.500 237.893, 224.613 238.628, 226.250 238.816 C 229.320 239.170, 229.419 239.349, 227.997 242.005 C 226.441 244.914, 228.946 245.724, 231.015 242.981 L 232.755 240.673 233.913 242.837 C 235.159 245.165, 238.010 245.804, 237.985 243.750 C 237.976 243.063, 237.539 241.825, 237.012 241 C 236.263 239.826, 236.646 239.389, 238.778 238.990 C 240.285 238.708, 241.500 237.820, 241.500 237 C 241.500 236.180, 240.285 235.292, 238.778 235.010 C 236.646 234.611, 236.263 234.174, 237.012 233 C 238.382 230.853, 238.219 229, 236.661 229 C 235.924 229, 234.757 230.237, 234.069 231.749 L 232.816 234.497 231.376 231.749 C 229.854 228.842, 228.555 228.293, 227.446 230.087 M 252 230.941 C 252 232.009, 252.563 233.236, 253.250 233.670 C 254.072 234.188, 253.473 234.639, 251.500 234.989 C 247.721 235.657, 247.538 238.300, 251.222 238.990 C 253.354 239.389, 253.737 239.826, 252.988 241 C 251.590 243.191, 251.791 245, 253.433 245 C 254.221 245, 255.151 244.100, 255.500 243 C 255.849 241.900, 256.446 241, 256.827 241 C 257.207 241, 258.081 241.900, 258.768 243 C 259.455 244.100, 260.463 245, 261.008 245 C 262.394 245, 262.249 241.649, 260.800 240.200 C 259.867 239.267, 260.327 239, 262.873 239 C 265.451 239, 266.076 238.628, 265.813 237.250 C 265.630 236.287, 264.472 235.356, 263.240 235.180 C 260.699 234.818, 260.612 234.593, 262.003 231.995 C 263.589 229.031, 261.040 228.301, 258.900 231.106 L 257.075 233.500 255.481 231.250 C 253.522 228.486, 252 228.351, 252 230.941 M 276.446 230.087 C 276.077 230.685, 276.275 231.675, 276.887 232.287 C 278.653 234.053, 278.206 234.843, 275.250 235.184 C 273.613 235.372, 272.500 236.107, 272.500 237 C 272.500 237.893, 273.613 238.628, 275.250 238.816 C 278.246 239.161, 278.654 239.946, 276.800 241.800 C 275.867 242.733, 275.879 243.278, 276.854 244.250 C 277.858 245.251, 278.472 245.018, 279.931 243.087 L 281.755 240.673 282.913 242.837 C 284.159 245.165, 287.010 245.804, 286.985 243.750 C 286.976 243.063, 286.539 241.825, 286.012 241 C 285.263 239.826, 285.646 239.389, 287.778 238.990 C 289.285 238.708, 290.500 237.820, 290.500 237 C 290.500 236.180, 289.285 235.292, 287.778 235.010 C 285.646 234.611, 285.263 234.174, 286.012 233 C 287.382 230.853, 287.219 229, 285.661 229 C 284.924 229, 283.757 230.237, 283.069 231.749 L 281.816 234.497 280.376 231.749 C 278.854 228.842, 277.555 228.293, 276.446 230.087 M 301 230.941 C 301 232.009, 301.563 233.236, 302.250 233.670 C 303.072 234.188, 302.473 234.639, 300.500 234.989 C 296.721 235.657, 296.538 238.300, 300.222 238.990 C 302.354 239.389, 302.737 239.826, 301.988 241 C 300.590 243.191, 300.791 245, 302.433 245 C 303.221 245, 304.151 244.100, 304.500 243 C 304.849 241.900, 305.446 241, 305.827 241 C 306.207 241, 307.081 241.900, 307.768 243 C 308.455 244.100, 309.463 245, 310.008 245 C 311.394 245, 311.249 241.649, 309.800 240.200 C 308.867 239.267, 309.327 239, 311.873 239 C 314.457 239, 315.073 238.631, 314.799 237.250 C 314.564 236.069, 313.708 235.605, 312.166 235.823 C 310.053 236.122, 309.932 235.878, 310.552 232.573 C 311.353 228.305, 309.723 227.742, 307.706 231.591 L 306.349 234.182 304.651 231.591 C 302.641 228.522, 301 228.230, 301 230.941 M 325.446 230.087 C 325.077 230.685, 325.275 231.675, 325.887 232.287 C 327.666 234.066, 327.189 235, 324.500 235 C 322.667 235, 322 235.533, 322 237 C 322 238.467, 322.667 239, 324.500 239 C 327.286 239, 327.440 239.309, 325.997 242.005 C 324.438 244.919, 326.947 245.721, 329.021 242.972 L 330.768 240.656 332.125 242.828 C 333.598 245.187, 336.009 245.763, 335.985 243.750 C 335.976 243.063, 335.539 241.825, 335.012 241 C 334.263 239.826, 334.646 239.389, 336.778 238.990 C 340.334 238.324, 340.350 235.598, 336.800 235.188 C 334.325 234.903, 334.192 234.673, 335.212 232.434 C 336.859 228.820, 335.157 228.079, 332.590 231.291 L 330.359 234.083 329.201 231.541 C 327.973 228.846, 326.553 228.296, 325.446 230.087 M 350.015 230.250 C 350.024 230.938, 350.461 232.175, 350.988 233 C 351.737 234.174, 351.354 234.611, 349.222 235.010 C 347.715 235.292, 346.500 236.180, 346.500 237 C 346.500 237.820, 347.715 238.708, 349.222 238.990 C 351.354 239.389, 351.737 239.826, 350.988 241 C 350.461 241.825, 350.024 243.063, 350.015 243.750 C 349.991 245.763, 352.402 245.187, 353.875 242.828 L 355.232 240.656 356.979 242.972 C 359.053 245.721, 361.562 244.919, 360.003 242.005 C 358.581 239.349, 358.680 239.170, 361.750 238.816 C 363.387 238.628, 364.500 237.893, 364.500 237 C 364.500 236.107, 363.387 235.372, 361.750 235.184 C 358.794 234.843, 358.347 234.053, 360.113 232.287 C 361.276 231.124, 360.540 229, 358.973 229 C 358.473 229, 357.416 230.237, 356.624 231.749 L 355.184 234.497 353.931 231.749 C 352.665 228.970, 349.987 227.945, 350.015 230.250 M 374.446 230.087 C 374.077 230.685, 374.275 231.675, 374.887 232.287 C 376.647 234.047, 376.197 235, 373.607 235 C 371.311 235, 369.490 237.157, 370.736 238.402 C 371.064 238.731, 372.383 239, 373.667 239 C 376.282 239, 376.429 239.331, 374.997 242.005 C 373.438 244.919, 375.947 245.721, 378.021 242.972 L 379.768 240.656 381.125 242.828 C 382.598 245.187, 385.009 245.763, 384.985 243.750 C 384.976 243.063, 384.539 241.825, 384.012 241 C 383.263 239.826, 383.646 239.389, 385.778 238.990 C 389.334 238.324, 389.350 235.598, 385.800 235.188 C 383.325 234.903, 383.192 234.673, 384.212 232.434 C 385.859 228.820, 384.157 228.079, 381.590 231.291 L 379.359 234.083 378.201 231.541 C 376.973 228.846, 375.553 228.296, 374.446 230.087 M 458.529 302.355 C 457.394 303.185, 456.920 304.348, 457.306 305.355 C 457.860 306.799, 460.187 307, 476.362 307 C 492.879 307, 494.854 306.822, 495.447 305.276 C 496.799 301.753, 493.462 301, 476.500 301 C 464.516 301, 459.907 301.348, 458.529 302.355" stroke="none" fill="#05380a" fill-rule="evenodd"/></svg>