<svg width="24" height="24" viewBox="0 0 24 24" fill="none" xmlns="http://www.w3.org/2000/svg">
<path fill-rule="evenodd" clip-rule="evenodd" d="M17.2047 10.7959L19.0007 8.99994C19.546 8.45469 19.8186 8.18207 19.9644 7.88797C20.2416 7.32842 20.2416 6.67146 19.9644 6.11191C19.8186 5.81782 19.546 5.54519 19.0007 4.99994C18.4555 4.45469 18.1829 4.18207 17.8888 4.03633C17.3292 3.75905 16.6723 3.75905 16.1127 4.03633C15.8186 4.18207 15.546 4.45469 15.0007 4.99994L13.1821 6.8186C14.146 8.4692 15.5321 9.84476 17.2047 10.7959ZM11.7276 8.27305L4.85713 15.1436C4.43207 15.5686 4.21954 15.7812 4.0798 16.0422C3.94007 16.3033 3.88112 16.5981 3.76323 17.1875L3.14784 20.2645C3.08131 20.5971 3.04805 20.7634 3.14266 20.858C3.23727 20.9526 3.40357 20.9194 3.73618 20.8529L6.81316 20.2375C7.40262 20.1196 7.69734 20.0606 7.95844 19.9209C8.21954 19.7812 8.43207 19.5686 8.85713 19.1436L15.7465 12.2542C14.1249 11.2385 12.7532 9.87622 11.7276 8.27305Z" fill="black"/>
</svg>
