<svg width="38" height="68" viewBox="0 0 38 68" fill="none" xmlns="http://www.w3.org/2000/svg">
<g clip-path="url(#clip0_4292_654)">
<path d="M16.5449 16.5034C16.5449 15.4087 17.4368 14.5212 18.537 14.5212C19.6371 14.5212 20.529 15.4087 20.529 16.5034C20.529 17.5982 19.6371 18.4857 18.537 18.4857C17.4368 18.4857 16.5449 17.5982 16.5449 16.5034Z" fill="white"/>
<path d="M33.5309 30.7505C34.1433 31.7528 35.4562 32.0715 36.4634 31.4622C37.4707 30.8529 37.7909 29.5465 37.1786 28.5442L20.7851 1.70681C19.8377 0.155796 17.5716 0.166594 16.6392 1.72663L0.855353 28.1337C-0.103655 29.7382 1.05831 31.7712 2.93434 31.7712H18.4309C19.7668 31.7712 20.8498 30.6935 20.8498 29.3642V22.1697C20.8498 20.9968 19.8943 20.0459 18.7155 20.0459C17.5367 20.0459 16.5811 20.9968 16.5811 22.1697V27.5235H6.18673L18.7353 6.52899L33.5309 30.7505Z" fill="white"/>
<g opacity="0.6">
<path d="M1.70265 35.1672H4.61035C4.66345 35.1672 4.7125 35.1956 4.73906 35.2414L17.8459 57.9024L21.4846 64.1935C21.5112 64.2395 21.5112 64.2961 21.4845 64.342L20.0288 66.8553C19.5707 67.6462 18.4275 67.646 17.9699 66.8548L15.3172 62.2683L0.673003 36.9494C0.214955 36.1575 0.787066 35.1672 1.70265 35.1672Z" fill="white"/>
<path fill-rule="evenodd" clip-rule="evenodd" d="M15.1313 35.1672C15.0169 35.1672 14.9453 35.291 15.0026 35.3901L24.0464 51.0262C24.0732 51.0726 24.0732 51.1298 24.0464 51.1762L20.199 57.8281C20.1724 57.8741 20.1724 57.9308 20.199 57.9767L22.556 62.046C22.6133 62.1449 22.7562 62.1448 22.8134 62.0459L37.3289 36.9494C37.787 36.1575 37.2149 35.1672 36.2992 35.1672H15.1313ZM30.3838 39.3249C30.6134 39.3249 30.7567 39.5745 30.6415 39.7737L26.8743 46.2868C26.7595 46.4853 26.4739 46.4853 26.3592 46.2868L22.592 39.7737C22.4768 39.5745 22.62 39.3249 22.8496 39.3249H30.3838Z" fill="white"/>
</g>
<path d="M37.8094 3.0223C37.8094 1.45749 36.5334 0.188965 34.9594 0.188965C33.3854 0.188965 32.1094 1.45749 32.1094 3.0223C32.1094 4.5871 33.3854 5.85563 34.9594 5.85563C36.5334 5.85563 37.8094 4.5871 37.8094 3.0223Z" stroke="#D9D9D9" stroke-width="0.5"/>
<path d="M33.7988 4.31812V1.72656H35.1706C35.3631 1.72656 35.5227 1.7593 35.6494 1.82478C35.776 1.89026 35.871 1.98345 35.9344 2.10434C35.9977 2.22523 36.0294 2.36752 36.0294 2.53123C36.0294 2.69997 35.9914 2.84982 35.9154 2.98078C35.8394 3.10923 35.7279 3.20619 35.581 3.27167L36.1206 4.31812H35.581L35.1022 3.35478H34.2928V4.31812H33.7988ZM34.2928 2.94301H35.1326C35.2592 2.94301 35.3568 2.90648 35.4252 2.83345C35.4936 2.76041 35.5278 2.65967 35.5278 2.53123C35.5278 2.44812 35.5126 2.37886 35.4822 2.32345C35.4518 2.26552 35.4074 2.22145 35.3492 2.19123C35.2909 2.16101 35.2187 2.1459 35.1326 2.1459H34.2928V2.94301Z" fill="white"/>
</g>
<defs>
<clipPath id="clip0_4292_654">
<rect width="38" height="68" fill="white"/>
</clipPath>
</defs>
</svg>
