<svg width="20" height="21" viewBox="0 0 20 21" fill="none" xmlns="http://www.w3.org/2000/svg">
<path d="M14.1667 18.2082H5.83341C2.79175 18.2082 1.04175 16.4582 1.04175 13.4165V7.58317C1.04175 4.5415 2.79175 2.7915 5.83341 2.7915H14.1667C17.2084 2.7915 18.9584 4.5415 18.9584 7.58317V13.4165C18.9584 16.4582 17.2084 18.2082 14.1667 18.2082ZM5.83341 4.0415C3.45008 4.0415 2.29175 5.19984 2.29175 7.58317V13.4165C2.29175 15.7998 3.45008 16.9582 5.83341 16.9582H14.1667C16.5501 16.9582 17.7084 15.7998 17.7084 13.4165V7.58317C17.7084 5.19984 16.5501 4.0415 14.1667 4.0415H5.83341Z" fill="#718096"/>
<path d="M9.99973 11.225C9.29973 11.225 8.5914 11.0083 8.04974 10.5666L5.4414 8.48331C5.17473 8.26664 5.12474 7.87497 5.3414 7.60831C5.55807 7.34164 5.94974 7.29164 6.21641 7.50831L8.82473 9.59164C9.45806 10.1 10.5331 10.1 11.1664 9.59164L13.7747 7.50831C14.0414 7.29164 14.4414 7.33331 14.6497 7.60831C14.8664 7.87497 14.8247 8.27498 14.5497 8.48331L11.9414 10.5666C11.4081 11.0083 10.6997 11.225 9.99973 11.225Z" fill="#718096"/>
</svg>
