<svg width="14" height="14" viewBox="0 0 14 14" fill="none" xmlns="http://www.w3.org/2000/svg">
<path fill-rule="evenodd" clip-rule="evenodd" d="M8.25368 13.8359C8.94983 12.8064 9.01397 11.6945 8.44613 10.5002C8.28822 11.1409 7.99936 11.5298 7.57952 11.6669C7.96939 10.5535 7.64362 9.35058 6.60217 8.05818C6.5797 9.39299 6.25893 10.3653 5.63984 10.9752C4.78699 11.8146 4.79702 12.7619 5.66992 13.8171C2.04638 11.8888 1.53516 9.30248 4.13621 6.05834C4.29753 6.84206 4.68847 7.32323 5.30906 7.50184C4.6326 4.63127 5.34433 2.18534 7.44423 0.164062C7.45713 4.64972 8.83266 5.04842 10.5718 7.05072C12.4496 9.45358 11.3461 12.2265 8.25368 13.8359Z" fill="url(#paint0_linear_300_967)"/>
<defs>
<linearGradient id="paint0_linear_300_967" x1="11.1965" y1="3.91639" x2="3.19706" y2="11.9159" gradientUnits="userSpaceOnUse">
<stop stop-color="#EF3E3D"/>
<stop offset="1" stop-color="#FFC828"/>
</linearGradient>
</defs>
</svg>
