<svg width="30" height="30" viewBox="0 0 30 30" fill="none" xmlns="http://www.w3.org/2000/svg">
<path d="M14.9854 0.5C23.0044 0.50019 29.5 6.99659 29.5 15C29.5 23.0034 23.0044 29.4998 14.9854 29.5C6.98215 29.5 0.5 23.0045 0.5 15C0.5 6.99549 6.98215 0.5 14.9854 0.5ZM11.6562 21.1436C12.3167 23.34 13.3149 25.3828 14.5889 27.2246L15 27.8193L15.4111 27.2246C16.6851 25.3828 17.6833 23.34 18.3438 21.1436L18.5371 20.5H11.4629L11.6562 21.1436ZM4.1875 21.25C5.68752 23.8438 8.07812 25.8291 10.9531 26.8135L12.1631 27.2275L11.5547 26.1025C10.6754 24.4759 9.99988 22.7142 9.5293 20.876L9.43359 20.5H3.75293L4.1875 21.25ZM20.4707 20.876C20.0001 22.7142 19.3246 24.4759 18.4453 26.1025L17.8369 27.2275L19.0469 26.8135C21.923 25.8287 24.3133 23.8278 25.8125 21.251L26.249 20.5H20.5664L20.4707 20.876ZM2.90527 11.8789C2.65734 12.8707 2.5 13.9168 2.5 15C2.5 16.0832 2.65734 17.1293 2.90527 18.1211L3 18.5H9.02441L8.95605 17.9395C8.83717 16.9586 8.75 15.9911 8.75 15C8.75 14.0089 8.83717 13.0414 8.95605 12.0605L9.02441 11.5H3L2.90527 11.8789ZM10.9951 11.9316C10.8587 12.9166 10.75 13.9471 10.75 15C10.75 16.0532 10.858 17.069 10.9941 18.0674L11.0537 18.5H18.9463L19.0059 18.0674C19.142 17.069 19.25 16.0532 19.25 15C19.25 13.9471 19.1413 12.9166 19.0049 11.9316L18.9453 11.5H11.0547L10.9951 11.9316ZM21.0439 12.0605C21.1628 13.0414 21.25 14.0089 21.25 15C21.25 15.9911 21.1628 16.9586 21.0439 17.9395L20.9756 18.5H27L27.0947 18.1211C27.3427 17.1293 27.5 16.0832 27.5 15C27.5 13.9168 27.3427 12.8707 27.0947 11.8789L27 11.5H20.9756L21.0439 12.0605ZM10.9531 3.18652C8.07812 4.1709 5.68752 6.15621 4.1875 8.75L3.75293 9.5H9.43359L9.5293 9.12402C9.99988 7.28583 10.6754 5.52405 11.5547 3.89746L12.1631 2.77246L10.9531 3.18652ZM14.5889 2.77539C13.3149 4.61721 12.3167 6.66003 11.6562 8.85645L11.4629 9.5H18.5371L18.3438 8.85645C17.6833 6.66003 16.6851 4.61721 15.4111 2.77539L15 2.18066L14.5889 2.77539ZM18.4453 3.89746C19.3246 5.52405 20.0001 7.28583 20.4707 9.12402L20.5664 9.5H26.249L25.8125 8.74902C24.3133 6.17222 21.923 4.17129 19.0469 3.18652L17.8369 2.77246L18.4453 3.89746Z" fill="#E3E3E3" stroke="#1E1E1D"/>
</svg>
