<svg width="12" height="12" viewBox="0 0 12 12" fill="none" xmlns="http://www.w3.org/2000/svg">
<path d="M1.18426 1.18503C1.34246 1.02703 1.55691 0.938277 1.78051 0.938277C2.0041 0.938277 2.21855 1.02703 2.37676 1.18503L5.99926 4.80753L9.62176 1.18503C9.72489 1.07397 9.85607 0.992777 10.0015 0.950011C10.1469 0.907245 10.3011 0.904489 10.448 0.942034C10.5948 0.979579 10.7288 1.05603 10.8358 1.16334C10.9429 1.27066 11.019 1.40485 11.0561 1.55178C11.0936 1.69846 11.0909 1.85252 11.0484 1.99781C11.0058 2.14309 10.9249 2.27425 10.8143 2.37753L7.19176 6.00003L10.8143 9.62254C10.9253 9.72567 11.0065 9.85684 11.0493 10.0022C11.092 10.1477 11.0948 10.3019 11.0573 10.4487C11.0197 10.5956 10.9433 10.7296 10.8359 10.8366C10.7286 10.9436 10.5944 11.0197 10.4475 11.0569C10.3008 11.0944 10.1468 11.0917 10.0015 11.0491C9.8562 11.0066 9.72504 10.9257 9.62176 10.815L5.99926 7.19254L2.37676 10.815C2.21684 10.9643 2.00523 11.0456 1.78654 11.0418C1.56785 11.038 1.35917 10.9494 1.20451 10.7948C1.04985 10.6401 0.961298 10.4314 0.95752 10.2128C0.953742 9.99406 1.03503 9.78245 1.18426 9.62254L4.80676 6.00003L1.18426 2.37753C1.02625 2.21933 0.9375 2.00488 0.9375 1.78128C0.9375 1.55769 1.02625 1.34324 1.18426 1.18503Z" fill="white"/>
</svg>
