<svg width="12" height="12" viewBox="0 0 12 12" fill="none" xmlns="http://www.w3.org/2000/svg">
<path d="M11.4688 6C11.4688 6.17405 11.3996 6.34097 11.2765 6.46404C11.1535 6.58711 10.9865 6.65625 10.8125 6.65625H6.65625V10.8125C6.65625 10.9865 6.58711 11.1535 6.46404 11.2765C6.34097 11.3996 6.17405 11.4688 6 11.4688C5.82595 11.4688 5.65903 11.3996 5.53596 11.2765C5.41289 11.1535 5.34375 10.9865 5.34375 10.8125V6.65625H1.1875C1.01345 6.65625 0.846532 6.58711 0.723461 6.46404C0.60039 6.34097 0.53125 6.17405 0.53125 6C0.53125 5.82595 0.60039 5.65903 0.723461 5.53596C0.846532 5.41289 1.01345 5.34375 1.1875 5.34375H5.34375V1.1875C5.34375 1.01345 5.41289 0.846532 5.53596 0.723461C5.65903 0.60039 5.82595 0.53125 6 0.53125C6.17405 0.53125 6.34097 0.60039 6.46404 0.723461C6.58711 0.846532 6.65625 1.01345 6.65625 1.1875V5.34375H10.8125C10.9865 5.34375 11.1535 5.41289 11.2765 5.53596C11.3996 5.65903 11.4688 5.82595 11.4688 6Z" fill="white"/>
</svg>
